<?xml version="1.0" encoding="utf-8" standalone="no"?>
<!DOCTYPE svg PUBLIC "-//W3C//DTD SVG 1.1//EN"
  "http://www.w3.org/Graphics/SVG/1.1/DTD/svg11.dtd">
<svg xmlns:xlink="http://www.w3.org/1999/xlink" width="720pt" height="432pt" viewBox="0 0 720 432" xmlns="http://www.w3.org/2000/svg" version="1.1">
 <metadata>
  <rdf:RDF xmlns:dc="http://purl.org/dc/elements/1.1/" xmlns:cc="http://creativecommons.org/ns#" xmlns:rdf="http://www.w3.org/1999/02/22-rdf-syntax-ns#">
   <cc:Work>
    <dc:type rdf:resource="http://purl.org/dc/dcmitype/StillImage"/>
    <dc:date>2024-03-12T14:53:08.002336</dc:date>
    <dc:format>image/svg+xml</dc:format>
    <dc:creator>
     <cc:Agent>
      <dc:title>Matplotlib v3.5.1, https://matplotlib.org/</dc:title>
     </cc:Agent>
    </dc:creator>
   </cc:Work>
  </rdf:RDF>
 </metadata>
 <defs>
  <style type="text/css">*{stroke-linejoin: round; stroke-linecap: butt}</style>
 </defs>
 <g id="figure_1">
  <g id="patch_1">
   <path d="M 0 432 
L 720 432 
L 720 0 
L 0 0 
z
" style="fill: #ffffff"/>
  </g>
  <g id="axes_1">
   <g id="patch_2">
    <path d="M 90 384.48 
L 648 384.48 
L 648 51.84 
L 90 51.84 
z
" style="fill: #ffffff"/>
   </g>
   <g id="matplotlib.axis_1">
    <g id="xtick_1">
     <g id="line2d_1">
      <defs>
       <path id="ma31d767320" d="M 0 0 
L 0 3.5 
" style="stroke: #000000; stroke-width: 0.8"/>
      </defs>
      <g>
       <use xlink:href="#ma31d767320" x="115.363636" y="384.48" style="stroke: #000000; stroke-width: 0.8"/>
      </g>
     </g>
     <g id="text_1">
      <!-- 0 -->
      <g transform="translate(112.182386 399.078438)scale(0.1 -0.1)">
       <defs>
        <path id="DejaVuSans-30" d="M 2034 4250 
Q 1547 4250 1301 3770 
Q 1056 3291 1056 2328 
Q 1056 1369 1301 889 
Q 1547 409 2034 409 
Q 2525 409 2770 889 
Q 3016 1369 3016 2328 
Q 3016 3291 2770 3770 
Q 2525 4250 2034 4250 
z
M 2034 4750 
Q 2819 4750 3233 4129 
Q 3647 3509 3647 2328 
Q 3647 1150 3233 529 
Q 2819 -91 2034 -91 
Q 1250 -91 836 529 
Q 422 1150 422 2328 
Q 422 3509 836 4129 
Q 1250 4750 2034 4750 
z
" transform="scale(0.015625)"/>
       </defs>
       <use xlink:href="#DejaVuSans-30"/>
      </g>
     </g>
    </g>
    <g id="xtick_2">
     <g id="line2d_2">
      <g>
       <use xlink:href="#ma31d767320" x="216.838477" y="384.48" style="stroke: #000000; stroke-width: 0.8"/>
      </g>
     </g>
     <g id="text_2">
      <!-- 1000 -->
      <g transform="translate(204.113477 399.078438)scale(0.1 -0.1)">
       <defs>
        <path id="DejaVuSans-31" d="M 794 531 
L 1825 531 
L 1825 4091 
L 703 3866 
L 703 4441 
L 1819 4666 
L 2450 4666 
L 2450 531 
L 3481 531 
L 3481 0 
L 794 0 
L 794 531 
z
" transform="scale(0.015625)"/>
       </defs>
       <use xlink:href="#DejaVuSans-31"/>
       <use xlink:href="#DejaVuSans-30" x="63.623047"/>
       <use xlink:href="#DejaVuSans-30" x="127.246094"/>
       <use xlink:href="#DejaVuSans-30" x="190.869141"/>
      </g>
     </g>
    </g>
    <g id="xtick_3">
     <g id="line2d_3">
      <g>
       <use xlink:href="#ma31d767320" x="318.313317" y="384.48" style="stroke: #000000; stroke-width: 0.8"/>
      </g>
     </g>
     <g id="text_3">
      <!-- 2000 -->
      <g transform="translate(305.588317 399.078438)scale(0.1 -0.1)">
       <defs>
        <path id="DejaVuSans-32" d="M 1228 531 
L 3431 531 
L 3431 0 
L 469 0 
L 469 531 
Q 828 903 1448 1529 
Q 2069 2156 2228 2338 
Q 2531 2678 2651 2914 
Q 2772 3150 2772 3378 
Q 2772 3750 2511 3984 
Q 2250 4219 1831 4219 
Q 1534 4219 1204 4116 
Q 875 4013 500 3803 
L 500 4441 
Q 881 4594 1212 4672 
Q 1544 4750 1819 4750 
Q 2544 4750 2975 4387 
Q 3406 4025 3406 3419 
Q 3406 3131 3298 2873 
Q 3191 2616 2906 2266 
Q 2828 2175 2409 1742 
Q 1991 1309 1228 531 
z
" transform="scale(0.015625)"/>
       </defs>
       <use xlink:href="#DejaVuSans-32"/>
       <use xlink:href="#DejaVuSans-30" x="63.623047"/>
       <use xlink:href="#DejaVuSans-30" x="127.246094"/>
       <use xlink:href="#DejaVuSans-30" x="190.869141"/>
      </g>
     </g>
    </g>
    <g id="xtick_4">
     <g id="line2d_4">
      <g>
       <use xlink:href="#ma31d767320" x="419.788158" y="384.48" style="stroke: #000000; stroke-width: 0.8"/>
      </g>
     </g>
     <g id="text_4">
      <!-- 3000 -->
      <g transform="translate(407.063158 399.078438)scale(0.1 -0.1)">
       <defs>
        <path id="DejaVuSans-33" d="M 2597 2516 
Q 3050 2419 3304 2112 
Q 3559 1806 3559 1356 
Q 3559 666 3084 287 
Q 2609 -91 1734 -91 
Q 1441 -91 1130 -33 
Q 819 25 488 141 
L 488 750 
Q 750 597 1062 519 
Q 1375 441 1716 441 
Q 2309 441 2620 675 
Q 2931 909 2931 1356 
Q 2931 1769 2642 2001 
Q 2353 2234 1838 2234 
L 1294 2234 
L 1294 2753 
L 1863 2753 
Q 2328 2753 2575 2939 
Q 2822 3125 2822 3475 
Q 2822 3834 2567 4026 
Q 2313 4219 1838 4219 
Q 1578 4219 1281 4162 
Q 984 4106 628 3988 
L 628 4550 
Q 988 4650 1302 4700 
Q 1616 4750 1894 4750 
Q 2613 4750 3031 4423 
Q 3450 4097 3450 3541 
Q 3450 3153 3228 2886 
Q 3006 2619 2597 2516 
z
" transform="scale(0.015625)"/>
       </defs>
       <use xlink:href="#DejaVuSans-33"/>
       <use xlink:href="#DejaVuSans-30" x="63.623047"/>
       <use xlink:href="#DejaVuSans-30" x="127.246094"/>
       <use xlink:href="#DejaVuSans-30" x="190.869141"/>
      </g>
     </g>
    </g>
    <g id="xtick_5">
     <g id="line2d_5">
      <g>
       <use xlink:href="#ma31d767320" x="521.262998" y="384.48" style="stroke: #000000; stroke-width: 0.8"/>
      </g>
     </g>
     <g id="text_5">
      <!-- 4000 -->
      <g transform="translate(508.537998 399.078438)scale(0.1 -0.1)">
       <defs>
        <path id="DejaVuSans-34" d="M 2419 4116 
L 825 1625 
L 2419 1625 
L 2419 4116 
z
M 2253 4666 
L 3047 4666 
L 3047 1625 
L 3713 1625 
L 3713 1100 
L 3047 1100 
L 3047 0 
L 2419 0 
L 2419 1100 
L 313 1100 
L 313 1709 
L 2253 4666 
z
" transform="scale(0.015625)"/>
       </defs>
       <use xlink:href="#DejaVuSans-34"/>
       <use xlink:href="#DejaVuSans-30" x="63.623047"/>
       <use xlink:href="#DejaVuSans-30" x="127.246094"/>
       <use xlink:href="#DejaVuSans-30" x="190.869141"/>
      </g>
     </g>
    </g>
    <g id="xtick_6">
     <g id="line2d_6">
      <g>
       <use xlink:href="#ma31d767320" x="622.737838" y="384.48" style="stroke: #000000; stroke-width: 0.8"/>
      </g>
     </g>
     <g id="text_6">
      <!-- 5000 -->
      <g transform="translate(610.012838 399.078438)scale(0.1 -0.1)">
       <defs>
        <path id="DejaVuSans-35" d="M 691 4666 
L 3169 4666 
L 3169 4134 
L 1269 4134 
L 1269 2991 
Q 1406 3038 1543 3061 
Q 1681 3084 1819 3084 
Q 2600 3084 3056 2656 
Q 3513 2228 3513 1497 
Q 3513 744 3044 326 
Q 2575 -91 1722 -91 
Q 1428 -91 1123 -41 
Q 819 9 494 109 
L 494 744 
Q 775 591 1075 516 
Q 1375 441 1709 441 
Q 2250 441 2565 725 
Q 2881 1009 2881 1497 
Q 2881 1984 2565 2268 
Q 2250 2553 1709 2553 
Q 1456 2553 1204 2497 
Q 953 2441 691 2322 
L 691 4666 
z
" transform="scale(0.015625)"/>
       </defs>
       <use xlink:href="#DejaVuSans-35"/>
       <use xlink:href="#DejaVuSans-30" x="63.623047"/>
       <use xlink:href="#DejaVuSans-30" x="127.246094"/>
       <use xlink:href="#DejaVuSans-30" x="190.869141"/>
      </g>
     </g>
    </g>
    <g id="text_7">
     <!-- Time [step] -->
     <g transform="translate(340.460156 412.756563)scale(0.1 -0.1)">
      <defs>
       <path id="DejaVuSans-54" d="M -19 4666 
L 3928 4666 
L 3928 4134 
L 2272 4134 
L 2272 0 
L 1638 0 
L 1638 4134 
L -19 4134 
L -19 4666 
z
" transform="scale(0.015625)"/>
       <path id="DejaVuSans-69" d="M 603 3500 
L 1178 3500 
L 1178 0 
L 603 0 
L 603 3500 
z
M 603 4863 
L 1178 4863 
L 1178 4134 
L 603 4134 
L 603 4863 
z
" transform="scale(0.015625)"/>
       <path id="DejaVuSans-6d" d="M 3328 2828 
Q 3544 3216 3844 3400 
Q 4144 3584 4550 3584 
Q 5097 3584 5394 3201 
Q 5691 2819 5691 2113 
L 5691 0 
L 5113 0 
L 5113 2094 
Q 5113 2597 4934 2840 
Q 4756 3084 4391 3084 
Q 3944 3084 3684 2787 
Q 3425 2491 3425 1978 
L 3425 0 
L 2847 0 
L 2847 2094 
Q 2847 2600 2669 2842 
Q 2491 3084 2119 3084 
Q 1678 3084 1418 2786 
Q 1159 2488 1159 1978 
L 1159 0 
L 581 0 
L 581 3500 
L 1159 3500 
L 1159 2956 
Q 1356 3278 1631 3431 
Q 1906 3584 2284 3584 
Q 2666 3584 2933 3390 
Q 3200 3197 3328 2828 
z
" transform="scale(0.015625)"/>
       <path id="DejaVuSans-65" d="M 3597 1894 
L 3597 1613 
L 953 1613 
Q 991 1019 1311 708 
Q 1631 397 2203 397 
Q 2534 397 2845 478 
Q 3156 559 3463 722 
L 3463 178 
Q 3153 47 2828 -22 
Q 2503 -91 2169 -91 
Q 1331 -91 842 396 
Q 353 884 353 1716 
Q 353 2575 817 3079 
Q 1281 3584 2069 3584 
Q 2775 3584 3186 3129 
Q 3597 2675 3597 1894 
z
M 3022 2063 
Q 3016 2534 2758 2815 
Q 2500 3097 2075 3097 
Q 1594 3097 1305 2825 
Q 1016 2553 972 2059 
L 3022 2063 
z
" transform="scale(0.015625)"/>
       <path id="DejaVuSans-20" transform="scale(0.015625)"/>
       <path id="DejaVuSans-5b" d="M 550 4863 
L 1875 4863 
L 1875 4416 
L 1125 4416 
L 1125 -397 
L 1875 -397 
L 1875 -844 
L 550 -844 
L 550 4863 
z
" transform="scale(0.015625)"/>
       <path id="DejaVuSans-73" d="M 2834 3397 
L 2834 2853 
Q 2591 2978 2328 3040 
Q 2066 3103 1784 3103 
Q 1356 3103 1142 2972 
Q 928 2841 928 2578 
Q 928 2378 1081 2264 
Q 1234 2150 1697 2047 
L 1894 2003 
Q 2506 1872 2764 1633 
Q 3022 1394 3022 966 
Q 3022 478 2636 193 
Q 2250 -91 1575 -91 
Q 1294 -91 989 -36 
Q 684 19 347 128 
L 347 722 
Q 666 556 975 473 
Q 1284 391 1588 391 
Q 1994 391 2212 530 
Q 2431 669 2431 922 
Q 2431 1156 2273 1281 
Q 2116 1406 1581 1522 
L 1381 1569 
Q 847 1681 609 1914 
Q 372 2147 372 2553 
Q 372 3047 722 3315 
Q 1072 3584 1716 3584 
Q 2034 3584 2315 3537 
Q 2597 3491 2834 3397 
z
" transform="scale(0.015625)"/>
       <path id="DejaVuSans-74" d="M 1172 4494 
L 1172 3500 
L 2356 3500 
L 2356 3053 
L 1172 3053 
L 1172 1153 
Q 1172 725 1289 603 
Q 1406 481 1766 481 
L 2356 481 
L 2356 0 
L 1766 0 
Q 1100 0 847 248 
Q 594 497 594 1153 
L 594 3053 
L 172 3053 
L 172 3500 
L 594 3500 
L 594 4494 
L 1172 4494 
z
" transform="scale(0.015625)"/>
       <path id="DejaVuSans-70" d="M 1159 525 
L 1159 -1331 
L 581 -1331 
L 581 3500 
L 1159 3500 
L 1159 2969 
Q 1341 3281 1617 3432 
Q 1894 3584 2278 3584 
Q 2916 3584 3314 3078 
Q 3713 2572 3713 1747 
Q 3713 922 3314 415 
Q 2916 -91 2278 -91 
Q 1894 -91 1617 61 
Q 1341 213 1159 525 
z
M 3116 1747 
Q 3116 2381 2855 2742 
Q 2594 3103 2138 3103 
Q 1681 3103 1420 2742 
Q 1159 2381 1159 1747 
Q 1159 1113 1420 752 
Q 1681 391 2138 391 
Q 2594 391 2855 752 
Q 3116 1113 3116 1747 
z
" transform="scale(0.015625)"/>
       <path id="DejaVuSans-5d" d="M 1947 4863 
L 1947 -844 
L 622 -844 
L 622 -397 
L 1369 -397 
L 1369 4416 
L 622 4416 
L 622 4863 
L 1947 4863 
z
" transform="scale(0.015625)"/>
      </defs>
      <use xlink:href="#DejaVuSans-54"/>
      <use xlink:href="#DejaVuSans-69" x="57.958984"/>
      <use xlink:href="#DejaVuSans-6d" x="85.742188"/>
      <use xlink:href="#DejaVuSans-65" x="183.154297"/>
      <use xlink:href="#DejaVuSans-20" x="244.677734"/>
      <use xlink:href="#DejaVuSans-5b" x="276.464844"/>
      <use xlink:href="#DejaVuSans-73" x="315.478516"/>
      <use xlink:href="#DejaVuSans-74" x="367.578125"/>
      <use xlink:href="#DejaVuSans-65" x="406.787109"/>
      <use xlink:href="#DejaVuSans-70" x="468.310547"/>
      <use xlink:href="#DejaVuSans-5d" x="531.787109"/>
     </g>
    </g>
   </g>
   <g id="matplotlib.axis_2">
    <g id="ytick_1">
     <g id="line2d_7">
      <defs>
       <path id="m878b6063ee" d="M 0 0 
L -3.5 0 
" style="stroke: #000000; stroke-width: 0.8"/>
      </defs>
      <g>
       <use xlink:href="#m878b6063ee" x="90" y="369.83426" style="stroke: #000000; stroke-width: 0.8"/>
      </g>
     </g>
     <g id="text_8">
      <!-- 0.0 -->
      <g transform="translate(67.096875 373.633479)scale(0.1 -0.1)">
       <defs>
        <path id="DejaVuSans-2e" d="M 684 794 
L 1344 794 
L 1344 0 
L 684 0 
L 684 794 
z
" transform="scale(0.015625)"/>
       </defs>
       <use xlink:href="#DejaVuSans-30"/>
       <use xlink:href="#DejaVuSans-2e" x="63.623047"/>
       <use xlink:href="#DejaVuSans-30" x="95.410156"/>
      </g>
     </g>
    </g>
    <g id="ytick_2">
     <g id="line2d_8">
      <g>
       <use xlink:href="#m878b6063ee" x="90" y="310.551766" style="stroke: #000000; stroke-width: 0.8"/>
      </g>
     </g>
     <g id="text_9">
      <!-- 0.1 -->
      <g transform="translate(67.096875 314.350985)scale(0.1 -0.1)">
       <use xlink:href="#DejaVuSans-30"/>
       <use xlink:href="#DejaVuSans-2e" x="63.623047"/>
       <use xlink:href="#DejaVuSans-31" x="95.410156"/>
      </g>
     </g>
    </g>
    <g id="ytick_3">
     <g id="line2d_9">
      <g>
       <use xlink:href="#m878b6063ee" x="90" y="251.269273" style="stroke: #000000; stroke-width: 0.8"/>
      </g>
     </g>
     <g id="text_10">
      <!-- 0.2 -->
      <g transform="translate(67.096875 255.068491)scale(0.1 -0.1)">
       <use xlink:href="#DejaVuSans-30"/>
       <use xlink:href="#DejaVuSans-2e" x="63.623047"/>
       <use xlink:href="#DejaVuSans-32" x="95.410156"/>
      </g>
     </g>
    </g>
    <g id="ytick_4">
     <g id="line2d_10">
      <g>
       <use xlink:href="#m878b6063ee" x="90" y="191.986779" style="stroke: #000000; stroke-width: 0.8"/>
      </g>
     </g>
     <g id="text_11">
      <!-- 0.3 -->
      <g transform="translate(67.096875 195.785998)scale(0.1 -0.1)">
       <use xlink:href="#DejaVuSans-30"/>
       <use xlink:href="#DejaVuSans-2e" x="63.623047"/>
       <use xlink:href="#DejaVuSans-33" x="95.410156"/>
      </g>
     </g>
    </g>
    <g id="ytick_5">
     <g id="line2d_11">
      <g>
       <use xlink:href="#m878b6063ee" x="90" y="132.704285" style="stroke: #000000; stroke-width: 0.8"/>
      </g>
     </g>
     <g id="text_12">
      <!-- 0.4 -->
      <g transform="translate(67.096875 136.503504)scale(0.1 -0.1)">
       <use xlink:href="#DejaVuSans-30"/>
       <use xlink:href="#DejaVuSans-2e" x="63.623047"/>
       <use xlink:href="#DejaVuSans-34" x="95.410156"/>
      </g>
     </g>
    </g>
    <g id="ytick_6">
     <g id="line2d_12">
      <g>
       <use xlink:href="#m878b6063ee" x="90" y="73.421792" style="stroke: #000000; stroke-width: 0.8"/>
      </g>
     </g>
     <g id="text_13">
      <!-- 0.5 -->
      <g transform="translate(67.096875 77.221011)scale(0.1 -0.1)">
       <use xlink:href="#DejaVuSans-30"/>
       <use xlink:href="#DejaVuSans-2e" x="63.623047"/>
       <use xlink:href="#DejaVuSans-35" x="95.410156"/>
      </g>
     </g>
    </g>
    <g id="text_14">
     <!-- Density of living cells [%] -->
     <g transform="translate(61.017187 281.674844)rotate(-90)scale(0.1 -0.1)">
      <defs>
       <path id="DejaVuSans-44" d="M 1259 4147 
L 1259 519 
L 2022 519 
Q 2988 519 3436 956 
Q 3884 1394 3884 2338 
Q 3884 3275 3436 3711 
Q 2988 4147 2022 4147 
L 1259 4147 
z
M 628 4666 
L 1925 4666 
Q 3281 4666 3915 4102 
Q 4550 3538 4550 2338 
Q 4550 1131 3912 565 
Q 3275 0 1925 0 
L 628 0 
L 628 4666 
z
" transform="scale(0.015625)"/>
       <path id="DejaVuSans-6e" d="M 3513 2113 
L 3513 0 
L 2938 0 
L 2938 2094 
Q 2938 2591 2744 2837 
Q 2550 3084 2163 3084 
Q 1697 3084 1428 2787 
Q 1159 2491 1159 1978 
L 1159 0 
L 581 0 
L 581 3500 
L 1159 3500 
L 1159 2956 
Q 1366 3272 1645 3428 
Q 1925 3584 2291 3584 
Q 2894 3584 3203 3211 
Q 3513 2838 3513 2113 
z
" transform="scale(0.015625)"/>
       <path id="DejaVuSans-79" d="M 2059 -325 
Q 1816 -950 1584 -1140 
Q 1353 -1331 966 -1331 
L 506 -1331 
L 506 -850 
L 844 -850 
Q 1081 -850 1212 -737 
Q 1344 -625 1503 -206 
L 1606 56 
L 191 3500 
L 800 3500 
L 1894 763 
L 2988 3500 
L 3597 3500 
L 2059 -325 
z
" transform="scale(0.015625)"/>
       <path id="DejaVuSans-6f" d="M 1959 3097 
Q 1497 3097 1228 2736 
Q 959 2375 959 1747 
Q 959 1119 1226 758 
Q 1494 397 1959 397 
Q 2419 397 2687 759 
Q 2956 1122 2956 1747 
Q 2956 2369 2687 2733 
Q 2419 3097 1959 3097 
z
M 1959 3584 
Q 2709 3584 3137 3096 
Q 3566 2609 3566 1747 
Q 3566 888 3137 398 
Q 2709 -91 1959 -91 
Q 1206 -91 779 398 
Q 353 888 353 1747 
Q 353 2609 779 3096 
Q 1206 3584 1959 3584 
z
" transform="scale(0.015625)"/>
       <path id="DejaVuSans-66" d="M 2375 4863 
L 2375 4384 
L 1825 4384 
Q 1516 4384 1395 4259 
Q 1275 4134 1275 3809 
L 1275 3500 
L 2222 3500 
L 2222 3053 
L 1275 3053 
L 1275 0 
L 697 0 
L 697 3053 
L 147 3053 
L 147 3500 
L 697 3500 
L 697 3744 
Q 697 4328 969 4595 
Q 1241 4863 1831 4863 
L 2375 4863 
z
" transform="scale(0.015625)"/>
       <path id="DejaVuSans-6c" d="M 603 4863 
L 1178 4863 
L 1178 0 
L 603 0 
L 603 4863 
z
" transform="scale(0.015625)"/>
       <path id="DejaVuSans-76" d="M 191 3500 
L 800 3500 
L 1894 563 
L 2988 3500 
L 3597 3500 
L 2284 0 
L 1503 0 
L 191 3500 
z
" transform="scale(0.015625)"/>
       <path id="DejaVuSans-67" d="M 2906 1791 
Q 2906 2416 2648 2759 
Q 2391 3103 1925 3103 
Q 1463 3103 1205 2759 
Q 947 2416 947 1791 
Q 947 1169 1205 825 
Q 1463 481 1925 481 
Q 2391 481 2648 825 
Q 2906 1169 2906 1791 
z
M 3481 434 
Q 3481 -459 3084 -895 
Q 2688 -1331 1869 -1331 
Q 1566 -1331 1297 -1286 
Q 1028 -1241 775 -1147 
L 775 -588 
Q 1028 -725 1275 -790 
Q 1522 -856 1778 -856 
Q 2344 -856 2625 -561 
Q 2906 -266 2906 331 
L 2906 616 
Q 2728 306 2450 153 
Q 2172 0 1784 0 
Q 1141 0 747 490 
Q 353 981 353 1791 
Q 353 2603 747 3093 
Q 1141 3584 1784 3584 
Q 2172 3584 2450 3431 
Q 2728 3278 2906 2969 
L 2906 3500 
L 3481 3500 
L 3481 434 
z
" transform="scale(0.015625)"/>
       <path id="DejaVuSans-63" d="M 3122 3366 
L 3122 2828 
Q 2878 2963 2633 3030 
Q 2388 3097 2138 3097 
Q 1578 3097 1268 2742 
Q 959 2388 959 1747 
Q 959 1106 1268 751 
Q 1578 397 2138 397 
Q 2388 397 2633 464 
Q 2878 531 3122 666 
L 3122 134 
Q 2881 22 2623 -34 
Q 2366 -91 2075 -91 
Q 1284 -91 818 406 
Q 353 903 353 1747 
Q 353 2603 823 3093 
Q 1294 3584 2113 3584 
Q 2378 3584 2631 3529 
Q 2884 3475 3122 3366 
z
" transform="scale(0.015625)"/>
       <path id="DejaVuSans-25" d="M 4653 2053 
Q 4381 2053 4226 1822 
Q 4072 1591 4072 1178 
Q 4072 772 4226 539 
Q 4381 306 4653 306 
Q 4919 306 5073 539 
Q 5228 772 5228 1178 
Q 5228 1588 5073 1820 
Q 4919 2053 4653 2053 
z
M 4653 2450 
Q 5147 2450 5437 2106 
Q 5728 1763 5728 1178 
Q 5728 594 5436 251 
Q 5144 -91 4653 -91 
Q 4153 -91 3862 251 
Q 3572 594 3572 1178 
Q 3572 1766 3864 2108 
Q 4156 2450 4653 2450 
z
M 1428 4353 
Q 1159 4353 1004 4120 
Q 850 3888 850 3481 
Q 850 3069 1003 2837 
Q 1156 2606 1428 2606 
Q 1700 2606 1854 2837 
Q 2009 3069 2009 3481 
Q 2009 3884 1853 4118 
Q 1697 4353 1428 4353 
z
M 4250 4750 
L 4750 4750 
L 1831 -91 
L 1331 -91 
L 4250 4750 
z
M 1428 4750 
Q 1922 4750 2215 4408 
Q 2509 4066 2509 3481 
Q 2509 2891 2217 2550 
Q 1925 2209 1428 2209 
Q 931 2209 642 2551 
Q 353 2894 353 3481 
Q 353 4063 643 4406 
Q 934 4750 1428 4750 
z
" transform="scale(0.015625)"/>
      </defs>
      <use xlink:href="#DejaVuSans-44"/>
      <use xlink:href="#DejaVuSans-65" x="77.001953"/>
      <use xlink:href="#DejaVuSans-6e" x="138.525391"/>
      <use xlink:href="#DejaVuSans-73" x="201.904297"/>
      <use xlink:href="#DejaVuSans-69" x="254.003906"/>
      <use xlink:href="#DejaVuSans-74" x="281.787109"/>
      <use xlink:href="#DejaVuSans-79" x="320.996094"/>
      <use xlink:href="#DejaVuSans-20" x="380.175781"/>
      <use xlink:href="#DejaVuSans-6f" x="411.962891"/>
      <use xlink:href="#DejaVuSans-66" x="473.144531"/>
      <use xlink:href="#DejaVuSans-20" x="508.349609"/>
      <use xlink:href="#DejaVuSans-6c" x="540.136719"/>
      <use xlink:href="#DejaVuSans-69" x="567.919922"/>
      <use xlink:href="#DejaVuSans-76" x="595.703125"/>
      <use xlink:href="#DejaVuSans-69" x="654.882812"/>
      <use xlink:href="#DejaVuSans-6e" x="682.666016"/>
      <use xlink:href="#DejaVuSans-67" x="746.044922"/>
      <use xlink:href="#DejaVuSans-20" x="809.521484"/>
      <use xlink:href="#DejaVuSans-63" x="841.308594"/>
      <use xlink:href="#DejaVuSans-65" x="896.289062"/>
      <use xlink:href="#DejaVuSans-6c" x="957.8125"/>
      <use xlink:href="#DejaVuSans-6c" x="985.595703"/>
      <use xlink:href="#DejaVuSans-73" x="1013.378906"/>
      <use xlink:href="#DejaVuSans-20" x="1065.478516"/>
      <use xlink:href="#DejaVuSans-5b" x="1097.265625"/>
      <use xlink:href="#DejaVuSans-25" x="1136.279297"/>
      <use xlink:href="#DejaVuSans-5d" x="1231.298828"/>
     </g>
    </g>
   </g>
   <g id="line2d_13">
    <path d="M 115.363636 71.346905 
L 115.566586 67.730672 
L 115.668061 66.96 
L 115.871011 70.04269 
L 115.972485 67.730672 
L 116.175435 70.04269 
L 116.27691 69.864842 
L 116.47986 67.374977 
L 116.581334 68.442062 
L 116.682809 68.204932 
L 116.987234 71.524752 
L 117.190183 71.761882 
L 117.291658 69.56843 
L 117.393133 69.80556 
L 117.494608 68.85704 
L 117.596083 69.864842 
L 117.799033 68.38278 
L 117.900507 68.501345 
L 118.001982 67.078565 
L 118.509356 69.390582 
L 118.610831 69.746277 
L 118.712306 69.509147 
L 118.813781 72.354707 
L 118.915256 70.931927 
L 119.118205 73.540357 
L 119.21968 74.133182 
L 119.321155 76.089504 
L 119.42263 75.615244 
L 119.524105 76.504481 
L 119.727055 76.089504 
L 119.930004 76.623046 
L 120.132954 76.385916 
L 120.335904 78.164391 
L 120.437378 78.223674 
L 120.538853 78.105109 
L 120.640328 79.290759 
L 120.741803 78.697934 
L 120.843278 78.994346 
L 121.046227 80.654256 
L 121.147702 80.239279 
L 121.249177 80.120714 
L 121.350652 79.765019 
L 121.655076 82.847708 
L 121.756551 81.306363 
L 121.858026 81.662058 
L 121.959501 81.365646 
L 122.162451 83.203403 
L 122.3654 84.329771 
L 122.466875 83.559098 
L 122.56835 85.693268 
L 122.669825 84.981878 
L 122.7713 85.98968 
L 122.872775 85.930398 
L 122.974249 85.633985 
L 123.177199 87.41246 
L 123.278674 86.819635 
L 123.380149 86.878918 
L 123.583098 86.345375 
L 123.887523 85.75255 
L 124.090473 87.827438 
L 124.191947 87.827438 
L 124.293422 87.234613 
L 124.394897 89.013088 
L 124.597847 86.760353 
L 124.699322 86.345375 
L 124.902271 88.657393 
L 125.206696 89.961608 
L 125.308171 91.799365 
L 125.409646 90.613715 
L 125.612595 92.036495 
L 126.018495 92.747885 
L 126.119969 92.62932 
L 126.322919 92.15506 
L 126.424394 93.281427 
L 126.525869 92.86645 
L 126.728818 94.467077 
L 126.931768 94.585642 
L 127.033243 95.178467 
L 127.134718 96.601247 
L 127.236193 96.304834 
L 127.337668 96.541964 
L 127.439142 97.609049 
L 127.540617 97.549767 
L 127.743567 98.379722 
L 127.845042 98.024027 
L 128.047991 101.225281 
L 128.149466 101.343846 
L 128.250941 100.632456 
L 128.453891 102.173801 
L 128.555366 102.173801 
L 128.65684 102.292366 
L 128.758315 101.758824 
L 128.961265 103.892994 
L 129.06274 103.892994 
L 129.164215 104.307971 
L 129.468639 106.797836 
L 129.570114 107.390661 
L 129.773064 106.145728 
L 129.976013 107.924203 
L 130.178963 108.754158 
L 130.381913 109.228418 
L 130.483388 109.465548 
L 130.584862 109.406265 
L 130.787812 110.414068 
L 130.889287 111.244023 
L 131.092237 110.414068 
L 131.193711 111.836848 
L 131.396661 110.651198 
L 131.498136 111.599718 
L 131.599611 111.481153 
L 131.802561 112.251825 
L 132.00551 111.244023 
L 132.106985 111.718283 
L 132.20846 112.84465 
L 132.309935 112.488955 
L 132.41141 112.726085 
L 132.614359 114.385995 
L 132.817309 115.630927 
L 132.918784 115.097385 
L 133.020259 115.986622 
L 133.223208 115.69021 
L 133.324683 116.283035 
L 133.426158 115.69021 
L 133.527633 116.283035 
L 133.730582 118.417204 
L 133.832057 118.417204 
L 134.035007 117.82438 
L 134.237957 118.298639 
L 134.440906 116.757295 
L 134.542381 116.994425 
L 134.643856 118.417204 
L 134.745331 117.82438 
L 134.846806 118.535769 
L 134.948281 117.468685 
L 135.15123 119.306442 
L 135.252705 118.713617 
L 135.455655 122.270567 
L 135.55713 121.322047 
L 135.760079 122.804109 
L 135.861554 122.744827 
L 136.064504 122.389132 
L 136.774828 126.716754 
L 136.876303 125.353256 
L 136.977777 125.471821 
L 137.180727 127.724556 
L 137.282202 128.198816 
L 137.383677 127.961686 
L 137.485152 129.621596 
L 137.586626 129.384466 
L 137.789576 130.807246 
L 137.891051 130.807246 
L 138.094001 131.162941 
L 138.29695 132.34859 
L 138.398425 132.467155 
L 138.601375 133.53424 
L 138.70285 135.016303 
L 138.905799 133.237828 
L 139.007274 133.474958 
L 139.108749 133.000698 
L 139.311699 135.016303 
L 139.514648 135.253433 
L 139.616123 135.371998 
L 139.717598 135.016303 
L 139.819073 135.964823 
L 139.920548 135.727693 
L 140.022023 134.779173 
L 140.123497 136.676213 
L 140.224972 135.371998 
L 140.326447 136.320518 
L 140.427922 135.846258 
L 140.630872 136.913342 
L 140.833821 137.980427 
L 140.935296 137.980427 
L 141.036771 137.861862 
L 141.341196 139.284642 
L 141.44267 138.691817 
L 142.051519 142.189484 
L 142.152994 141.952354 
L 142.355944 142.782309 
L 142.457419 142.663744 
L 142.761843 145.212892 
L 142.964793 144.738632 
L 143.269217 147.347061 
L 143.370692 147.524909 
L 143.472167 148.354864 
L 143.675117 147.524909 
L 143.776592 147.524909 
L 143.878067 147.406344 
L 144.283966 150.014774 
L 144.385441 149.896209 
L 144.58839 150.726163 
L 144.79134 152.741768 
L 144.892815 152.978898 
L 144.99429 152.860333 
L 145.197239 154.875938 
L 145.298714 155.40948 
L 145.603139 154.460961 
L 145.704614 154.994503 
L 145.806088 156.772978 
L 146.009038 156.417283 
L 146.110513 156.654413 
L 146.414938 159.084995 
L 146.516412 158.195758 
L 146.617887 158.907148 
L 146.719362 158.551453 
L 146.820837 159.144278 
L 146.922312 158.788583 
L 147.125261 159.144278 
L 148.038535 162.226967 
L 148.14001 162.108402 
L 148.241485 161.278447 
L 148.34296 162.464097 
L 148.444434 162.345532 
L 149.053283 167.088132 
L 149.154758 166.851002 
L 149.459183 169.637279 
L 149.560658 167.918087 
L 149.763607 169.815126 
L 149.865082 169.577996 
L 149.966557 170.407951 
L 150.068032 170.170821 
L 150.372456 171.830731 
L 150.473931 171.771449 
L 150.676881 172.838534 
L 150.778356 172.838534 
L 150.879831 173.075664 
L 150.981305 172.067861 
L 151.184255 173.194229 
L 151.387205 174.854138 
L 151.590154 174.617008 
L 151.894579 175.802658 
L 151.996054 175.446963 
L 152.300478 176.395483 
L 152.503428 177.758981 
L 152.706378 177.877546 
L 152.807852 177.936828 
L 153.112277 179.596738 
L 153.213752 179.65602 
L 153.416702 181.55306 
L 153.518176 181.434495 
L 153.619651 180.960235 
L 153.822601 182.73871 
L 153.924076 184.042925 
L 154.025551 183.568665 
L 154.2285 185.11001 
L 154.329975 183.92436 
L 154.532925 184.280055 
L 154.6344 183.68723 
L 154.837349 184.042925 
L 155.040299 185.228575 
L 155.243249 187.00705 
L 155.344723 185.702835 
L 155.547673 187.303462 
L 155.750623 186.829202 
L 156.460947 188.963372 
L 156.562422 188.963372 
L 156.866846 190.504717 
L 156.968321 190.623282 
L 157.272745 192.105344 
L 157.37422 192.046062 
L 157.475695 192.757451 
L 157.57717 192.520322 
L 157.881595 194.002384 
L 157.983069 194.120949 
L 158.084544 194.713774 
L 158.186019 194.476644 
L 158.388969 195.484446 
L 158.490444 196.373684 
L 158.591918 195.721576 
L 158.693393 196.314401 
L 158.896343 195.840141 
L 158.997818 196.077271 
L 159.099293 195.721576 
L 159.200767 195.958706 
L 159.302242 197.381486 
L 159.403717 196.907226 
L 159.606667 197.677898 
L 159.708142 197.796463 
L 159.809616 198.982113 
L 159.911091 198.389288 
L 160.012566 198.982113 
L 160.114041 198.744983 
L 160.215516 199.812068 
L 160.316991 199.693503 
L 160.418466 199.752786 
L 160.621415 200.760588 
L 160.72289 200.819871 
L 160.92584 202.124085 
L 161.128789 202.95404 
L 161.534689 203.66543 
L 161.636164 204.61395 
L 161.737638 204.13969 
L 161.940588 204.85108 
L 162.042063 203.90256 
L 162.245013 204.910363 
L 162.447962 205.918165 
L 162.549437 205.32534 
L 162.752387 206.98525 
L 162.853862 207.22238 
L 163.158286 208.40803 
L 163.259761 208.052335 
L 163.361236 208.526595 
L 163.462711 208.40803 
L 163.564186 208.88229 
L 163.66566 208.526595 
L 163.767135 209.415832 
L 163.86861 209.297267 
L 163.970085 208.823007 
L 164.07156 208.941572 
L 164.274509 209.890092 
L 164.375984 209.652962 
L 164.477459 210.245787 
L 164.578934 210.127222 
L 164.883358 210.838612 
L 164.984833 210.245787 
L 165.187783 210.957177 
L 165.390733 212.024262 
L 165.492208 211.905697 
L 165.695157 213.209912 
L 165.796632 213.209912 
L 165.898107 213.802737 
L 165.999582 213.684172 
L 166.608431 215.106952 
L 166.709906 214.395562 
L 166.912855 215.818342 
L 167.21728 216.707579 
L 167.42023 217.063274 
L 167.521704 216.944709 
L 167.724654 218.011794 
L 167.826129 218.486054 
L 167.927604 217.893229 
L 168.130553 218.960314 
L 168.232028 218.604619 
L 168.434978 219.316009 
L 168.536453 219.434574 
L 168.739402 219.078879 
L 168.942352 220.383094 
L 169.043827 219.849551 
L 169.145302 220.442376 
L 169.246777 220.205246 
L 169.449726 220.442376 
L 169.551201 219.730986 
L 169.652676 220.798071 
L 169.754151 220.442376 
L 170.058575 222.457981 
L 170.16005 221.865156 
L 170.261525 222.932241 
L 170.363 222.695111 
L 170.464475 223.999326 
L 170.768899 222.220851 
L 170.870374 222.932241 
L 170.971849 222.457981 
L 171.073324 224.236456 
L 171.276273 223.762196 
L 171.479223 224.236456 
L 171.682173 223.999326 
L 171.783648 225.244258 
L 171.986597 224.295738 
L 172.088072 225.007128 
L 172.189547 224.769998 
L 172.291022 224.888563 
L 172.493972 226.074213 
L 172.595446 225.244258 
L 172.798396 227.91197 
L 172.899871 227.91197 
L 173.001346 228.267665 
L 173.102821 228.1491 
L 173.204295 228.504795 
L 173.30577 228.208383 
L 173.407245 228.326948 
L 173.50872 228.919773 
L 173.610195 228.564078 
L 173.813144 229.631163 
L 173.914619 229.512598 
L 174.117569 230.698247 
L 174.219044 230.342552 
L 174.320519 230.579682 
L 174.827893 233.188112 
L 174.929368 233.069547 
L 175.030843 233.662372 
L 175.233792 233.425242 
L 175.335267 234.018067 
L 175.436742 233.425242 
L 175.741166 235.085152 
L 175.944116 235.677977 
L 176.147066 236.745062 
L 176.248541 236.626497 
L 176.350015 236.685779 
L 176.45149 237.160039 
L 176.552965 238.227124 
L 176.65444 237.871429 
L 177.060339 238.464254 
L 177.364764 239.412774 
L 177.466239 240.361294 
L 177.567714 239.649904 
L 177.669188 240.598424 
L 177.770663 240.479859 
L 178.278037 242.199051 
L 178.379512 242.080486 
L 178.480987 242.554746 
L 178.582462 242.199051 
L 178.886886 243.503266 
L 179.089836 243.858961 
L 179.191311 245.163176 
L 179.292786 244.688916 
L 179.394261 245.163176 
L 179.495736 245.044611 
L 179.59721 245.281741 
L 179.698685 245.044611 
L 179.80016 245.993131 
L 179.901635 245.637436 
L 180.206059 247.712323 
L 180.307534 247.297346 
L 180.510484 248.720125 
L 180.611959 248.008736 
L 180.713434 248.127301 
L 180.814908 248.779408 
L 180.916383 248.542278 
L 181.017858 249.016538 
L 181.220808 250.676448 
L 181.322283 249.609363 
L 181.423757 250.439318 
L 181.525232 250.320753 
L 181.626707 251.150708 
L 181.829657 250.676448 
L 182.134081 251.980663 
L 182.235556 251.862098 
L 182.337031 252.929183 
L 182.438506 252.692053 
L 182.641456 253.284877 
L 182.74293 252.929183 
L 182.844405 253.640572 
L 182.94588 252.988465 
L 183.047355 253.58129 
L 183.14883 253.34416 
L 183.351779 254.05555 
L 183.453254 255.122635 
L 183.554729 254.885505 
L 183.656204 255.122635 
L 183.757679 256.42685 
L 183.859154 256.308285 
L 183.960628 255.95259 
L 184.062103 256.308285 
L 184.163578 255.47833 
L 184.366528 256.18972 
L 184.468003 256.071155 
L 184.975377 259.035279 
L 185.279801 260.161647 
L 185.381276 259.805952 
L 185.88865 260.991602 
L 185.990125 261.584427 
L 186.0916 261.347297 
L 186.193075 262.177252 
L 186.29455 262.058687 
L 186.396025 262.532946 
L 186.700449 261.940122 
L 186.903399 262.770076 
L 187.004874 262.770076 
L 187.207823 263.244336 
L 187.309298 263.125771 
L 187.410773 263.481466 
L 187.613723 263.422184 
L 188.019622 264.963529 
L 188.121097 264.726399 
L 188.222572 264.844964 
L 188.324047 265.793484 
L 188.425521 265.556354 
L 188.526996 265.912049 
L 188.628471 265.793484 
L 188.729946 266.386309 
L 188.831421 266.149179 
L 188.932896 266.504874 
L 189.034371 266.030614 
L 189.23732 267.690523 
L 189.338795 267.453393 
L 189.744694 268.994738 
L 189.947644 268.164783 
L 190.150594 269.350433 
L 190.252069 269.113303 
L 190.353543 269.824693 
L 190.455018 269.587563 
L 190.860918 271.603168 
L 190.962392 271.66245 
L 191.063867 271.543886 
L 191.266817 272.966665 
L 191.368292 272.492405 
L 191.571242 273.79662 
L 191.672716 273.08523 
L 191.875666 274.50801 
L 191.977141 274.863705 
L 192.078616 274.626575 
L 192.281565 275.45653 
L 192.38304 275.575095 
L 192.58599 277.531417 
L 192.687465 277.294287 
L 192.78894 277.294287 
L 192.890414 277.057157 
L 192.991889 277.175722 
L 193.093364 276.820027 
L 193.397789 277.294287 
L 193.499263 277.35357 
L 193.600738 277.5907 
L 193.702213 277.235005 
L 193.803688 278.06496 
L 193.905163 277.5907 
L 194.006638 277.709265 
L 194.108113 277.472135 
L 194.209587 277.946395 
L 194.311062 277.472135 
L 194.412537 277.5907 
L 194.514012 277.472135 
L 194.615487 277.5907 
L 194.818436 278.420655 
L 194.919911 278.420655 
L 195.021386 278.77635 
L 195.122861 278.657785 
L 195.224336 278.77635 
L 195.325811 277.946395 
L 195.52876 278.30209 
L 195.630235 277.946395 
L 195.833185 278.53922 
L 195.93466 277.946395 
L 196.036134 278.06496 
L 196.442034 279.25061 
L 196.543509 279.191327 
L 196.644984 278.954197 
L 196.746458 279.547022 
L 196.949408 279.428457 
L 198.065631 281.799757 
L 198.167106 282.748277 
L 198.268581 282.155452 
L 198.471531 282.866842 
L 198.573006 282.274017 
L 198.87743 283.815362 
L 198.978905 284.052492 
L 199.08038 283.756079 
L 199.181855 284.230339 
L 199.283329 284.111774 
L 199.587754 285.653119 
L 199.689229 285.356707 
L 199.790704 285.830966 
L 199.993653 286.898051 
L 200.196603 286.898051 
L 200.298078 287.728006 
L 200.399553 287.253746 
L 200.602502 287.965136 
L 200.805452 287.490876 
L 200.906927 287.846571 
L 201.008402 287.728006 
L 201.109877 288.439396 
L 201.211351 288.202266 
L 201.617251 289.032221 
L 201.718726 288.676526 
L 201.8202 289.269351 
L 201.921675 289.032221 
L 202.02315 289.506481 
L 202.124625 289.269351 
L 202.2261 289.387916 
L 202.530524 290.692131 
L 202.631999 289.980741 
L 202.834949 290.810696 
L 202.936424 290.692131 
L 203.037898 290.692131 
L 203.342323 291.877781 
L 203.443798 291.996346 
L 203.545273 292.707736 
L 203.646748 292.589171 
L 203.849697 293.300561 
L 204.154122 292.470606 
L 204.357071 293.181996 
L 204.458546 292.944866 
L 204.560021 293.300561 
L 204.661496 293.063431 
L 204.864446 293.419126 
L 205.067395 294.011951 
L 205.270345 294.841906 
L 205.473295 294.486211 
L 205.574769 294.367646 
L 205.676244 294.486211 
L 205.980669 295.256883 
L 206.082144 295.138318 
L 206.183619 295.256883 
L 206.285093 294.782623 
L 206.488043 295.079035 
L 206.589518 294.841906 
L 206.690993 295.1976 
L 206.792468 294.604776 
L 206.995417 294.723341 
L 207.096892 295.553295 
L 207.299842 295.079035 
L 207.401317 295.079035 
L 207.502791 294.96047 
L 207.807216 295.43473 
L 208.010166 296.264685 
L 208.111641 296.027555 
L 208.213115 296.14612 
L 208.31459 296.027555 
L 208.416065 296.14612 
L 208.72049 297.33177 
L 208.821964 297.09464 
L 208.923439 297.213205 
L 209.024914 297.80603 
L 209.126389 297.450335 
L 209.329339 298.161725 
L 209.532288 298.398855 
L 209.633763 298.28029 
L 209.836713 298.75455 
L 209.938188 298.635985 
L 210.039662 298.75455 
L 210.141137 298.635985 
L 210.749986 299.821635 
L 210.851461 299.584505 
L 210.952936 300.41446 
L 211.054411 299.9402 
L 211.155886 300.295895 
L 211.257361 299.821635 
L 211.46031 300.17733 
L 211.561785 300.17733 
L 211.66326 300.88872 
L 211.967684 299.9402 
L 212.069159 299.584505 
L 212.272109 300.41446 
L 212.373584 300.533025 
L 212.475059 301.007285 
L 212.576533 300.88872 
L 212.678008 301.007285 
L 212.779483 301.36298 
L 212.880958 301.244415 
L 213.185383 302.07437 
L 213.286857 301.955805 
L 213.388332 302.07437 
L 213.489807 302.904325 
L 213.591282 302.78576 
L 213.692757 302.904325 
L 213.794232 303.319302 
L 213.895706 303.082172 
L 214.098656 304.030692 
L 214.200131 303.793562 
L 214.301606 304.030692 
L 214.403081 304.623517 
L 214.504555 304.267822 
L 215.113404 306.164862 
L 215.214879 306.164862 
L 215.316354 306.698404 
L 215.417829 306.639122 
L 215.519304 307.113382 
L 215.620779 306.994817 
L 215.925203 308.061902 
L 216.026678 307.943337 
L 216.128153 308.536162 
L 216.229628 308.299032 
L 216.432577 308.891856 
L 216.534052 308.773292 
L 216.635527 308.417597 
L 216.737002 309.128986 
L 217.041426 308.417597 
L 217.548801 310.196071 
L 217.650276 310.077506 
L 217.75175 310.314636 
L 217.9547 310.077506 
L 218.259125 310.433201 
L 218.360599 310.196071 
L 218.462074 310.788896 
L 218.563549 310.314636 
L 218.766499 311.144591 
L 218.867974 310.907461 
L 219.070923 311.381721 
L 219.172398 310.788896 
L 219.273873 311.026026 
L 219.375348 311.618851 
L 219.476823 311.263156 
L 219.578297 311.500286 
L 219.679772 311.381721 
L 220.187147 313.930868 
L 220.288621 313.456609 
L 220.390096 313.693738 
L 220.491571 313.338044 
L 220.694521 313.812303 
L 220.998945 314.286563 
L 221.10042 314.167998 
L 221.30337 313.100914 
L 221.404845 313.219479 
L 221.506319 313.100914 
L 221.912219 314.286563 
L 222.013694 314.286563 
L 222.115168 313.575173 
L 222.216643 313.693738 
L 222.419593 314.405128 
L 222.521068 314.405128 
L 222.724018 314.523693 
L 222.825492 314.345846 
L 223.028442 314.701541 
L 223.129917 315.412931 
L 223.231392 314.820106 
L 223.332867 315.294366 
L 223.434341 315.175801 
L 223.738766 315.768626 
L 223.840241 315.650061 
L 223.941716 316.361451 
L 224.144665 315.887191 
L 224.24614 316.717146 
L 224.44909 316.124321 
L 224.550565 316.242886 
L 224.652039 316.717146 
L 224.753514 316.480016 
L 225.260889 317.547101 
L 225.463838 317.191406 
L 225.565313 317.428536 
L 225.666788 318.49562 
L 225.768263 318.021361 
L 225.971212 318.614185 
L 226.174162 318.614185 
L 226.478587 318.25849 
L 226.783011 319.20701 
L 226.884486 318.96988 
L 226.985961 319.088445 
L 227.188911 319.44414 
L 227.493335 319.9184 
L 227.59481 320.39266 
L 227.696285 320.15553 
L 228.203659 320.748355 
L 228.508083 321.81544 
L 228.711033 321.10405 
L 228.812508 321.10405 
L 228.913983 321.34118 
L 229.116932 320.62979 
L 229.319882 320.985485 
L 229.421357 320.748355 
L 229.725782 322.230418 
L 229.827256 321.874723 
L 230.233156 322.467548 
L 230.334631 322.348983 
L 230.436105 322.230418 
L 230.53758 322.704678 
L 230.74053 322.111853 
L 230.842005 323.297502 
L 230.94348 322.704678 
L 231.044954 323.593915 
L 231.247904 323.356785 
L 231.552329 324.305305 
L 231.653803 323.94961 
L 231.755278 324.305305 
L 231.856753 324.18674 
L 232.161178 324.661 
L 232.262653 324.305305 
L 232.465602 324.661 
L 232.668552 324.305305 
L 232.770027 324.542435 
L 232.972976 325.13526 
L 233.074451 324.89813 
L 233.175926 325.13526 
L 233.277401 325.016695 
L 233.378876 325.13526 
L 233.581825 325.490955 
L 233.6833 325.253825 
L 233.88625 325.728085 
L 233.987725 325.37239 
L 234.190674 326.08378 
L 234.292149 326.08378 
L 234.393624 325.728085 
L 234.596574 325.965215 
L 234.698049 325.37239 
L 234.799524 325.490955 
L 234.900998 325.965215 
L 235.002473 325.84665 
L 235.103948 326.439475 
L 235.205423 326.32091 
L 235.306898 326.439475 
L 235.408373 326.202345 
L 235.509847 326.55804 
L 235.611322 326.202345 
L 235.712797 326.32091 
L 235.814272 325.84665 
L 236.118696 326.32091 
L 236.220171 326.676605 
L 236.321646 325.965215 
L 236.423121 326.439475 
L 236.524596 325.84665 
L 236.626071 326.32091 
L 236.82902 325.965215 
L 237.03197 326.32091 
L 237.133445 326.202345 
L 237.23492 326.735887 
L 237.336395 326.617322 
L 237.843769 328.158667 
L 238.046718 328.277232 
L 238.249668 328.277232 
L 238.655567 329.344317 
L 238.858517 328.395797 
L 239.061467 328.988622 
L 239.162942 329.225752 
L 239.264417 328.870057 
L 239.365891 328.988622 
L 239.467366 328.751492 
L 239.670316 329.166469 
L 239.771791 328.929339 
L 239.97474 329.522164 
L 240.076215 329.047904 
L 240.17769 329.285034 
L 240.38064 328.929339 
L 240.888014 330.470684 
L 241.090964 330.470684 
L 241.192438 329.996424 
L 241.395388 330.707814 
L 241.598338 331.063509 
L 241.699813 331.300639 
L 241.902762 330.944944 
L 242.004237 330.944944 
L 242.308662 331.774899 
L 242.410137 331.537769 
L 242.613086 332.249159 
L 242.816036 332.604854 
L 243.12046 333.079114 
L 243.221935 333.197679 
L 243.32341 332.723419 
L 243.52636 333.079114 
L 243.627835 332.960549 
L 243.830784 333.671939 
L 243.932259 333.553374 
L 244.135209 333.671939 
L 244.338159 333.553374 
L 244.439633 334.027634 
L 244.642583 333.790504 
L 244.744058 333.790504 
L 244.845533 333.909069 
L 244.947008 333.671939 
L 245.048482 334.027634 
L 245.149957 333.909069 
L 245.352907 334.383329 
L 245.555857 334.501894 
L 245.657331 334.501894 
L 245.860281 334.976154 
L 245.961756 334.739024 
L 246.063231 335.687544 
L 246.164706 335.450414 
L 246.266181 335.568979 
L 246.67208 336.873193 
L 246.87503 336.636064 
L 247.077979 336.873193 
L 247.179454 336.398934 
L 247.382404 336.636064 
L 247.483879 337.347453 
L 247.585353 336.991758 
L 247.788303 337.703148 
L 247.889778 338.058843 
L 247.991253 337.466018 
L 248.092728 337.584583 
L 248.295677 337.940278 
L 248.397152 337.940278 
L 248.600102 338.295973 
L 248.701577 338.177408 
L 248.803052 338.177408 
L 248.904526 338.295973 
L 249.107476 337.940278 
L 249.208951 337.940278 
L 249.411901 338.651668 
L 249.513375 338.533103 
L 249.716325 339.125928 
L 249.8178 339.244493 
L 250.02075 340.074448 
L 250.223699 340.489426 
L 250.325174 340.607991 
L 250.528124 340.370861 
L 250.629599 340.370861 
L 250.934023 340.607991 
L 251.136973 340.370861 
L 251.542872 340.963686 
L 251.644347 340.726556 
L 251.847297 341.200816 
L 251.948772 341.082251 
L 252.151721 342.03077 
L 252.253196 342.386465 
L 252.354671 342.03077 
L 252.456146 342.2679 
L 252.659095 341.437946 
L 252.76057 342.149335 
L 252.862045 342.03077 
L 253.064995 342.860725 
L 253.16647 342.386465 
L 253.267944 343.21642 
L 253.369419 342.860725 
L 253.470894 343.097855 
L 253.572369 342.97929 
L 253.775319 343.45355 
L 253.876794 343.45355 
L 254.079743 342.97929 
L 254.282693 343.45355 
L 254.384168 343.334985 
L 254.587117 343.572115 
L 254.688592 343.45355 
L 254.891542 343.987093 
L 254.993017 343.868528 
L 255.297441 344.935613 
L 255.398916 344.461353 
L 255.703341 344.935613 
L 255.804816 344.935613 
L 255.90629 344.698483 
L 256.007765 345.172743 
L 256.10924 344.935613 
L 256.31219 346.002698 
L 256.515139 345.528438 
L 256.616614 345.884133 
L 256.718089 345.647003 
L 256.819564 346.121262 
L 256.921039 345.765568 
L 257.022514 346.121262 
L 257.225463 345.647003 
L 257.326938 346.121262 
L 257.428413 346.002698 
L 257.631363 346.476957 
L 257.732837 345.765568 
L 258.037262 346.595522 
L 258.138737 346.476957 
L 258.443161 347.425477 
L 258.646111 347.069782 
L 258.747586 347.188347 
L 258.950536 346.832652 
L 259.05201 346.951217 
L 259.153485 346.595522 
L 259.559385 347.069782 
L 259.762334 346.714087 
L 259.863809 347.188347 
L 259.965284 346.951217 
L 260.066759 347.662607 
L 260.269708 347.188347 
L 260.371183 347.188347 
L 260.472658 347.069782 
L 260.574133 347.306912 
L 260.675608 347.188347 
L 261.081507 348.373997 
L 261.182982 348.255432 
L 261.284457 348.255432 
L 261.487407 348.611127 
L 261.588881 348.373997 
L 261.791831 348.90754 
L 261.994781 349.14467 
L 262.096256 348.90754 
L 262.19773 349.3818 
L 262.299205 349.263235 
L 262.40068 349.737495 
L 262.502155 349.500365 
L 263.212479 350.33032 
L 263.415429 350.09319 
L 263.516903 350.33032 
L 263.618378 349.737495 
L 264.227227 350.923144 
L 265.140501 352.108794 
L 265.241976 351.753099 
L 265.343451 351.871664 
L 265.5464 352.345924 
L 265.74935 352.345924 
L 265.9523 352.227359 
L 266.358199 352.938749 
L 266.459674 352.938749 
L 266.561149 353.057314 
L 266.662623 352.938749 
L 266.967048 353.413009 
L 267.068523 353.235162 
L 267.271472 353.472292 
L 267.372947 353.353727 
L 267.677372 353.709422 
L 267.981796 353.235162 
L 268.083271 353.709422 
L 268.184746 353.472292 
L 268.793595 354.657942 
L 268.89507 354.598659 
L 269.09802 354.835789 
L 269.199494 355.310049 
L 269.300969 355.191484 
L 269.402444 355.547179 
L 269.605394 354.954354 
L 269.706869 354.954354 
L 269.808343 355.547179 
L 270.011293 355.310049 
L 270.417193 356.377134 
L 270.518667 356.258569 
L 270.721617 356.732829 
L 270.823092 357.088524 
L 270.924567 356.792111 
L 271.228991 357.503501 
L 271.330466 357.799914 
L 271.431941 357.325654 
L 271.533416 357.444219 
L 271.634891 357.799914 
L 271.736365 357.562784 
L 271.939315 358.155609 
L 272.24374 358.511304 
L 272.446689 358.392739 
L 272.751114 359.222694 
L 272.954064 359.341259 
L 273.157013 359.104129 
L 273.562913 359.637671 
L 273.664387 359.519106 
L 273.867337 360.111931 
L 273.968812 360.230496 
L 274.070287 360.586191 
L 274.171762 360.230496 
L 274.273236 360.467626 
L 274.374711 360.230496 
L 274.679136 361.001168 
L 274.780611 360.764038 
L 275.38946 361.949688 
L 275.490935 361.712558 
L 276.099784 363.016773 
L 276.201258 362.898208 
L 276.302733 363.194621 
L 276.404208 362.957491 
L 276.810107 364.083858 
L 276.911582 364.320988 
L 277.013057 364.202423 
L 277.216007 364.439553 
L 277.317482 364.320988 
L 277.418957 364.439553 
L 277.723381 365.210225 
L 277.824856 365.210225 
L 277.926331 364.973095 
L 278.027806 365.210225 
L 278.12928 365.09166 
L 278.33223 365.625203 
L 278.433705 365.506638 
L 278.636655 366.099463 
L 278.839604 365.743768 
L 279.144029 366.870135 
L 279.346978 366.870135 
L 279.448453 366.9887 
L 279.651403 367.522243 
L 279.854353 367.640808 
L 279.955828 367.640808 
L 280.057302 367.522243 
L 280.260252 367.877938 
L 280.361727 367.759373 
L 280.767626 368.470763 
L 280.869101 368.530045 
L 281.072051 368.41148 
L 281.173526 368.64861 
L 281.376475 368.530045 
L 282.188274 369.36 
L 622.636364 369.36 
L 622.636364 369.36 
" clip-path="url(#p1beaa4970b)" style="fill: none; stroke: #0000ff; stroke-width: 2; stroke-linecap: square"/>
   </g>
   <g id="patch_3">
    <path d="M 90 384.48 
L 90 51.84 
" style="fill: none; stroke: #000000; stroke-width: 0.8; stroke-linejoin: miter; stroke-linecap: square"/>
   </g>
   <g id="patch_4">
    <path d="M 648 384.48 
L 648 51.84 
" style="fill: none; stroke: #000000; stroke-width: 0.8; stroke-linejoin: miter; stroke-linecap: square"/>
   </g>
   <g id="patch_5">
    <path d="M 90 384.48 
L 648 384.48 
" style="fill: none; stroke: #000000; stroke-width: 0.8; stroke-linejoin: miter; stroke-linecap: square"/>
   </g>
   <g id="patch_6">
    <path d="M 90 51.84 
L 648 51.84 
" style="fill: none; stroke: #000000; stroke-width: 0.8; stroke-linejoin: miter; stroke-linecap: square"/>
   </g>
   <g id="text_15">
    <!-- Spots_Density -->
    <g transform="translate(326.4225 45.84)scale(0.12 -0.12)">
     <defs>
      <path id="DejaVuSans-53" d="M 3425 4513 
L 3425 3897 
Q 3066 4069 2747 4153 
Q 2428 4238 2131 4238 
Q 1616 4238 1336 4038 
Q 1056 3838 1056 3469 
Q 1056 3159 1242 3001 
Q 1428 2844 1947 2747 
L 2328 2669 
Q 3034 2534 3370 2195 
Q 3706 1856 3706 1288 
Q 3706 609 3251 259 
Q 2797 -91 1919 -91 
Q 1588 -91 1214 -16 
Q 841 59 441 206 
L 441 856 
Q 825 641 1194 531 
Q 1563 422 1919 422 
Q 2459 422 2753 634 
Q 3047 847 3047 1241 
Q 3047 1584 2836 1778 
Q 2625 1972 2144 2069 
L 1759 2144 
Q 1053 2284 737 2584 
Q 422 2884 422 3419 
Q 422 4038 858 4394 
Q 1294 4750 2059 4750 
Q 2388 4750 2728 4690 
Q 3069 4631 3425 4513 
z
" transform="scale(0.015625)"/>
      <path id="DejaVuSans-5f" d="M 3263 -1063 
L 3263 -1509 
L -63 -1509 
L -63 -1063 
L 3263 -1063 
z
" transform="scale(0.015625)"/>
     </defs>
     <use xlink:href="#DejaVuSans-53"/>
     <use xlink:href="#DejaVuSans-70" x="63.476562"/>
     <use xlink:href="#DejaVuSans-6f" x="126.953125"/>
     <use xlink:href="#DejaVuSans-74" x="188.134766"/>
     <use xlink:href="#DejaVuSans-73" x="227.34375"/>
     <use xlink:href="#DejaVuSans-5f" x="279.443359"/>
     <use xlink:href="#DejaVuSans-44" x="329.443359"/>
     <use xlink:href="#DejaVuSans-65" x="406.445312"/>
     <use xlink:href="#DejaVuSans-6e" x="467.96875"/>
     <use xlink:href="#DejaVuSans-73" x="531.347656"/>
     <use xlink:href="#DejaVuSans-69" x="583.447266"/>
     <use xlink:href="#DejaVuSans-74" x="611.230469"/>
     <use xlink:href="#DejaVuSans-79" x="650.439453"/>
    </g>
   </g>
  </g>
 </g>
 <defs>
  <clipPath id="p1beaa4970b">
   <rect x="90" y="51.84" width="558" height="332.64"/>
  </clipPath>
 </defs>
</svg>
