<?xml version="1.0" encoding="utf-8" standalone="no"?>
<!DOCTYPE svg PUBLIC "-//W3C//DTD SVG 1.1//EN"
  "http://www.w3.org/Graphics/SVG/1.1/DTD/svg11.dtd">
<svg xmlns:xlink="http://www.w3.org/1999/xlink" width="720pt" height="432pt" viewBox="0 0 720 432" xmlns="http://www.w3.org/2000/svg" version="1.1">
 <metadata>
  <rdf:RDF xmlns:dc="http://purl.org/dc/elements/1.1/" xmlns:cc="http://creativecommons.org/ns#" xmlns:rdf="http://www.w3.org/1999/02/22-rdf-syntax-ns#">
   <cc:Work>
    <dc:type rdf:resource="http://purl.org/dc/dcmitype/StillImage"/>
    <dc:date>2024-03-12T14:54:27.377520</dc:date>
    <dc:format>image/svg+xml</dc:format>
    <dc:creator>
     <cc:Agent>
      <dc:title>Matplotlib v3.5.1, https://matplotlib.org/</dc:title>
     </cc:Agent>
    </dc:creator>
   </cc:Work>
  </rdf:RDF>
 </metadata>
 <defs>
  <style type="text/css">*{stroke-linejoin: round; stroke-linecap: butt}</style>
 </defs>
 <g id="figure_1">
  <g id="patch_1">
   <path d="M 0 432 
L 720 432 
L 720 0 
L 0 0 
z
" style="fill: #ffffff"/>
  </g>
  <g id="axes_1">
   <g id="patch_2">
    <path d="M 90 384.48 
L 648 384.48 
L 648 51.84 
L 90 51.84 
z
" style="fill: #ffffff"/>
   </g>
   <g id="matplotlib.axis_1">
    <g id="xtick_1">
     <g id="line2d_1">
      <defs>
       <path id="m17b848c3d2" d="M 0 0 
L 0 3.5 
" style="stroke: #000000; stroke-width: 0.8"/>
      </defs>
      <g>
       <use xlink:href="#m17b848c3d2" x="115.363636" y="384.48" style="stroke: #000000; stroke-width: 0.8"/>
      </g>
     </g>
     <g id="text_1">
      <!-- 0 -->
      <g transform="translate(112.182386 399.078438)scale(0.1 -0.1)">
       <defs>
        <path id="DejaVuSans-30" d="M 2034 4250 
Q 1547 4250 1301 3770 
Q 1056 3291 1056 2328 
Q 1056 1369 1301 889 
Q 1547 409 2034 409 
Q 2525 409 2770 889 
Q 3016 1369 3016 2328 
Q 3016 3291 2770 3770 
Q 2525 4250 2034 4250 
z
M 2034 4750 
Q 2819 4750 3233 4129 
Q 3647 3509 3647 2328 
Q 3647 1150 3233 529 
Q 2819 -91 2034 -91 
Q 1250 -91 836 529 
Q 422 1150 422 2328 
Q 422 3509 836 4129 
Q 1250 4750 2034 4750 
z
" transform="scale(0.015625)"/>
       </defs>
       <use xlink:href="#DejaVuSans-30"/>
      </g>
     </g>
    </g>
    <g id="xtick_2">
     <g id="line2d_2">
      <g>
       <use xlink:href="#m17b848c3d2" x="216.838477" y="384.48" style="stroke: #000000; stroke-width: 0.8"/>
      </g>
     </g>
     <g id="text_2">
      <!-- 1000 -->
      <g transform="translate(204.113477 399.078438)scale(0.1 -0.1)">
       <defs>
        <path id="DejaVuSans-31" d="M 794 531 
L 1825 531 
L 1825 4091 
L 703 3866 
L 703 4441 
L 1819 4666 
L 2450 4666 
L 2450 531 
L 3481 531 
L 3481 0 
L 794 0 
L 794 531 
z
" transform="scale(0.015625)"/>
       </defs>
       <use xlink:href="#DejaVuSans-31"/>
       <use xlink:href="#DejaVuSans-30" x="63.623047"/>
       <use xlink:href="#DejaVuSans-30" x="127.246094"/>
       <use xlink:href="#DejaVuSans-30" x="190.869141"/>
      </g>
     </g>
    </g>
    <g id="xtick_3">
     <g id="line2d_3">
      <g>
       <use xlink:href="#m17b848c3d2" x="318.313317" y="384.48" style="stroke: #000000; stroke-width: 0.8"/>
      </g>
     </g>
     <g id="text_3">
      <!-- 2000 -->
      <g transform="translate(305.588317 399.078438)scale(0.1 -0.1)">
       <defs>
        <path id="DejaVuSans-32" d="M 1228 531 
L 3431 531 
L 3431 0 
L 469 0 
L 469 531 
Q 828 903 1448 1529 
Q 2069 2156 2228 2338 
Q 2531 2678 2651 2914 
Q 2772 3150 2772 3378 
Q 2772 3750 2511 3984 
Q 2250 4219 1831 4219 
Q 1534 4219 1204 4116 
Q 875 4013 500 3803 
L 500 4441 
Q 881 4594 1212 4672 
Q 1544 4750 1819 4750 
Q 2544 4750 2975 4387 
Q 3406 4025 3406 3419 
Q 3406 3131 3298 2873 
Q 3191 2616 2906 2266 
Q 2828 2175 2409 1742 
Q 1991 1309 1228 531 
z
" transform="scale(0.015625)"/>
       </defs>
       <use xlink:href="#DejaVuSans-32"/>
       <use xlink:href="#DejaVuSans-30" x="63.623047"/>
       <use xlink:href="#DejaVuSans-30" x="127.246094"/>
       <use xlink:href="#DejaVuSans-30" x="190.869141"/>
      </g>
     </g>
    </g>
    <g id="xtick_4">
     <g id="line2d_4">
      <g>
       <use xlink:href="#m17b848c3d2" x="419.788158" y="384.48" style="stroke: #000000; stroke-width: 0.8"/>
      </g>
     </g>
     <g id="text_4">
      <!-- 3000 -->
      <g transform="translate(407.063158 399.078438)scale(0.1 -0.1)">
       <defs>
        <path id="DejaVuSans-33" d="M 2597 2516 
Q 3050 2419 3304 2112 
Q 3559 1806 3559 1356 
Q 3559 666 3084 287 
Q 2609 -91 1734 -91 
Q 1441 -91 1130 -33 
Q 819 25 488 141 
L 488 750 
Q 750 597 1062 519 
Q 1375 441 1716 441 
Q 2309 441 2620 675 
Q 2931 909 2931 1356 
Q 2931 1769 2642 2001 
Q 2353 2234 1838 2234 
L 1294 2234 
L 1294 2753 
L 1863 2753 
Q 2328 2753 2575 2939 
Q 2822 3125 2822 3475 
Q 2822 3834 2567 4026 
Q 2313 4219 1838 4219 
Q 1578 4219 1281 4162 
Q 984 4106 628 3988 
L 628 4550 
Q 988 4650 1302 4700 
Q 1616 4750 1894 4750 
Q 2613 4750 3031 4423 
Q 3450 4097 3450 3541 
Q 3450 3153 3228 2886 
Q 3006 2619 2597 2516 
z
" transform="scale(0.015625)"/>
       </defs>
       <use xlink:href="#DejaVuSans-33"/>
       <use xlink:href="#DejaVuSans-30" x="63.623047"/>
       <use xlink:href="#DejaVuSans-30" x="127.246094"/>
       <use xlink:href="#DejaVuSans-30" x="190.869141"/>
      </g>
     </g>
    </g>
    <g id="xtick_5">
     <g id="line2d_5">
      <g>
       <use xlink:href="#m17b848c3d2" x="521.262998" y="384.48" style="stroke: #000000; stroke-width: 0.8"/>
      </g>
     </g>
     <g id="text_5">
      <!-- 4000 -->
      <g transform="translate(508.537998 399.078438)scale(0.1 -0.1)">
       <defs>
        <path id="DejaVuSans-34" d="M 2419 4116 
L 825 1625 
L 2419 1625 
L 2419 4116 
z
M 2253 4666 
L 3047 4666 
L 3047 1625 
L 3713 1625 
L 3713 1100 
L 3047 1100 
L 3047 0 
L 2419 0 
L 2419 1100 
L 313 1100 
L 313 1709 
L 2253 4666 
z
" transform="scale(0.015625)"/>
       </defs>
       <use xlink:href="#DejaVuSans-34"/>
       <use xlink:href="#DejaVuSans-30" x="63.623047"/>
       <use xlink:href="#DejaVuSans-30" x="127.246094"/>
       <use xlink:href="#DejaVuSans-30" x="190.869141"/>
      </g>
     </g>
    </g>
    <g id="xtick_6">
     <g id="line2d_6">
      <g>
       <use xlink:href="#m17b848c3d2" x="622.737838" y="384.48" style="stroke: #000000; stroke-width: 0.8"/>
      </g>
     </g>
     <g id="text_6">
      <!-- 5000 -->
      <g transform="translate(610.012838 399.078438)scale(0.1 -0.1)">
       <defs>
        <path id="DejaVuSans-35" d="M 691 4666 
L 3169 4666 
L 3169 4134 
L 1269 4134 
L 1269 2991 
Q 1406 3038 1543 3061 
Q 1681 3084 1819 3084 
Q 2600 3084 3056 2656 
Q 3513 2228 3513 1497 
Q 3513 744 3044 326 
Q 2575 -91 1722 -91 
Q 1428 -91 1123 -41 
Q 819 9 494 109 
L 494 744 
Q 775 591 1075 516 
Q 1375 441 1709 441 
Q 2250 441 2565 725 
Q 2881 1009 2881 1497 
Q 2881 1984 2565 2268 
Q 2250 2553 1709 2553 
Q 1456 2553 1204 2497 
Q 953 2441 691 2322 
L 691 4666 
z
" transform="scale(0.015625)"/>
       </defs>
       <use xlink:href="#DejaVuSans-35"/>
       <use xlink:href="#DejaVuSans-30" x="63.623047"/>
       <use xlink:href="#DejaVuSans-30" x="127.246094"/>
       <use xlink:href="#DejaVuSans-30" x="190.869141"/>
      </g>
     </g>
    </g>
    <g id="text_7">
     <!-- Time [step] -->
     <g transform="translate(340.460156 412.756563)scale(0.1 -0.1)">
      <defs>
       <path id="DejaVuSans-54" d="M -19 4666 
L 3928 4666 
L 3928 4134 
L 2272 4134 
L 2272 0 
L 1638 0 
L 1638 4134 
L -19 4134 
L -19 4666 
z
" transform="scale(0.015625)"/>
       <path id="DejaVuSans-69" d="M 603 3500 
L 1178 3500 
L 1178 0 
L 603 0 
L 603 3500 
z
M 603 4863 
L 1178 4863 
L 1178 4134 
L 603 4134 
L 603 4863 
z
" transform="scale(0.015625)"/>
       <path id="DejaVuSans-6d" d="M 3328 2828 
Q 3544 3216 3844 3400 
Q 4144 3584 4550 3584 
Q 5097 3584 5394 3201 
Q 5691 2819 5691 2113 
L 5691 0 
L 5113 0 
L 5113 2094 
Q 5113 2597 4934 2840 
Q 4756 3084 4391 3084 
Q 3944 3084 3684 2787 
Q 3425 2491 3425 1978 
L 3425 0 
L 2847 0 
L 2847 2094 
Q 2847 2600 2669 2842 
Q 2491 3084 2119 3084 
Q 1678 3084 1418 2786 
Q 1159 2488 1159 1978 
L 1159 0 
L 581 0 
L 581 3500 
L 1159 3500 
L 1159 2956 
Q 1356 3278 1631 3431 
Q 1906 3584 2284 3584 
Q 2666 3584 2933 3390 
Q 3200 3197 3328 2828 
z
" transform="scale(0.015625)"/>
       <path id="DejaVuSans-65" d="M 3597 1894 
L 3597 1613 
L 953 1613 
Q 991 1019 1311 708 
Q 1631 397 2203 397 
Q 2534 397 2845 478 
Q 3156 559 3463 722 
L 3463 178 
Q 3153 47 2828 -22 
Q 2503 -91 2169 -91 
Q 1331 -91 842 396 
Q 353 884 353 1716 
Q 353 2575 817 3079 
Q 1281 3584 2069 3584 
Q 2775 3584 3186 3129 
Q 3597 2675 3597 1894 
z
M 3022 2063 
Q 3016 2534 2758 2815 
Q 2500 3097 2075 3097 
Q 1594 3097 1305 2825 
Q 1016 2553 972 2059 
L 3022 2063 
z
" transform="scale(0.015625)"/>
       <path id="DejaVuSans-20" transform="scale(0.015625)"/>
       <path id="DejaVuSans-5b" d="M 550 4863 
L 1875 4863 
L 1875 4416 
L 1125 4416 
L 1125 -397 
L 1875 -397 
L 1875 -844 
L 550 -844 
L 550 4863 
z
" transform="scale(0.015625)"/>
       <path id="DejaVuSans-73" d="M 2834 3397 
L 2834 2853 
Q 2591 2978 2328 3040 
Q 2066 3103 1784 3103 
Q 1356 3103 1142 2972 
Q 928 2841 928 2578 
Q 928 2378 1081 2264 
Q 1234 2150 1697 2047 
L 1894 2003 
Q 2506 1872 2764 1633 
Q 3022 1394 3022 966 
Q 3022 478 2636 193 
Q 2250 -91 1575 -91 
Q 1294 -91 989 -36 
Q 684 19 347 128 
L 347 722 
Q 666 556 975 473 
Q 1284 391 1588 391 
Q 1994 391 2212 530 
Q 2431 669 2431 922 
Q 2431 1156 2273 1281 
Q 2116 1406 1581 1522 
L 1381 1569 
Q 847 1681 609 1914 
Q 372 2147 372 2553 
Q 372 3047 722 3315 
Q 1072 3584 1716 3584 
Q 2034 3584 2315 3537 
Q 2597 3491 2834 3397 
z
" transform="scale(0.015625)"/>
       <path id="DejaVuSans-74" d="M 1172 4494 
L 1172 3500 
L 2356 3500 
L 2356 3053 
L 1172 3053 
L 1172 1153 
Q 1172 725 1289 603 
Q 1406 481 1766 481 
L 2356 481 
L 2356 0 
L 1766 0 
Q 1100 0 847 248 
Q 594 497 594 1153 
L 594 3053 
L 172 3053 
L 172 3500 
L 594 3500 
L 594 4494 
L 1172 4494 
z
" transform="scale(0.015625)"/>
       <path id="DejaVuSans-70" d="M 1159 525 
L 1159 -1331 
L 581 -1331 
L 581 3500 
L 1159 3500 
L 1159 2969 
Q 1341 3281 1617 3432 
Q 1894 3584 2278 3584 
Q 2916 3584 3314 3078 
Q 3713 2572 3713 1747 
Q 3713 922 3314 415 
Q 2916 -91 2278 -91 
Q 1894 -91 1617 61 
Q 1341 213 1159 525 
z
M 3116 1747 
Q 3116 2381 2855 2742 
Q 2594 3103 2138 3103 
Q 1681 3103 1420 2742 
Q 1159 2381 1159 1747 
Q 1159 1113 1420 752 
Q 1681 391 2138 391 
Q 2594 391 2855 752 
Q 3116 1113 3116 1747 
z
" transform="scale(0.015625)"/>
       <path id="DejaVuSans-5d" d="M 1947 4863 
L 1947 -844 
L 622 -844 
L 622 -397 
L 1369 -397 
L 1369 4416 
L 622 4416 
L 622 4863 
L 1947 4863 
z
" transform="scale(0.015625)"/>
      </defs>
      <use xlink:href="#DejaVuSans-54"/>
      <use xlink:href="#DejaVuSans-69" x="57.958984"/>
      <use xlink:href="#DejaVuSans-6d" x="85.742188"/>
      <use xlink:href="#DejaVuSans-65" x="183.154297"/>
      <use xlink:href="#DejaVuSans-20" x="244.677734"/>
      <use xlink:href="#DejaVuSans-5b" x="276.464844"/>
      <use xlink:href="#DejaVuSans-73" x="315.478516"/>
      <use xlink:href="#DejaVuSans-74" x="367.578125"/>
      <use xlink:href="#DejaVuSans-65" x="406.787109"/>
      <use xlink:href="#DejaVuSans-70" x="468.310547"/>
      <use xlink:href="#DejaVuSans-5d" x="531.787109"/>
     </g>
    </g>
   </g>
   <g id="matplotlib.axis_2">
    <g id="ytick_1">
     <g id="line2d_7">
      <defs>
       <path id="mf981d8610b" d="M 0 0 
L -3.5 0 
" style="stroke: #000000; stroke-width: 0.8"/>
      </defs>
      <g>
       <use xlink:href="#mf981d8610b" x="90" y="373.860957" style="stroke: #000000; stroke-width: 0.8"/>
      </g>
     </g>
     <g id="text_8">
      <!-- 0.0 -->
      <g transform="translate(67.096875 377.660176)scale(0.1 -0.1)">
       <defs>
        <path id="DejaVuSans-2e" d="M 684 794 
L 1344 794 
L 1344 0 
L 684 0 
L 684 794 
z
" transform="scale(0.015625)"/>
       </defs>
       <use xlink:href="#DejaVuSans-30"/>
       <use xlink:href="#DejaVuSans-2e" x="63.623047"/>
       <use xlink:href="#DejaVuSans-30" x="95.410156"/>
      </g>
     </g>
    </g>
    <g id="ytick_2">
     <g id="line2d_8">
      <g>
       <use xlink:href="#mf981d8610b" x="90" y="309.561573" style="stroke: #000000; stroke-width: 0.8"/>
      </g>
     </g>
     <g id="text_9">
      <!-- 0.1 -->
      <g transform="translate(67.096875 313.360792)scale(0.1 -0.1)">
       <use xlink:href="#DejaVuSans-30"/>
       <use xlink:href="#DejaVuSans-2e" x="63.623047"/>
       <use xlink:href="#DejaVuSans-31" x="95.410156"/>
      </g>
     </g>
    </g>
    <g id="ytick_3">
     <g id="line2d_9">
      <g>
       <use xlink:href="#mf981d8610b" x="90" y="245.26219" style="stroke: #000000; stroke-width: 0.8"/>
      </g>
     </g>
     <g id="text_10">
      <!-- 0.2 -->
      <g transform="translate(67.096875 249.061409)scale(0.1 -0.1)">
       <use xlink:href="#DejaVuSans-30"/>
       <use xlink:href="#DejaVuSans-2e" x="63.623047"/>
       <use xlink:href="#DejaVuSans-32" x="95.410156"/>
      </g>
     </g>
    </g>
    <g id="ytick_4">
     <g id="line2d_10">
      <g>
       <use xlink:href="#mf981d8610b" x="90" y="180.962807" style="stroke: #000000; stroke-width: 0.8"/>
      </g>
     </g>
     <g id="text_11">
      <!-- 0.3 -->
      <g transform="translate(67.096875 184.762025)scale(0.1 -0.1)">
       <use xlink:href="#DejaVuSans-30"/>
       <use xlink:href="#DejaVuSans-2e" x="63.623047"/>
       <use xlink:href="#DejaVuSans-33" x="95.410156"/>
      </g>
     </g>
    </g>
    <g id="ytick_5">
     <g id="line2d_11">
      <g>
       <use xlink:href="#mf981d8610b" x="90" y="116.663423" style="stroke: #000000; stroke-width: 0.8"/>
      </g>
     </g>
     <g id="text_12">
      <!-- 0.4 -->
      <g transform="translate(67.096875 120.462642)scale(0.1 -0.1)">
       <use xlink:href="#DejaVuSans-30"/>
       <use xlink:href="#DejaVuSans-2e" x="63.623047"/>
       <use xlink:href="#DejaVuSans-34" x="95.410156"/>
      </g>
     </g>
    </g>
    <g id="ytick_6">
     <g id="line2d_12">
      <g>
       <use xlink:href="#mf981d8610b" x="90" y="52.36404" style="stroke: #000000; stroke-width: 0.8"/>
      </g>
     </g>
     <g id="text_13">
      <!-- 0.5 -->
      <g transform="translate(67.096875 56.163259)scale(0.1 -0.1)">
       <use xlink:href="#DejaVuSans-30"/>
       <use xlink:href="#DejaVuSans-2e" x="63.623047"/>
       <use xlink:href="#DejaVuSans-35" x="95.410156"/>
      </g>
     </g>
    </g>
    <g id="text_14">
     <!-- Density of living cells [%] -->
     <g transform="translate(61.017187 281.674844)rotate(-90)scale(0.1 -0.1)">
      <defs>
       <path id="DejaVuSans-44" d="M 1259 4147 
L 1259 519 
L 2022 519 
Q 2988 519 3436 956 
Q 3884 1394 3884 2338 
Q 3884 3275 3436 3711 
Q 2988 4147 2022 4147 
L 1259 4147 
z
M 628 4666 
L 1925 4666 
Q 3281 4666 3915 4102 
Q 4550 3538 4550 2338 
Q 4550 1131 3912 565 
Q 3275 0 1925 0 
L 628 0 
L 628 4666 
z
" transform="scale(0.015625)"/>
       <path id="DejaVuSans-6e" d="M 3513 2113 
L 3513 0 
L 2938 0 
L 2938 2094 
Q 2938 2591 2744 2837 
Q 2550 3084 2163 3084 
Q 1697 3084 1428 2787 
Q 1159 2491 1159 1978 
L 1159 0 
L 581 0 
L 581 3500 
L 1159 3500 
L 1159 2956 
Q 1366 3272 1645 3428 
Q 1925 3584 2291 3584 
Q 2894 3584 3203 3211 
Q 3513 2838 3513 2113 
z
" transform="scale(0.015625)"/>
       <path id="DejaVuSans-79" d="M 2059 -325 
Q 1816 -950 1584 -1140 
Q 1353 -1331 966 -1331 
L 506 -1331 
L 506 -850 
L 844 -850 
Q 1081 -850 1212 -737 
Q 1344 -625 1503 -206 
L 1606 56 
L 191 3500 
L 800 3500 
L 1894 763 
L 2988 3500 
L 3597 3500 
L 2059 -325 
z
" transform="scale(0.015625)"/>
       <path id="DejaVuSans-6f" d="M 1959 3097 
Q 1497 3097 1228 2736 
Q 959 2375 959 1747 
Q 959 1119 1226 758 
Q 1494 397 1959 397 
Q 2419 397 2687 759 
Q 2956 1122 2956 1747 
Q 2956 2369 2687 2733 
Q 2419 3097 1959 3097 
z
M 1959 3584 
Q 2709 3584 3137 3096 
Q 3566 2609 3566 1747 
Q 3566 888 3137 398 
Q 2709 -91 1959 -91 
Q 1206 -91 779 398 
Q 353 888 353 1747 
Q 353 2609 779 3096 
Q 1206 3584 1959 3584 
z
" transform="scale(0.015625)"/>
       <path id="DejaVuSans-66" d="M 2375 4863 
L 2375 4384 
L 1825 4384 
Q 1516 4384 1395 4259 
Q 1275 4134 1275 3809 
L 1275 3500 
L 2222 3500 
L 2222 3053 
L 1275 3053 
L 1275 0 
L 697 0 
L 697 3053 
L 147 3053 
L 147 3500 
L 697 3500 
L 697 3744 
Q 697 4328 969 4595 
Q 1241 4863 1831 4863 
L 2375 4863 
z
" transform="scale(0.015625)"/>
       <path id="DejaVuSans-6c" d="M 603 4863 
L 1178 4863 
L 1178 0 
L 603 0 
L 603 4863 
z
" transform="scale(0.015625)"/>
       <path id="DejaVuSans-76" d="M 191 3500 
L 800 3500 
L 1894 563 
L 2988 3500 
L 3597 3500 
L 2284 0 
L 1503 0 
L 191 3500 
z
" transform="scale(0.015625)"/>
       <path id="DejaVuSans-67" d="M 2906 1791 
Q 2906 2416 2648 2759 
Q 2391 3103 1925 3103 
Q 1463 3103 1205 2759 
Q 947 2416 947 1791 
Q 947 1169 1205 825 
Q 1463 481 1925 481 
Q 2391 481 2648 825 
Q 2906 1169 2906 1791 
z
M 3481 434 
Q 3481 -459 3084 -895 
Q 2688 -1331 1869 -1331 
Q 1566 -1331 1297 -1286 
Q 1028 -1241 775 -1147 
L 775 -588 
Q 1028 -725 1275 -790 
Q 1522 -856 1778 -856 
Q 2344 -856 2625 -561 
Q 2906 -266 2906 331 
L 2906 616 
Q 2728 306 2450 153 
Q 2172 0 1784 0 
Q 1141 0 747 490 
Q 353 981 353 1791 
Q 353 2603 747 3093 
Q 1141 3584 1784 3584 
Q 2172 3584 2450 3431 
Q 2728 3278 2906 2969 
L 2906 3500 
L 3481 3500 
L 3481 434 
z
" transform="scale(0.015625)"/>
       <path id="DejaVuSans-63" d="M 3122 3366 
L 3122 2828 
Q 2878 2963 2633 3030 
Q 2388 3097 2138 3097 
Q 1578 3097 1268 2742 
Q 959 2388 959 1747 
Q 959 1106 1268 751 
Q 1578 397 2138 397 
Q 2388 397 2633 464 
Q 2878 531 3122 666 
L 3122 134 
Q 2881 22 2623 -34 
Q 2366 -91 2075 -91 
Q 1284 -91 818 406 
Q 353 903 353 1747 
Q 353 2603 823 3093 
Q 1294 3584 2113 3584 
Q 2378 3584 2631 3529 
Q 2884 3475 3122 3366 
z
" transform="scale(0.015625)"/>
       <path id="DejaVuSans-25" d="M 4653 2053 
Q 4381 2053 4226 1822 
Q 4072 1591 4072 1178 
Q 4072 772 4226 539 
Q 4381 306 4653 306 
Q 4919 306 5073 539 
Q 5228 772 5228 1178 
Q 5228 1588 5073 1820 
Q 4919 2053 4653 2053 
z
M 4653 2450 
Q 5147 2450 5437 2106 
Q 5728 1763 5728 1178 
Q 5728 594 5436 251 
Q 5144 -91 4653 -91 
Q 4153 -91 3862 251 
Q 3572 594 3572 1178 
Q 3572 1766 3864 2108 
Q 4156 2450 4653 2450 
z
M 1428 4353 
Q 1159 4353 1004 4120 
Q 850 3888 850 3481 
Q 850 3069 1003 2837 
Q 1156 2606 1428 2606 
Q 1700 2606 1854 2837 
Q 2009 3069 2009 3481 
Q 2009 3884 1853 4118 
Q 1697 4353 1428 4353 
z
M 4250 4750 
L 4750 4750 
L 1831 -91 
L 1331 -91 
L 4250 4750 
z
M 1428 4750 
Q 1922 4750 2215 4408 
Q 2509 4066 2509 3481 
Q 2509 2891 2217 2550 
Q 1925 2209 1428 2209 
Q 931 2209 642 2551 
Q 353 2894 353 3481 
Q 353 4063 643 4406 
Q 934 4750 1428 4750 
z
" transform="scale(0.015625)"/>
      </defs>
      <use xlink:href="#DejaVuSans-44"/>
      <use xlink:href="#DejaVuSans-65" x="77.001953"/>
      <use xlink:href="#DejaVuSans-6e" x="138.525391"/>
      <use xlink:href="#DejaVuSans-73" x="201.904297"/>
      <use xlink:href="#DejaVuSans-69" x="254.003906"/>
      <use xlink:href="#DejaVuSans-74" x="281.787109"/>
      <use xlink:href="#DejaVuSans-79" x="320.996094"/>
      <use xlink:href="#DejaVuSans-20" x="380.175781"/>
      <use xlink:href="#DejaVuSans-6f" x="411.962891"/>
      <use xlink:href="#DejaVuSans-66" x="473.144531"/>
      <use xlink:href="#DejaVuSans-20" x="508.349609"/>
      <use xlink:href="#DejaVuSans-6c" x="540.136719"/>
      <use xlink:href="#DejaVuSans-69" x="567.919922"/>
      <use xlink:href="#DejaVuSans-76" x="595.703125"/>
      <use xlink:href="#DejaVuSans-69" x="654.882812"/>
      <use xlink:href="#DejaVuSans-6e" x="682.666016"/>
      <use xlink:href="#DejaVuSans-67" x="746.044922"/>
      <use xlink:href="#DejaVuSans-20" x="809.521484"/>
      <use xlink:href="#DejaVuSans-63" x="841.308594"/>
      <use xlink:href="#DejaVuSans-65" x="896.289062"/>
      <use xlink:href="#DejaVuSans-6c" x="957.8125"/>
      <use xlink:href="#DejaVuSans-6c" x="985.595703"/>
      <use xlink:href="#DejaVuSans-73" x="1013.378906"/>
      <use xlink:href="#DejaVuSans-20" x="1065.478516"/>
      <use xlink:href="#DejaVuSans-5b" x="1097.265625"/>
      <use xlink:href="#DejaVuSans-25" x="1136.279297"/>
      <use xlink:href="#DejaVuSans-5d" x="1231.298828"/>
     </g>
    </g>
   </g>
   <g id="line2d_13">
    <path d="M 115.363636 66.96 
L 115.668061 92.422556 
L 116.07396 103.48205 
L 116.175435 104.125044 
L 116.378385 107.404312 
L 116.581334 109.461892 
L 116.885759 113.191257 
L 116.987234 111.583772 
L 117.799033 124.893744 
L 117.900507 125.150942 
L 118.306407 133.252664 
L 118.407882 134.538652 
L 118.509356 133.124065 
L 118.813781 137.560723 
L 119.016731 138.396615 
L 119.118205 137.689322 
L 119.42263 139.489704 
L 119.524105 140.454195 
L 119.62558 142.961871 
L 119.727055 141.99738 
L 119.930004 144.183559 
L 120.031479 144.762254 
L 120.132954 146.048242 
L 120.335904 145.340948 
L 120.437378 146.24114 
L 120.538853 145.791044 
L 120.741803 147.784325 
L 120.843278 148.041522 
L 121.046227 149.970504 
L 121.147702 150.163402 
L 121.452127 154.342862 
L 121.553602 154.342862 
L 121.655076 155.56455 
L 121.756551 155.178754 
L 121.858026 157.043436 
L 121.959501 156.529041 
L 122.162451 156.914837 
L 122.872775 162.573183 
L 122.974249 161.994489 
L 123.177199 163.280476 
L 123.278674 163.280476 
L 123.481624 166.366847 
L 123.583098 165.916751 
L 123.887523 167.331337 
L 123.988998 168.681624 
L 124.090473 167.652834 
L 124.293422 168.424427 
L 124.394897 168.167229 
L 124.597847 169.324618 
L 124.699322 168.553026 
L 125.105221 173.118282 
L 125.206696 172.989683 
L 125.51112 173.761276 
L 125.612595 174.33997 
L 125.71407 173.504078 
L 125.815545 173.761276 
L 126.424394 177.49064 
L 126.525869 177.040544 
L 126.627344 177.362041 
L 126.830293 180.319813 
L 126.931768 179.419622 
L 127.134718 180.512711 
L 127.337668 180.834208 
L 127.439142 181.862998 
L 127.642092 179.61252 
L 127.946517 181.991597 
L 128.149466 182.313094 
L 128.352416 185.206566 
L 128.453891 184.75647 
L 128.555366 185.399464 
L 128.65684 186.814051 
L 128.758315 186.621152 
L 128.961265 188.357236 
L 129.06274 187.842841 
L 129.164215 188.421535 
L 129.26569 187.778541 
L 129.468639 189.771822 
L 129.570114 189.643223 
L 129.773064 191.700804 
L 129.874539 191.443606 
L 130.178963 192.922492 
L 130.280438 192.150899 
L 130.787812 194.722875 
L 130.889287 194.594276 
L 131.092237 196.008862 
L 131.193711 195.494467 
L 131.396661 196.587557 
L 131.599611 196.973353 
L 131.802561 197.680646 
L 131.904035 198.902335 
L 132.00551 198.516538 
L 132.20846 200.252622 
L 132.309935 199.995424 
L 132.41141 200.638418 
L 132.614359 199.866825 
L 132.715834 201.988705 
L 132.817309 201.731508 
L 133.020259 202.245903 
L 133.121733 202.374501 
L 133.223208 201.731508 
L 133.324683 201.795807 
L 133.426158 201.924406 
L 133.527633 201.860106 
L 133.933532 205.910967 
L 134.035007 205.589471 
L 134.136482 206.746859 
L 134.237957 206.232464 
L 134.339432 206.489662 
L 134.440906 206.168165 
L 134.542381 207.196955 
L 134.643856 206.553961 
L 134.846806 207.904248 
L 134.948281 207.647051 
L 135.15123 207.904248 
L 135.252705 207.518452 
L 135.35418 208.675841 
L 135.455655 207.77565 
L 135.55713 209.704631 
L 135.658604 208.933038 
L 135.963029 212.598103 
L 136.165979 211.826511 
L 136.470403 213.048199 
L 136.673353 214.334187 
L 136.774828 214.076989 
L 136.876303 213.305397 
L 136.977777 214.848582 
L 137.079252 214.719983 
L 137.383677 217.742054 
L 137.485152 217.16336 
L 137.789576 220.314029 
L 137.891051 219.606736 
L 137.992526 220.957023 
L 138.094001 220.571227 
L 138.29695 221.728616 
L 138.398425 221.985813 
L 138.601375 223.657597 
L 138.804325 222.821705 
L 138.905799 223.464699 
L 139.007274 222.564508 
L 139.210224 224.622088 
L 139.311699 224.043394 
L 139.616123 225.779477 
L 139.717598 225.779477 
L 140.326447 229.894637 
L 140.529397 229.251644 
L 140.732346 231.116326 
L 140.935296 231.887918 
L 141.138246 231.309224 
L 141.341196 231.180625 
L 141.64562 232.916708 
L 141.747095 232.530912 
L 141.84857 233.688301 
L 142.051519 232.402313 
L 142.254469 233.8169 
L 142.558894 235.552983 
L 142.660368 235.295786 
L 142.761843 235.745881 
L 143.066268 239.732443 
L 143.167743 239.732443 
L 143.370692 241.275628 
L 143.472167 241.018431 
L 143.675117 242.17582 
L 143.979541 244.104801 
L 144.081016 243.397508 
L 144.283966 245.26219 
L 144.486916 243.719005 
L 144.58839 243.719005 
L 144.689865 243.461807 
L 144.892815 244.2334 
L 144.99429 244.554897 
L 145.095765 245.455088 
L 145.298714 245.069292 
L 145.400189 245.969483 
L 145.501664 245.583687 
L 145.603139 246.35528 
L 145.704614 246.226681 
L 146.110513 247.641267 
L 146.211988 247.126872 
L 146.313463 247.769866 
L 146.414938 247.512669 
L 146.516412 247.898465 
L 146.617887 247.38407 
L 146.820837 248.927255 
L 146.922312 249.184452 
L 147.023787 249.055854 
L 147.429686 250.791937 
L 147.531161 251.049135 
L 147.632636 250.727638 
L 147.835585 251.627829 
L 147.93706 251.242033 
L 148.14001 253.299613 
L 148.34296 254.264104 
L 148.545909 254.6499 
L 148.748859 254.135505 
L 148.850334 254.778499 
L 148.951809 254.6499 
L 149.053283 254.264104 
L 149.256233 256.193085 
L 149.357708 255.935888 
L 149.459183 256.450283 
L 149.560658 256.321684 
L 149.662132 257.093277 
L 149.763607 256.964678 
L 150.068032 258.250666 
L 150.169507 258.379264 
L 150.270981 257.73627 
L 150.372456 257.993468 
L 150.575406 258.957959 
L 150.676881 258.82936 
L 150.981305 260.051048 
L 151.08278 259.408054 
L 151.28573 261.722832 
L 151.387205 261.015539 
L 151.48868 261.144138 
L 151.691629 261.98003 
L 151.793104 261.722832 
L 151.894579 261.851431 
L 152.097529 264.487706 
L 152.199003 264.616304 
L 152.300478 264.230508 
L 152.807852 266.352388 
L 153.112277 268.152771 
L 153.213752 267.766974 
L 153.315227 268.667166 
L 153.416702 268.024172 
L 153.518176 268.152771 
L 153.721126 267.895573 
L 154.025551 270.146051 
L 154.127025 269.631656 
L 154.2285 270.789045 
L 154.329975 270.467548 
L 154.735874 271.560638 
L 154.837349 271.432039 
L 154.938824 272.589428 
L 155.040299 272.460829 
L 155.141774 272.139332 
L 155.243249 272.267931 
L 155.547673 273.746817 
L 155.750623 273.361021 
L 155.953573 274.839906 
L 156.460947 277.669079 
L 156.562422 277.411882 
L 156.663896 277.026085 
L 157.171271 280.819749 
L 157.272745 280.819749 
L 157.78012 282.941629 
L 157.881595 282.427234 
L 157.983069 282.941629 
L 158.084544 282.620132 
L 158.388969 284.677712 
L 158.591918 284.420515 
L 158.693393 284.549113 
L 158.794868 284.291916 
L 158.896343 285.063508 
L 158.997818 284.163317 
L 159.200767 284.549113 
L 159.403717 285.706502 
L 159.505192 286.092299 
L 159.606667 285.320706 
L 159.809616 286.092299 
L 159.911091 286.092299 
L 160.012566 286.478095 
L 160.114041 286.220897 
L 160.316991 287.635484 
L 160.621415 288.792873 
L 160.824365 287.764083 
L 160.92584 288.407076 
L 161.027315 288.02128 
L 161.128789 288.407076 
L 161.331739 287.764083 
L 161.433214 288.278478 
L 161.534689 287.764083 
L 161.636164 287.892681 
L 161.737638 288.278478 
L 161.940588 289.307268 
L 162.143538 289.05007 
L 162.245013 290.07886 
L 162.346487 289.435866 
L 162.549437 290.464657 
L 162.752387 290.721854 
L 162.853862 290.336058 
L 162.955337 290.721854 
L 163.056811 290.336058 
L 163.86861 292.393638 
L 163.970085 291.750644 
L 164.07156 292.650836 
L 164.173035 292.393638 
L 164.274509 293.422428 
L 164.375984 293.100931 
L 164.578934 294.129721 
L 164.680409 293.22953 
L 164.984833 294.772715 
L 165.086308 294.515518 
L 165.492208 297.023194 
L 165.796632 297.601888 
L 165.898107 298.373481 
L 165.999582 298.244882 
L 166.101057 298.373481 
L 166.202531 299.145073 
L 166.405481 298.630678 
L 166.608431 299.337972 
L 166.709906 299.46657 
L 166.81138 299.337972 
L 166.912855 299.723768 
L 167.01433 300.945456 
L 167.21728 299.916666 
L 167.521704 301.331252 
L 167.623179 301.074055 
L 167.826129 301.331252 
L 167.927604 301.717049 
L 168.029079 301.459851 
L 168.333503 303.131635 
L 168.434978 302.874438 
L 168.739402 303.388833 
L 168.840877 303.388833 
L 169.043827 304.289024 
L 169.246777 304.546222 
L 169.348251 304.546222 
L 169.449726 305.060617 
L 169.551201 304.932018 
L 169.652676 305.575012 
L 169.855626 305.060617 
L 170.363 307.246796 
L 170.464475 306.218006 
L 170.768899 307.375394 
L 170.870374 307.053898 
L 170.971849 307.182496 
L 171.174799 308.018388 
L 171.479223 308.532783 
L 171.580698 308.018388 
L 171.986597 309.625873 
L 172.189547 309.368675 
L 172.291022 309.625873 
L 172.392497 309.368675 
L 172.595446 310.204567 
L 172.696921 310.397465 
L 172.798396 310.268867 
L 173.001346 311.040459 
L 173.102821 310.911861 
L 173.204295 311.297657 
L 173.407245 310.718962 
L 173.50872 311.619154 
L 173.610195 311.490555 
L 173.813144 312.197848 
L 173.914619 312.326447 
L 174.016094 312.712243 
L 174.117569 312.326447 
L 174.219044 313.612435 
L 174.320519 313.09804 
L 174.523468 313.355237 
L 174.624943 313.09804 
L 174.929368 314.641225 
L 175.030843 314.576925 
L 175.132317 315.284219 
L 175.233792 314.898422 
L 175.335267 315.927212 
L 175.436742 315.670015 
L 175.538217 316.18441 
L 175.639692 315.927212 
L 175.944116 317.598996 
L 176.045591 317.470398 
L 176.350015 317.984793 
L 176.45149 317.984793 
L 176.552965 318.370589 
L 176.65444 317.984793 
L 176.85739 318.884984 
L 176.958865 318.756385 
L 177.263289 319.913774 
L 177.364764 319.913774 
L 177.466239 320.042373 
L 177.567714 320.556768 
L 177.669188 320.042373 
L 177.872138 320.942564 
L 178.075088 320.556768 
L 178.176563 320.29957 
L 178.379512 321.328361 
L 178.582462 320.942564 
L 178.785412 321.199762 
L 179.089836 322.228552 
L 179.191311 322.228552 
L 179.394261 321.714157 
L 179.59721 322.614348 
L 179.698685 322.48575 
L 179.80016 323.000145 
L 179.901635 322.871546 
L 180.00311 323.128743 
L 180.104585 322.871546 
L 180.206059 323.000145 
L 180.307534 322.871546 
L 180.409009 323.128743 
L 180.510484 324.028935 
L 180.713434 323.771737 
L 180.814908 323.643138 
L 180.916383 324.157533 
L 181.119333 323.51454 
L 181.220808 323.51454 
L 181.322283 323.385941 
L 181.626707 323.900336 
L 181.829657 323.771737 
L 181.931132 324.414731 
L 182.134081 324.286132 
L 182.235556 324.671929 
L 182.337031 324.414731 
L 182.438506 324.671929 
L 182.539981 324.54333 
L 182.844405 325.122024 
L 182.94588 324.736228 
L 183.047355 325.250623 
L 183.14883 324.864827 
L 183.250305 324.993425 
L 183.351779 324.736228 
L 183.656204 325.765018 
L 183.757679 326.150814 
L 183.859154 325.893617 
L 184.062103 326.150814 
L 184.163578 326.022216 
L 184.265053 326.150814 
L 184.366528 326.665209 
L 184.468003 326.536611 
L 184.670952 326.922407 
L 184.873902 327.243904 
L 184.975377 327.243904 
L 185.076852 326.986706 
L 185.178327 327.6297 
L 185.279801 327.372503 
L 185.381276 328.272694 
L 185.685701 327.758299 
L 185.787176 328.272694 
L 185.88865 328.144095 
L 185.990125 328.787089 
L 186.0916 328.015496 
L 186.193075 328.787089 
L 186.29455 328.401293 
L 186.396025 328.787089 
L 186.598974 328.65849 
L 186.801924 329.044287 
L 186.903399 328.915688 
L 187.106349 329.430083 
L 187.207823 329.172885 
L 187.309298 329.68728 
L 187.512248 329.558682 
L 187.613723 329.68728 
L 187.715198 329.172885 
L 187.918147 329.944478 
L 188.019622 329.172885 
L 188.121097 329.944478 
L 188.324047 329.172885 
L 188.526996 329.815879 
L 188.628471 329.944478 
L 188.831421 330.844669 
L 189.034371 331.101867 
L 189.23732 331.744861 
L 189.338795 331.359064 
L 189.541745 331.744861 
L 189.744694 332.259256 
L 189.846169 332.002058 
L 190.049119 332.773651 
L 190.150594 332.387855 
L 190.252069 332.516453 
L 190.353543 332.387855 
L 190.657968 333.288046 
L 190.759443 333.416645 
L 190.860918 333.159447 
L 191.063867 334.188237 
L 191.165342 333.93104 
L 191.368292 334.059639 
L 191.469767 333.545243 
L 191.571242 333.802441 
L 191.875666 335.474225 
L 191.977141 335.860021 
L 192.078616 335.474225 
L 192.180091 336.245818 
L 192.281565 335.98862 
L 192.484515 336.760213 
L 192.58599 337.01741 
L 192.687465 336.631614 
L 192.890414 337.01741 
L 193.093364 336.760213 
L 193.296314 337.403206 
L 193.397789 337.146009 
L 193.499263 337.274608 
L 193.600738 337.146009 
L 194.209587 337.917602 
L 194.412537 338.496296 
L 194.514012 338.560595 
L 194.716962 338.431997 
L 194.919911 338.946392 
L 195.021386 338.689194 
L 195.122861 339.203589 
L 195.325811 338.946392 
L 195.52876 339.846583 
L 195.630235 339.203589 
L 196.847933 342.032762 
L 196.949408 342.097061 
L 197.050883 341.968463 
L 197.253833 342.740055 
L 197.355307 342.611457 
L 197.558257 343.25445 
L 197.659732 342.740055 
L 198.370056 345.183432 
L 198.471531 345.054833 
L 198.775955 345.569228 
L 198.87743 345.826426 
L 198.978905 345.697827 
L 199.181855 346.533719 
L 199.384804 347.176713 
L 199.486279 347.305312 
L 199.587754 347.691108 
L 199.689229 347.43391 
L 199.892178 347.819707 
L 200.196603 348.591299 
L 200.399553 348.398401 
L 200.602502 348.784197 
L 200.906927 349.427191 
L 201.008402 349.298592 
L 201.414301 350.070185 
L 202.02315 350.970376 
L 202.124625 351.227574 
L 202.327575 350.841778 
L 202.530524 351.61337 
L 202.631999 351.227574 
L 202.733474 351.741969 
L 202.834949 351.484771 
L 202.936424 351.741969 
L 203.037898 351.61337 
L 203.139373 351.098975 
L 203.342323 351.999166 
L 203.443798 351.484771 
L 203.545273 351.999166 
L 203.646748 351.870568 
L 203.951172 352.899358 
L 204.052647 352.770759 
L 204.154122 352.835058 
L 204.357071 352.320663 
L 204.560021 352.835058 
L 204.661496 352.70646 
L 204.864446 353.220855 
L 204.96592 353.092256 
L 205.16887 353.606651 
L 205.270345 353.092256 
L 205.473295 353.478052 
L 205.574769 353.478052 
L 205.777719 353.992447 
L 205.879194 353.606651 
L 205.980669 354.056747 
L 206.082144 353.542352 
L 206.589518 354.828339 
L 206.690993 354.699741 
L 206.893942 355.214136 
L 206.995417 355.214136 
L 207.096892 354.956938 
L 207.401317 355.214136 
L 207.502791 355.085537 
L 207.807216 355.599932 
L 207.908691 355.728531 
L 208.010166 355.599932 
L 208.111641 355.728531 
L 208.416065 357.143117 
L 208.51754 357.528913 
L 208.72049 357.400315 
L 209.126389 358.171907 
L 209.227864 358.171907 
L 209.430813 358.557704 
L 209.836713 359.586494 
L 209.938188 359.457895 
L 210.039662 359.715092 
L 210.141137 359.457895 
L 210.242612 359.843691 
L 210.344087 359.715092 
L 210.547037 360.358086 
L 210.952936 361.129679 
L 211.054411 360.872481 
L 211.358835 361.258278 
L 211.561785 361.129679 
L 211.967684 361.901272 
L 212.170634 362.158469 
L 212.272109 362.544265 
L 212.373584 362.158469 
L 212.475059 362.544265 
L 212.576533 362.415667 
L 212.779483 363.315858 
L 212.880958 362.672864 
L 212.982433 363.444457 
L 213.083908 363.315858 
L 213.185383 363.444457 
L 213.388332 364.087451 
L 213.489807 364.344648 
L 213.591282 364.216049 
L 213.997181 364.987642 
L 214.60603 366.27363 
L 214.80898 365.630636 
L 215.01193 366.27363 
L 215.113404 366.402228 
L 215.316354 366.852324 
L 215.925203 367.752515 
L 216.534052 369.102802 
L 217.142901 369.36 
L 217.244376 369.231401 
L 217.345851 369.36 
L 217.548801 369.231401 
L 217.75175 369.231401 
L 217.9547 369.36 
L 218.056175 369.231401 
L 218.15765 369.36 
L 218.360599 369.231401 
L 218.563549 369.231401 
L 218.766499 369.36 
L 218.867974 369.231401 
L 218.969448 369.36 
L 219.172398 369.231401 
L 219.375348 369.231401 
L 219.578297 369.36 
L 219.679772 369.231401 
L 219.781247 369.36 
L 219.984197 369.231401 
L 220.187147 369.231401 
L 220.390096 369.36 
L 220.491571 369.231401 
L 220.593046 369.36 
L 220.795996 369.231401 
L 220.998945 369.231401 
L 221.201895 369.36 
L 221.30337 369.231401 
L 221.404845 369.36 
L 221.607794 369.231401 
L 221.810744 369.231401 
L 222.013694 369.36 
L 222.115168 369.231401 
L 222.216643 369.36 
L 222.419593 369.231401 
L 222.622543 369.231401 
L 222.825492 369.36 
L 222.926967 369.231401 
L 223.028442 369.36 
L 223.231392 369.231401 
L 223.434341 369.231401 
L 223.637291 369.36 
L 223.738766 369.231401 
L 223.840241 369.36 
L 224.04319 369.231401 
L 224.24614 369.231401 
L 224.44909 369.36 
L 224.550565 369.231401 
L 224.652039 369.36 
L 224.854989 369.231401 
L 225.057939 369.231401 
L 225.260889 369.36 
L 225.362363 369.231401 
L 225.463838 369.36 
L 225.666788 369.231401 
L 225.869738 369.231401 
L 226.072687 369.36 
L 226.174162 369.231401 
L 226.275637 369.36 
L 226.478587 369.231401 
L 226.681536 369.231401 
L 226.884486 369.36 
L 226.985961 369.231401 
L 227.087436 369.36 
L 227.290385 369.231401 
L 227.493335 369.231401 
L 227.696285 369.36 
L 227.79776 369.231401 
L 227.899234 369.36 
L 228.102184 369.231401 
L 228.305134 369.231401 
L 228.508083 369.36 
L 228.609558 369.231401 
L 228.711033 369.36 
L 228.913983 369.231401 
L 229.116932 369.231401 
L 229.319882 369.36 
L 229.421357 369.231401 
L 229.522832 369.36 
L 229.725782 369.231401 
L 229.928731 369.231401 
L 230.131681 369.36 
L 230.233156 369.231401 
L 230.334631 369.36 
L 230.53758 369.231401 
L 230.74053 369.231401 
L 230.94348 369.36 
L 231.044954 369.231401 
L 231.146429 369.36 
L 231.349379 369.231401 
L 231.552329 369.231401 
L 231.755278 369.36 
L 231.856753 369.231401 
L 231.958228 369.36 
L 232.161178 369.231401 
L 232.364127 369.231401 
L 232.567077 369.36 
L 232.668552 369.231401 
L 232.770027 369.36 
L 232.972976 369.231401 
L 233.175926 369.231401 
L 233.378876 369.36 
L 233.480351 369.231401 
L 233.581825 369.36 
L 233.784775 369.231401 
L 233.987725 369.231401 
L 234.190674 369.36 
L 234.292149 369.231401 
L 234.393624 369.36 
L 234.596574 369.231401 
L 234.799524 369.231401 
L 235.002473 369.36 
L 235.103948 369.231401 
L 235.205423 369.36 
L 235.408373 369.231401 
L 235.611322 369.231401 
L 235.814272 369.36 
L 235.915747 369.231401 
L 236.017222 369.36 
L 236.220171 369.231401 
L 236.423121 369.231401 
L 236.626071 369.36 
L 236.727546 369.231401 
L 236.82902 369.36 
L 237.03197 369.231401 
L 237.23492 369.231401 
L 237.437869 369.36 
L 237.539344 369.231401 
L 237.640819 369.36 
L 237.843769 369.231401 
L 238.046718 369.231401 
L 238.249668 369.36 
L 238.351143 369.231401 
L 238.452618 369.36 
L 238.655567 369.231401 
L 238.858517 369.231401 
L 239.061467 369.36 
L 239.162942 369.231401 
L 239.264417 369.36 
L 239.467366 369.231401 
L 239.670316 369.231401 
L 239.873266 369.36 
L 239.97474 369.231401 
L 240.076215 369.36 
L 240.279165 369.231401 
L 240.482115 369.231401 
L 240.685064 369.36 
L 240.786539 369.231401 
L 240.888014 369.36 
L 241.090964 369.231401 
L 241.293913 369.231401 
L 241.496863 369.36 
L 241.598338 369.231401 
L 241.699813 369.36 
L 241.902762 369.231401 
L 242.105712 369.231401 
L 242.308662 369.36 
L 242.410137 369.231401 
L 242.511611 369.36 
L 242.714561 369.231401 
L 242.917511 369.231401 
L 243.12046 369.36 
L 243.221935 369.231401 
L 243.32341 369.36 
L 243.52636 369.231401 
L 243.729309 369.231401 
L 243.932259 369.36 
L 244.033734 369.231401 
L 244.135209 369.36 
L 244.338159 369.231401 
L 244.541108 369.231401 
L 244.744058 369.36 
L 244.845533 369.231401 
L 244.947008 369.36 
L 245.149957 369.231401 
L 245.352907 369.231401 
L 245.555857 369.36 
L 245.657331 369.231401 
L 245.758806 369.36 
L 245.961756 369.231401 
L 246.164706 369.231401 
L 246.367655 369.36 
L 246.46913 369.231401 
L 246.570605 369.36 
L 246.773555 369.231401 
L 246.976504 369.231401 
L 247.179454 369.36 
L 247.280929 369.231401 
L 247.382404 369.36 
L 247.585353 369.231401 
L 247.788303 369.231401 
L 247.991253 369.36 
L 248.092728 369.231401 
L 248.194202 369.36 
L 248.397152 369.231401 
L 248.600102 369.231401 
L 248.803052 369.36 
L 248.904526 369.231401 
L 249.006001 369.36 
L 249.208951 369.231401 
L 249.411901 369.231401 
L 249.61485 369.36 
L 249.716325 369.231401 
L 249.8178 369.36 
L 250.02075 369.231401 
L 250.223699 369.231401 
L 250.426649 369.36 
L 250.528124 369.231401 
L 250.629599 369.36 
L 250.832548 369.231401 
L 251.035498 369.231401 
L 251.238448 369.36 
L 251.339923 369.231401 
L 251.441397 369.36 
L 251.644347 369.231401 
L 251.847297 369.231401 
L 252.050246 369.36 
L 252.151721 369.231401 
L 252.253196 369.36 
L 252.456146 369.231401 
L 252.659095 369.231401 
L 252.862045 369.36 
L 252.96352 369.231401 
L 253.064995 369.36 
L 253.267944 369.231401 
L 253.470894 369.231401 
L 253.673844 369.36 
L 253.775319 369.231401 
L 253.876794 369.36 
L 254.079743 369.231401 
L 254.282693 369.231401 
L 254.485643 369.36 
L 254.587117 369.231401 
L 254.688592 369.36 
L 254.891542 369.231401 
L 255.094492 369.231401 
L 255.297441 369.36 
L 255.398916 369.231401 
L 255.500391 369.36 
L 255.703341 369.231401 
L 255.90629 369.231401 
L 256.10924 369.36 
L 256.210715 369.231401 
L 256.31219 369.36 
L 256.515139 369.231401 
L 256.718089 369.231401 
L 256.921039 369.36 
L 257.022514 369.231401 
L 257.123988 369.36 
L 257.326938 369.231401 
L 257.529888 369.231401 
L 257.732837 369.36 
L 257.834312 369.231401 
L 257.935787 369.36 
L 258.138737 369.231401 
L 258.341687 369.231401 
L 258.544636 369.36 
L 258.646111 369.231401 
L 258.747586 369.36 
L 258.950536 369.231401 
L 259.153485 369.231401 
L 259.356435 369.36 
L 259.45791 369.231401 
L 259.559385 369.36 
L 259.762334 369.231401 
L 259.965284 369.231401 
L 260.168234 369.36 
L 260.269708 369.231401 
L 260.371183 369.36 
L 260.574133 369.231401 
L 260.777083 369.231401 
L 260.980032 369.36 
L 261.081507 369.231401 
L 261.182982 369.36 
L 261.385932 369.231401 
L 261.588881 369.231401 
L 261.791831 369.36 
L 261.893306 369.231401 
L 261.994781 369.36 
L 262.19773 369.231401 
L 262.40068 369.231401 
L 262.60363 369.36 
L 262.705105 369.231401 
L 262.806579 369.36 
L 263.009529 369.231401 
L 263.212479 369.231401 
L 263.415429 369.36 
L 263.516903 369.231401 
L 263.618378 369.36 
L 263.821328 369.231401 
L 264.024278 369.231401 
L 264.227227 369.36 
L 264.328702 369.231401 
L 264.430177 369.36 
L 264.633127 369.231401 
L 264.836076 369.231401 
L 265.039026 369.36 
L 265.140501 369.231401 
L 265.241976 369.36 
L 265.444925 369.231401 
L 265.647875 369.231401 
L 265.850825 369.36 
L 265.9523 369.231401 
L 266.053774 369.36 
L 266.256724 369.231401 
L 266.459674 369.231401 
L 266.662623 369.36 
L 266.764098 369.231401 
L 266.865573 369.36 
L 267.068523 369.231401 
L 267.271472 369.231401 
L 267.474422 369.36 
L 267.575897 369.231401 
L 267.677372 369.36 
L 267.880322 369.231401 
L 268.083271 369.231401 
L 268.286221 369.36 
L 268.387696 369.231401 
L 268.489171 369.36 
L 268.69212 369.231401 
L 268.89507 369.231401 
L 269.09802 369.36 
L 269.199494 369.231401 
L 269.300969 369.36 
L 269.503919 369.231401 
L 269.706869 369.231401 
L 269.909818 369.36 
L 270.011293 369.231401 
L 270.112768 369.36 
L 270.315718 369.231401 
L 270.518667 369.231401 
L 270.721617 369.36 
L 270.823092 369.231401 
L 270.924567 369.36 
L 271.127516 369.231401 
L 271.330466 369.231401 
L 271.533416 369.36 
L 271.634891 369.231401 
L 271.736365 369.36 
L 271.939315 369.231401 
L 272.142265 369.231401 
L 272.345214 369.36 
L 272.446689 369.231401 
L 272.548164 369.36 
L 272.751114 369.231401 
L 272.954064 369.231401 
L 273.157013 369.36 
L 273.258488 369.231401 
L 273.359963 369.36 
L 273.562913 369.231401 
L 273.765862 369.231401 
L 273.968812 369.36 
L 274.070287 369.231401 
L 274.171762 369.36 
L 274.374711 369.231401 
L 274.577661 369.231401 
L 274.780611 369.36 
L 274.882086 369.231401 
L 274.98356 369.36 
L 275.18651 369.231401 
L 275.38946 369.231401 
L 275.592409 369.36 
L 275.693884 369.231401 
L 275.795359 369.36 
L 275.998309 369.231401 
L 276.201258 369.231401 
L 276.404208 369.36 
L 276.505683 369.231401 
L 276.607158 369.36 
L 276.810107 369.231401 
L 277.013057 369.231401 
L 277.216007 369.36 
L 277.317482 369.231401 
L 277.418957 369.36 
L 277.621906 369.231401 
L 277.824856 369.231401 
L 278.027806 369.36 
L 278.12928 369.231401 
L 278.230755 369.36 
L 278.433705 369.231401 
L 278.636655 369.231401 
L 278.839604 369.36 
L 278.941079 369.231401 
L 279.042554 369.36 
L 279.245504 369.231401 
L 279.448453 369.231401 
L 279.651403 369.36 
L 279.752878 369.231401 
L 279.854353 369.36 
L 280.057302 369.231401 
L 280.260252 369.231401 
L 280.463202 369.36 
L 280.564677 369.231401 
L 280.666151 369.36 
L 280.869101 369.231401 
L 281.072051 369.231401 
L 281.275 369.36 
L 281.376475 369.231401 
L 281.47795 369.36 
L 281.6809 369.231401 
L 281.883849 369.231401 
L 282.086799 369.36 
L 282.188274 369.231401 
L 282.289749 369.36 
L 282.492699 369.231401 
L 282.695648 369.231401 
L 282.898598 369.36 
L 283.000073 369.231401 
L 283.101548 369.36 
L 283.304497 369.231401 
L 283.507447 369.231401 
L 283.710397 369.36 
L 283.811871 369.231401 
L 283.913346 369.36 
L 284.116296 369.231401 
L 284.319246 369.231401 
L 284.522195 369.36 
L 284.62367 369.231401 
L 284.725145 369.36 
L 284.928095 369.231401 
L 285.131044 369.231401 
L 285.333994 369.36 
L 285.435469 369.231401 
L 285.536944 369.36 
L 285.739893 369.231401 
L 285.942843 369.231401 
L 286.145793 369.36 
L 286.247268 369.231401 
L 286.348742 369.36 
L 286.551692 369.231401 
L 286.754642 369.231401 
L 286.957592 369.36 
L 287.059066 369.231401 
L 287.160541 369.36 
L 287.363491 369.231401 
L 287.566441 369.231401 
L 287.76939 369.36 
L 287.870865 369.231401 
L 287.97234 369.36 
L 288.17529 369.231401 
L 288.378239 369.231401 
L 288.581189 369.36 
L 288.682664 369.231401 
L 288.784139 369.36 
L 288.987088 369.231401 
L 289.190038 369.231401 
L 289.392988 369.36 
L 289.494463 369.231401 
L 289.595937 369.36 
L 289.798887 369.231401 
L 290.001837 369.231401 
L 290.204786 369.36 
L 290.306261 369.231401 
L 290.407736 369.36 
L 290.610686 369.231401 
L 290.813635 369.231401 
L 291.016585 369.36 
L 291.11806 369.231401 
L 291.219535 369.36 
L 291.422484 369.231401 
L 291.625434 369.231401 
L 291.828384 369.36 
L 291.929859 369.231401 
L 292.031334 369.36 
L 292.234283 369.231401 
L 292.437233 369.231401 
L 292.640183 369.36 
L 292.741657 369.231401 
L 292.843132 369.36 
L 293.046082 369.231401 
L 293.249032 369.231401 
L 293.451981 369.36 
L 293.553456 369.231401 
L 293.654931 369.36 
L 293.857881 369.231401 
L 294.06083 369.231401 
L 294.26378 369.36 
L 294.365255 369.231401 
L 294.46673 369.36 
L 294.669679 369.231401 
L 294.872629 369.231401 
L 295.075579 369.36 
L 295.177054 369.231401 
L 295.278528 369.36 
L 295.481478 369.231401 
L 295.684428 369.231401 
L 295.887377 369.36 
L 295.988852 369.231401 
L 296.090327 369.36 
L 296.293277 369.231401 
L 296.496227 369.231401 
L 296.699176 369.36 
L 296.800651 369.231401 
L 296.902126 369.36 
L 297.105076 369.231401 
L 297.308025 369.231401 
L 297.510975 369.36 
L 297.61245 369.231401 
L 297.713925 369.36 
L 297.916874 369.231401 
L 298.119824 369.231401 
L 298.322774 369.36 
L 298.424248 369.231401 
L 298.525723 369.36 
L 298.728673 369.231401 
L 298.931623 369.231401 
L 299.134572 369.36 
L 299.236047 369.231401 
L 299.337522 369.36 
L 299.540472 369.231401 
L 299.743421 369.231401 
L 299.946371 369.36 
L 300.047846 369.231401 
L 300.149321 369.36 
L 300.35227 369.231401 
L 300.55522 369.231401 
L 300.75817 369.36 
L 300.859645 369.231401 
L 300.961119 369.36 
L 301.164069 369.231401 
L 301.367019 369.231401 
L 301.569969 369.36 
L 301.671443 369.231401 
L 301.772918 369.36 
L 301.975868 369.231401 
L 302.178818 369.231401 
L 302.381767 369.36 
L 302.483242 369.231401 
L 302.584717 369.36 
L 302.787667 369.231401 
L 302.990616 369.231401 
L 303.193566 369.36 
L 303.295041 369.231401 
L 303.396516 369.36 
L 303.599465 369.231401 
L 303.802415 369.231401 
L 304.005365 369.36 
L 304.10684 369.231401 
L 304.208314 369.36 
L 304.411264 369.231401 
L 304.614214 369.231401 
L 304.817163 369.36 
L 304.918638 369.231401 
L 305.020113 369.36 
L 305.223063 369.231401 
L 305.426012 369.231401 
L 305.628962 369.36 
L 305.730437 369.231401 
L 305.831912 369.36 
L 306.034862 369.231401 
L 306.237811 369.231401 
L 306.440761 369.36 
L 306.542236 369.231401 
L 306.643711 369.36 
L 306.84666 369.231401 
L 307.04961 369.231401 
L 307.25256 369.36 
L 307.354034 369.231401 
L 307.455509 369.36 
L 307.658459 369.231401 
L 307.861409 369.231401 
L 308.064358 369.36 
L 308.165833 369.231401 
L 308.267308 369.36 
L 308.470258 369.231401 
L 308.673207 369.231401 
L 308.876157 369.36 
L 308.977632 369.231401 
L 309.079107 369.36 
L 309.282056 369.231401 
L 309.485006 369.231401 
L 309.687956 369.36 
L 309.789431 369.231401 
L 309.890905 369.36 
L 310.093855 369.231401 
L 310.296805 369.231401 
L 310.499754 369.36 
L 310.601229 369.231401 
L 310.702704 369.36 
L 310.905654 369.231401 
L 311.108604 369.231401 
L 311.311553 369.36 
L 311.413028 369.231401 
L 311.514503 369.36 
L 311.717453 369.231401 
L 311.920402 369.231401 
L 312.123352 369.36 
L 312.224827 369.231401 
L 312.326302 369.36 
L 312.529251 369.231401 
L 312.732201 369.231401 
L 312.935151 369.36 
L 313.036626 369.231401 
L 313.1381 369.36 
L 313.34105 369.231401 
L 313.544 369.231401 
L 313.746949 369.36 
L 313.848424 369.231401 
L 313.949899 369.36 
L 314.152849 369.231401 
L 314.355798 369.231401 
L 314.558748 369.36 
L 314.660223 369.231401 
L 314.761698 369.36 
L 314.964647 369.231401 
L 315.167597 369.231401 
L 315.370547 369.36 
L 315.472022 369.231401 
L 315.573497 369.36 
L 315.776446 369.231401 
L 315.979396 369.231401 
L 316.182346 369.36 
L 316.28382 369.231401 
L 316.385295 369.36 
L 316.588245 369.231401 
L 316.791195 369.231401 
L 316.994144 369.36 
L 317.095619 369.231401 
L 317.197094 369.36 
L 317.400044 369.231401 
L 317.602993 369.231401 
L 317.805943 369.36 
L 317.907418 369.231401 
L 318.008893 369.36 
L 318.211842 369.231401 
L 318.414792 369.231401 
L 318.617742 369.36 
L 318.719217 369.231401 
L 318.820691 369.36 
L 319.023641 369.231401 
L 319.226591 369.231401 
L 319.42954 369.36 
L 319.531015 369.231401 
L 319.63249 369.36 
L 319.83544 369.231401 
L 320.038389 369.231401 
L 320.241339 369.36 
L 320.342814 369.231401 
L 320.444289 369.36 
L 320.647239 369.231401 
L 320.850188 369.231401 
L 321.053138 369.36 
L 321.154613 369.231401 
L 321.256088 369.36 
L 321.459037 369.231401 
L 321.661987 369.231401 
L 321.864937 369.36 
L 321.966411 369.231401 
L 322.067886 369.36 
L 322.270836 369.231401 
L 322.473786 369.231401 
L 322.676735 369.36 
L 322.77821 369.231401 
L 322.879685 369.36 
L 323.082635 369.231401 
L 323.285584 369.231401 
L 323.488534 369.36 
L 323.590009 369.231401 
L 323.691484 369.36 
L 323.894433 369.231401 
L 324.097383 369.231401 
L 324.300333 369.36 
L 324.401808 369.231401 
L 324.503282 369.36 
L 324.706232 369.231401 
L 324.909182 369.231401 
L 325.112132 369.36 
L 325.213606 369.231401 
L 325.315081 369.36 
L 325.518031 369.231401 
L 325.720981 369.231401 
L 325.92393 369.36 
L 326.025405 369.231401 
L 326.12688 369.36 
L 326.32983 369.231401 
L 326.532779 369.231401 
L 326.735729 369.36 
L 326.837204 369.231401 
L 326.938679 369.36 
L 327.141628 369.231401 
L 327.344578 369.231401 
L 327.547528 369.36 
L 327.649003 369.231401 
L 327.750477 369.36 
L 327.953427 369.231401 
L 328.156377 369.231401 
L 328.359326 369.36 
L 328.460801 369.231401 
L 328.562276 369.36 
L 328.765226 369.231401 
L 328.968175 369.231401 
L 329.171125 369.36 
L 329.2726 369.231401 
L 329.374075 369.36 
L 329.577024 369.231401 
L 329.779974 369.231401 
L 329.982924 369.36 
L 330.084399 369.231401 
L 330.185874 369.36 
L 330.388823 369.231401 
L 330.591773 369.231401 
L 330.794723 369.36 
L 330.896197 369.231401 
L 330.997672 369.36 
L 331.200622 369.231401 
L 331.403572 369.231401 
L 331.606521 369.36 
L 331.707996 369.231401 
L 331.809471 369.36 
L 332.012421 369.231401 
L 332.21537 369.231401 
L 332.41832 369.36 
L 332.519795 369.231401 
L 332.62127 369.36 
L 332.824219 369.231401 
L 333.027169 369.231401 
L 333.230119 369.36 
L 333.331594 369.231401 
L 333.433068 369.36 
L 333.636018 369.231401 
L 333.838968 369.231401 
L 334.041917 369.36 
L 334.143392 369.231401 
L 334.244867 369.36 
L 334.447817 369.231401 
L 334.650767 369.231401 
L 334.853716 369.36 
L 334.955191 369.231401 
L 335.056666 369.36 
L 335.259616 369.231401 
L 335.462565 369.231401 
L 335.665515 369.36 
L 335.76699 369.231401 
L 335.868465 369.36 
L 336.071414 369.231401 
L 336.274364 369.231401 
L 336.477314 369.36 
L 336.578788 369.231401 
L 336.680263 369.36 
L 336.883213 369.231401 
L 337.086163 369.231401 
L 337.289112 369.36 
L 337.390587 369.231401 
L 337.492062 369.36 
L 337.695012 369.231401 
L 337.897961 369.231401 
L 338.100911 369.36 
L 338.202386 369.231401 
L 338.303861 369.36 
L 338.50681 369.231401 
L 338.70976 369.231401 
L 338.91271 369.36 
L 339.014185 369.231401 
L 339.115659 369.36 
L 339.318609 369.231401 
L 339.521559 369.231401 
L 339.724509 369.36 
L 339.825983 369.231401 
L 339.927458 369.36 
L 340.130408 369.231401 
L 340.333358 369.231401 
L 340.536307 369.36 
L 340.637782 369.231401 
L 340.739257 369.36 
L 340.942207 369.231401 
L 341.145156 369.231401 
L 341.348106 369.36 
L 341.449581 369.231401 
L 341.551056 369.36 
L 341.754005 369.231401 
L 341.956955 369.231401 
L 342.159905 369.36 
L 342.26138 369.231401 
L 342.362854 369.36 
L 342.565804 369.231401 
L 342.768754 369.231401 
L 342.971703 369.36 
L 343.073178 369.231401 
L 343.174653 369.36 
L 343.377603 369.231401 
L 343.580552 369.231401 
L 343.783502 369.36 
L 343.884977 369.231401 
L 343.986452 369.36 
L 344.189402 369.231401 
L 344.392351 369.231401 
L 344.595301 369.36 
L 344.696776 369.231401 
L 344.798251 369.36 
L 345.0012 369.231401 
L 345.20415 369.231401 
L 345.4071 369.36 
L 345.508574 369.231401 
L 345.610049 369.36 
L 345.812999 369.231401 
L 346.015949 369.231401 
L 346.218898 369.36 
L 346.320373 369.231401 
L 346.421848 369.36 
L 346.624798 369.231401 
L 346.827747 369.231401 
L 347.030697 369.36 
L 347.132172 369.231401 
L 347.233647 369.36 
L 347.436596 369.231401 
L 347.639546 369.231401 
L 347.842496 369.36 
L 347.943971 369.231401 
L 348.045445 369.36 
L 348.248395 369.231401 
L 348.451345 369.231401 
L 348.654294 369.36 
L 348.755769 369.231401 
L 348.857244 369.36 
L 349.060194 369.231401 
L 349.263144 369.231401 
L 349.466093 369.36 
L 349.567568 369.231401 
L 349.669043 369.36 
L 349.871993 369.231401 
L 350.074942 369.231401 
L 350.277892 369.36 
L 350.379367 369.231401 
L 350.480842 369.36 
L 350.683791 369.231401 
L 350.886741 369.231401 
L 351.089691 369.36 
L 351.191166 369.231401 
L 351.29264 369.36 
L 351.49559 369.231401 
L 351.69854 369.231401 
L 351.901489 369.36 
L 352.002964 369.231401 
L 352.104439 369.36 
L 352.307389 369.231401 
L 352.510338 369.231401 
L 352.713288 369.36 
L 352.814763 369.231401 
L 352.916238 369.36 
L 353.119187 369.231401 
L 353.322137 369.231401 
L 353.525087 369.36 
L 353.626562 369.231401 
L 353.728037 369.36 
L 353.930986 369.231401 
L 354.133936 369.231401 
L 354.336886 369.36 
L 354.43836 369.231401 
L 354.539835 369.36 
L 354.742785 369.231401 
L 354.945735 369.231401 
L 355.148684 369.36 
L 355.250159 369.231401 
L 355.351634 369.36 
L 355.554584 369.231401 
L 355.757533 369.231401 
L 355.960483 369.36 
L 356.061958 369.231401 
L 356.163433 369.36 
L 356.366382 369.231401 
L 356.569332 369.231401 
L 356.772282 369.36 
L 356.873757 369.231401 
L 356.975231 369.36 
L 357.178181 369.231401 
L 357.381131 369.231401 
L 357.58408 369.36 
L 357.685555 369.231401 
L 357.78703 369.36 
L 357.98998 369.231401 
L 358.192929 369.231401 
L 358.395879 369.36 
L 358.497354 369.231401 
L 358.598829 369.36 
L 358.801779 369.231401 
L 359.004728 369.231401 
L 359.207678 369.36 
L 359.309153 369.231401 
L 359.410628 369.36 
L 359.613577 369.231401 
L 359.816527 369.231401 
L 360.019477 369.36 
L 360.120951 369.231401 
L 360.222426 369.36 
L 360.425376 369.231401 
L 360.628326 369.231401 
L 360.831275 369.36 
L 360.93275 369.231401 
L 361.034225 369.36 
L 361.237175 369.231401 
L 361.440124 369.231401 
L 361.643074 369.36 
L 361.744549 369.231401 
L 361.846024 369.36 
L 362.048973 369.231401 
L 362.251923 369.231401 
L 362.454873 369.36 
L 362.556348 369.231401 
L 362.657822 369.36 
L 362.860772 369.231401 
L 363.063722 369.231401 
L 363.266672 369.36 
L 363.368146 369.231401 
L 363.469621 369.36 
L 363.672571 369.231401 
L 363.875521 369.231401 
L 364.07847 369.36 
L 364.179945 369.231401 
L 364.28142 369.36 
L 364.48437 369.231401 
L 364.687319 369.231401 
L 364.890269 369.36 
L 364.991744 369.231401 
L 365.093219 369.36 
L 365.296168 369.231401 
L 365.499118 369.231401 
L 365.702068 369.36 
L 365.803543 369.231401 
L 365.905017 369.36 
L 366.107967 369.231401 
L 366.310917 369.231401 
L 366.513866 369.36 
L 366.615341 369.231401 
L 366.716816 369.36 
L 366.919766 369.231401 
L 367.122715 369.231401 
L 367.325665 369.36 
L 367.42714 369.231401 
L 367.528615 369.36 
L 367.731564 369.231401 
L 367.934514 369.231401 
L 368.137464 369.36 
L 368.238939 369.231401 
L 368.340414 369.36 
L 368.543363 369.231401 
L 368.746313 369.231401 
L 368.949263 369.36 
L 369.050737 369.231401 
L 369.152212 369.36 
L 369.355162 369.231401 
L 369.558112 369.231401 
L 369.761061 369.36 
L 369.862536 369.231401 
L 369.964011 369.36 
L 370.166961 369.231401 
L 370.36991 369.231401 
L 370.57286 369.36 
L 370.674335 369.231401 
L 370.77581 369.36 
L 370.978759 369.231401 
L 371.181709 369.231401 
L 371.384659 369.36 
L 371.486134 369.231401 
L 371.587608 369.36 
L 371.790558 369.231401 
L 371.993508 369.231401 
L 372.196457 369.36 
L 372.297932 369.231401 
L 372.399407 369.36 
L 372.602357 369.231401 
L 372.805307 369.231401 
L 373.008256 369.36 
L 373.109731 369.231401 
L 373.211206 369.36 
L 373.414156 369.231401 
L 373.617105 369.231401 
L 373.820055 369.36 
L 373.92153 369.231401 
L 374.023005 369.36 
L 374.225954 369.231401 
L 374.428904 369.231401 
L 374.631854 369.36 
L 374.733328 369.231401 
L 374.834803 369.36 
L 375.037753 369.231401 
L 375.240703 369.231401 
L 375.443652 369.36 
L 375.545127 369.231401 
L 375.646602 369.36 
L 375.849552 369.231401 
L 376.052501 369.231401 
L 376.255451 369.36 
L 376.356926 369.231401 
L 376.458401 369.36 
L 376.66135 369.231401 
L 376.8643 369.231401 
L 377.06725 369.36 
L 377.168725 369.231401 
L 377.270199 369.36 
L 377.473149 369.231401 
L 377.676099 369.231401 
L 377.879049 369.36 
L 377.980523 369.231401 
L 378.081998 369.36 
L 378.284948 369.231401 
L 378.487898 369.231401 
L 378.690847 369.36 
L 378.792322 369.231401 
L 378.893797 369.36 
L 379.096747 369.231401 
L 379.299696 369.231401 
L 379.502646 369.36 
L 379.604121 369.231401 
L 379.705596 369.36 
L 379.908545 369.231401 
L 380.111495 369.231401 
L 380.314445 369.36 
L 380.41592 369.231401 
L 380.517394 369.36 
L 380.720344 369.231401 
L 380.923294 369.231401 
L 381.126243 369.36 
L 381.227718 369.231401 
L 381.329193 369.36 
L 381.532143 369.231401 
L 381.735092 369.231401 
L 381.938042 369.36 
L 382.039517 369.231401 
L 382.140992 369.36 
L 382.343942 369.231401 
L 382.546891 369.231401 
L 382.749841 369.36 
L 382.851316 369.231401 
L 382.952791 369.36 
L 383.15574 369.231401 
L 383.35869 369.231401 
L 383.56164 369.36 
L 383.663114 369.231401 
L 383.764589 369.36 
L 383.967539 369.231401 
L 384.170489 369.231401 
L 384.373438 369.36 
L 384.474913 369.231401 
L 384.576388 369.36 
L 384.779338 369.231401 
L 384.982287 369.231401 
L 385.185237 369.36 
L 385.286712 369.231401 
L 385.388187 369.36 
L 385.591136 369.231401 
L 385.794086 369.231401 
L 385.997036 369.36 
L 386.098511 369.231401 
L 386.199985 369.36 
L 386.402935 369.231401 
L 386.605885 369.231401 
L 386.808834 369.36 
L 386.910309 369.231401 
L 387.011784 369.36 
L 387.214734 369.231401 
L 387.417684 369.231401 
L 387.620633 369.36 
L 387.722108 369.231401 
L 387.823583 369.36 
L 388.026533 369.231401 
L 388.229482 369.231401 
L 388.432432 369.36 
L 388.533907 369.231401 
L 388.635382 369.36 
L 388.838331 369.231401 
L 389.041281 369.231401 
L 389.244231 369.36 
L 389.345706 369.231401 
L 389.44718 369.36 
L 389.65013 369.231401 
L 389.85308 369.231401 
L 390.056029 369.36 
L 390.157504 369.231401 
L 390.258979 369.36 
L 390.461929 369.231401 
L 390.664878 369.231401 
L 390.867828 369.36 
L 390.969303 369.231401 
L 391.070778 369.36 
L 391.273727 369.231401 
L 391.476677 369.231401 
L 391.679627 369.36 
L 391.781102 369.231401 
L 391.882577 369.36 
L 392.085526 369.231401 
L 392.288476 369.231401 
L 392.491426 369.36 
L 392.5929 369.231401 
L 392.694375 369.36 
L 392.897325 369.231401 
L 393.100275 369.231401 
L 393.303224 369.36 
L 393.404699 369.231401 
L 393.506174 369.36 
L 393.709124 369.231401 
L 393.912073 369.231401 
L 394.115023 369.36 
L 394.216498 369.231401 
L 394.317973 369.36 
L 394.520922 369.231401 
L 394.723872 369.231401 
L 394.926822 369.36 
L 395.028297 369.231401 
L 395.129771 369.36 
L 395.332721 369.231401 
L 395.535671 369.231401 
L 395.73862 369.36 
L 395.840095 369.231401 
L 395.94157 369.36 
L 396.14452 369.231401 
L 396.347469 369.231401 
L 396.550419 369.36 
L 396.651894 369.231401 
L 396.753369 369.36 
L 396.956319 369.231401 
L 397.159268 369.231401 
L 397.362218 369.36 
L 397.463693 369.231401 
L 397.565168 369.36 
L 397.768117 369.231401 
L 397.971067 369.231401 
L 398.174017 369.36 
L 398.275491 369.231401 
L 398.376966 369.36 
L 398.579916 369.231401 
L 398.782866 369.231401 
L 398.985815 369.36 
L 399.08729 369.231401 
L 399.188765 369.36 
L 399.391715 369.231401 
L 399.594664 369.231401 
L 399.797614 369.36 
L 399.899089 369.231401 
L 400.000564 369.36 
L 400.203513 369.231401 
L 400.406463 369.231401 
L 400.609413 369.36 
L 400.710888 369.231401 
L 400.812362 369.36 
L 401.015312 369.231401 
L 401.218262 369.231401 
L 401.421212 369.36 
L 401.522686 369.231401 
L 401.624161 369.36 
L 401.827111 369.231401 
L 402.030061 369.231401 
L 402.23301 369.36 
L 402.334485 369.231401 
L 402.43596 369.36 
L 402.63891 369.231401 
L 402.841859 369.231401 
L 403.044809 369.36 
L 403.146284 369.231401 
L 403.247759 369.36 
L 403.450708 369.231401 
L 403.653658 369.231401 
L 403.856608 369.36 
L 403.958083 369.231401 
L 404.059557 369.36 
L 404.262507 369.231401 
L 404.465457 369.231401 
L 404.668406 369.36 
L 404.769881 369.231401 
L 404.871356 369.36 
L 405.074306 369.231401 
L 405.277255 369.231401 
L 405.480205 369.36 
L 405.58168 369.231401 
L 405.683155 369.36 
L 405.886104 369.231401 
L 406.089054 369.231401 
L 406.292004 369.36 
L 406.393479 369.231401 
L 406.494954 369.36 
L 406.697903 369.231401 
L 406.900853 369.231401 
L 407.103803 369.36 
L 407.205277 369.231401 
L 407.306752 369.36 
L 407.509702 369.231401 
L 407.712652 369.231401 
L 407.915601 369.36 
L 408.017076 369.231401 
L 408.118551 369.36 
L 408.321501 369.231401 
L 408.52445 369.231401 
L 408.7274 369.36 
L 408.828875 369.231401 
L 408.93035 369.36 
L 409.133299 369.231401 
L 409.336249 369.231401 
L 409.539199 369.36 
L 409.640674 369.231401 
L 409.742148 369.36 
L 409.945098 369.231401 
L 410.148048 369.231401 
L 410.350997 369.36 
L 410.452472 369.231401 
L 410.553947 369.36 
L 410.756897 369.231401 
L 410.959847 369.231401 
L 411.162796 369.36 
L 411.264271 369.231401 
L 411.365746 369.36 
L 411.568696 369.231401 
L 411.771645 369.231401 
L 411.974595 369.36 
L 412.07607 369.231401 
L 412.177545 369.36 
L 412.380494 369.231401 
L 412.583444 369.231401 
L 412.786394 369.36 
L 412.887868 369.231401 
L 412.989343 369.36 
L 413.192293 369.231401 
L 413.395243 369.231401 
L 413.598192 369.36 
L 413.699667 369.231401 
L 413.801142 369.36 
L 414.004092 369.231401 
L 414.207041 369.231401 
L 414.409991 369.36 
L 414.511466 369.231401 
L 414.612941 369.36 
L 414.81589 369.231401 
L 415.01884 369.231401 
L 415.22179 369.36 
L 415.323265 369.231401 
L 415.424739 369.36 
L 415.627689 369.231401 
L 415.830639 369.231401 
L 416.033589 369.36 
L 416.135063 369.231401 
L 416.236538 369.36 
L 416.439488 369.231401 
L 416.642438 369.231401 
L 416.845387 369.36 
L 416.946862 369.231401 
L 417.048337 369.36 
L 417.251287 369.231401 
L 417.454236 369.231401 
L 417.657186 369.36 
L 417.758661 369.231401 
L 417.860136 369.36 
L 418.063085 369.231401 
L 418.266035 369.231401 
L 418.468985 369.36 
L 418.57046 369.231401 
L 418.671934 369.36 
L 418.874884 369.231401 
L 419.077834 369.231401 
L 419.280783 369.36 
L 419.382258 369.231401 
L 419.483733 369.36 
L 419.686683 369.231401 
L 419.889632 369.231401 
L 420.092582 369.36 
L 420.194057 369.231401 
L 420.295532 369.36 
L 420.498482 369.231401 
L 420.701431 369.231401 
L 420.904381 369.36 
L 421.005856 369.231401 
L 421.107331 369.36 
L 421.31028 369.231401 
L 421.51323 369.231401 
L 421.71618 369.36 
L 421.817654 369.231401 
L 421.919129 369.36 
L 422.122079 369.231401 
L 422.325029 369.231401 
L 422.527978 369.36 
L 422.629453 369.231401 
L 422.730928 369.36 
L 422.933878 369.231401 
L 423.136827 369.231401 
L 423.339777 369.36 
L 423.441252 369.231401 
L 423.542727 369.36 
L 423.745676 369.231401 
L 423.948626 369.231401 
L 424.151576 369.36 
L 424.253051 369.231401 
L 424.354525 369.36 
L 424.557475 369.231401 
L 424.760425 369.231401 
L 424.963374 369.36 
L 425.064849 369.231401 
L 425.166324 369.36 
L 425.369274 369.231401 
L 425.572224 369.231401 
L 425.775173 369.36 
L 425.876648 369.231401 
L 425.978123 369.36 
L 426.181073 369.231401 
L 426.384022 369.231401 
L 426.586972 369.36 
L 426.688447 369.231401 
L 426.789922 369.36 
L 426.992871 369.231401 
L 427.195821 369.231401 
L 427.398771 369.36 
L 427.500246 369.231401 
L 427.60172 369.36 
L 427.80467 369.231401 
L 428.00762 369.231401 
L 428.210569 369.36 
L 428.312044 369.231401 
L 428.413519 369.36 
L 428.616469 369.231401 
L 428.819418 369.231401 
L 429.022368 369.36 
L 429.123843 369.231401 
L 429.225318 369.36 
L 429.428267 369.231401 
L 429.631217 369.231401 
L 429.834167 369.36 
L 429.935642 369.231401 
L 430.037117 369.36 
L 430.240066 369.231401 
L 430.443016 369.231401 
L 430.645966 369.36 
L 430.74744 369.231401 
L 430.848915 369.36 
L 431.051865 369.231401 
L 431.254815 369.231401 
L 431.457764 369.36 
L 431.559239 369.231401 
L 431.660714 369.36 
L 431.863664 369.231401 
L 432.066613 369.231401 
L 432.269563 369.36 
L 432.371038 369.231401 
L 432.472513 369.36 
L 432.675462 369.231401 
L 432.878412 369.231401 
L 433.081362 369.36 
L 433.182837 369.231401 
L 433.284311 369.36 
L 433.487261 369.231401 
L 433.690211 369.231401 
L 433.89316 369.36 
L 433.994635 369.231401 
L 434.09611 369.36 
L 434.29906 369.231401 
L 434.502009 369.231401 
L 434.704959 369.36 
L 434.806434 369.231401 
L 434.907909 369.36 
L 435.110859 369.231401 
L 435.313808 369.231401 
L 435.516758 369.36 
L 435.618233 369.231401 
L 435.719708 369.36 
L 435.922657 369.231401 
L 436.125607 369.231401 
L 436.328557 369.36 
L 436.430031 369.231401 
L 436.531506 369.36 
L 436.734456 369.231401 
L 436.937406 369.231401 
L 437.140355 369.36 
L 437.24183 369.231401 
L 437.343305 369.36 
L 437.546255 369.231401 
L 437.749204 369.231401 
L 437.952154 369.36 
L 438.053629 369.231401 
L 438.155104 369.36 
L 438.358053 369.231401 
L 438.561003 369.231401 
L 438.763953 369.36 
L 438.865428 369.231401 
L 438.966902 369.36 
L 439.169852 369.231401 
L 439.372802 369.231401 
L 439.575752 369.36 
L 439.677226 369.231401 
L 439.778701 369.36 
L 439.981651 369.231401 
L 440.184601 369.231401 
L 440.38755 369.36 
L 440.489025 369.231401 
L 440.5905 369.36 
L 440.79345 369.231401 
L 440.996399 369.231401 
L 441.199349 369.36 
L 441.300824 369.231401 
L 441.402299 369.36 
L 441.605248 369.231401 
L 441.808198 369.231401 
L 442.011148 369.36 
L 442.112623 369.231401 
L 442.214097 369.36 
L 442.417047 369.231401 
L 442.619997 369.231401 
L 442.822946 369.36 
L 442.924421 369.231401 
L 443.025896 369.36 
L 443.228846 369.231401 
L 443.431795 369.231401 
L 443.634745 369.36 
L 443.73622 369.231401 
L 443.837695 369.36 
L 444.040644 369.231401 
L 444.243594 369.231401 
L 444.446544 369.36 
L 444.548019 369.231401 
L 444.649494 369.36 
L 444.852443 369.231401 
L 445.055393 369.231401 
L 445.258343 369.36 
L 445.359817 369.231401 
L 445.461292 369.36 
L 445.664242 369.231401 
L 445.867192 369.231401 
L 446.070141 369.36 
L 446.171616 369.231401 
L 446.273091 369.36 
L 446.476041 369.231401 
L 446.67899 369.231401 
L 446.88194 369.36 
L 446.983415 369.231401 
L 447.08489 369.36 
L 447.287839 369.231401 
L 447.490789 369.231401 
L 447.693739 369.36 
L 447.795214 369.231401 
L 447.896688 369.36 
L 448.099638 369.231401 
L 448.302588 369.231401 
L 448.505537 369.36 
L 448.607012 369.231401 
L 448.708487 369.36 
L 448.911437 369.231401 
L 449.114387 369.231401 
L 449.317336 369.36 
L 449.418811 369.231401 
L 449.520286 369.36 
L 449.723236 369.231401 
L 449.926185 369.231401 
L 450.129135 369.36 
L 450.23061 369.231401 
L 450.332085 369.36 
L 450.535034 369.231401 
L 450.737984 369.231401 
L 450.940934 369.36 
L 451.042408 369.231401 
L 451.143883 369.36 
L 451.346833 369.231401 
L 451.549783 369.231401 
L 451.752732 369.36 
L 451.854207 369.231401 
L 451.955682 369.36 
L 452.158632 369.231401 
L 452.361581 369.231401 
L 452.564531 369.36 
L 452.666006 369.231401 
L 452.767481 369.36 
L 452.97043 369.231401 
L 453.17338 369.231401 
L 453.37633 369.36 
L 453.477805 369.231401 
L 453.579279 369.36 
L 453.782229 369.231401 
L 453.985179 369.231401 
L 454.188129 369.36 
L 454.289603 369.231401 
L 454.391078 369.36 
L 454.594028 369.231401 
L 454.796978 369.231401 
L 454.999927 369.36 
L 455.101402 369.231401 
L 455.202877 369.36 
L 455.405827 369.231401 
L 455.608776 369.231401 
L 455.811726 369.36 
L 455.913201 369.231401 
L 456.014676 369.36 
L 456.217625 369.231401 
L 456.420575 369.231401 
L 456.623525 369.36 
L 456.725 369.231401 
L 456.826474 369.36 
L 457.029424 369.231401 
L 457.232374 369.231401 
L 457.435323 369.36 
L 457.536798 369.231401 
L 457.638273 369.36 
L 457.841223 369.231401 
L 458.044172 369.231401 
L 458.247122 369.36 
L 458.348597 369.231401 
L 458.450072 369.36 
L 458.653022 369.231401 
L 458.855971 369.231401 
L 459.058921 369.36 
L 459.160396 369.231401 
L 459.261871 369.36 
L 459.46482 369.231401 
L 459.66777 369.231401 
L 459.87072 369.36 
L 459.972194 369.231401 
L 460.073669 369.36 
L 460.276619 369.231401 
L 460.479569 369.231401 
L 460.682518 369.36 
L 460.783993 369.231401 
L 460.885468 369.36 
L 461.088418 369.231401 
L 461.291367 369.231401 
L 461.494317 369.36 
L 461.595792 369.231401 
L 461.697267 369.36 
L 461.900216 369.231401 
L 462.103166 369.231401 
L 462.306116 369.36 
L 462.407591 369.231401 
L 462.509065 369.36 
L 462.712015 369.231401 
L 462.914965 369.231401 
L 463.117914 369.36 
L 463.219389 369.231401 
L 463.320864 369.36 
L 463.523814 369.231401 
L 463.726764 369.231401 
L 463.929713 369.36 
L 464.031188 369.231401 
L 464.132663 369.36 
L 464.335613 369.231401 
L 464.538562 369.231401 
L 464.741512 369.36 
L 464.842987 369.231401 
L 464.944462 369.36 
L 465.147411 369.231401 
L 465.350361 369.231401 
L 465.553311 369.36 
L 465.654786 369.231401 
L 465.75626 369.36 
L 465.95921 369.231401 
L 466.16216 369.231401 
L 466.365109 369.36 
L 466.466584 369.231401 
L 466.568059 369.36 
L 466.771009 369.231401 
L 466.973958 369.231401 
L 467.176908 369.36 
L 467.278383 369.231401 
L 467.379858 369.36 
L 467.582807 369.231401 
L 467.785757 369.231401 
L 467.988707 369.36 
L 468.090182 369.231401 
L 468.191657 369.36 
L 468.394606 369.231401 
L 468.597556 369.231401 
L 468.800506 369.36 
L 468.90198 369.231401 
L 469.003455 369.36 
L 469.206405 369.231401 
L 469.409355 369.231401 
L 469.612304 369.36 
L 469.713779 369.231401 
L 469.815254 369.36 
L 470.018204 369.231401 
L 470.221153 369.231401 
L 470.424103 369.36 
L 470.525578 369.231401 
L 470.627053 369.36 
L 470.830002 369.231401 
L 471.032952 369.231401 
L 471.235902 369.36 
L 471.337377 369.231401 
L 471.438851 369.36 
L 471.641801 369.231401 
L 471.844751 369.231401 
L 472.0477 369.36 
L 472.149175 369.231401 
L 472.25065 369.36 
L 472.4536 369.231401 
L 472.656549 369.231401 
L 472.859499 369.36 
L 472.960974 369.231401 
L 473.062449 369.36 
L 473.265399 369.231401 
L 473.468348 369.231401 
L 473.671298 369.36 
L 473.772773 369.231401 
L 473.874248 369.36 
L 474.077197 369.231401 
L 474.280147 369.231401 
L 474.483097 369.36 
L 474.584571 369.231401 
L 474.686046 369.36 
L 474.888996 369.231401 
L 475.091946 369.231401 
L 475.294895 369.36 
L 475.39637 369.231401 
L 475.497845 369.36 
L 475.700795 369.231401 
L 475.903744 369.231401 
L 476.106694 369.36 
L 476.208169 369.231401 
L 476.309644 369.36 
L 476.512593 369.231401 
L 476.715543 369.231401 
L 476.918493 369.36 
L 477.019968 369.231401 
L 477.121442 369.36 
L 477.324392 369.231401 
L 477.527342 369.231401 
L 477.730292 369.36 
L 477.831766 369.231401 
L 477.933241 369.36 
L 478.136191 369.231401 
L 478.339141 369.231401 
L 478.54209 369.36 
L 478.643565 369.231401 
L 478.74504 369.36 
L 478.94799 369.231401 
L 479.150939 369.231401 
L 479.353889 369.36 
L 479.455364 369.231401 
L 479.556839 369.36 
L 479.759788 369.231401 
L 479.962738 369.231401 
L 480.165688 369.36 
L 480.267163 369.231401 
L 480.368637 369.36 
L 480.571587 369.231401 
L 480.774537 369.231401 
L 480.977486 369.36 
L 481.078961 369.231401 
L 481.180436 369.36 
L 481.383386 369.231401 
L 481.586335 369.231401 
L 481.789285 369.36 
L 481.89076 369.231401 
L 481.992235 369.36 
L 482.195184 369.231401 
L 482.398134 369.231401 
L 482.601084 369.36 
L 482.702559 369.231401 
L 482.804034 369.36 
L 483.006983 369.231401 
L 483.209933 369.231401 
L 483.412883 369.36 
L 483.514357 369.231401 
L 483.615832 369.36 
L 483.818782 369.231401 
L 484.021732 369.231401 
L 484.224681 369.36 
L 484.326156 369.231401 
L 484.427631 369.36 
L 484.630581 369.231401 
L 484.83353 369.231401 
L 485.03648 369.36 
L 485.137955 369.231401 
L 485.23943 369.36 
L 485.442379 369.231401 
L 485.645329 369.231401 
L 485.848279 369.36 
L 485.949754 369.231401 
L 486.051228 369.36 
L 486.254178 369.231401 
L 486.457128 369.231401 
L 486.660077 369.36 
L 486.761552 369.231401 
L 486.863027 369.36 
L 487.065977 369.231401 
L 487.268927 369.231401 
L 487.471876 369.36 
L 487.573351 369.231401 
L 487.674826 369.36 
L 487.877776 369.231401 
L 488.080725 369.231401 
L 488.283675 369.36 
L 488.38515 369.231401 
L 488.486625 369.36 
L 488.689574 369.231401 
L 488.892524 369.231401 
L 489.095474 369.36 
L 489.196948 369.231401 
L 489.298423 369.36 
L 489.501373 369.231401 
L 489.704323 369.231401 
L 489.907272 369.36 
L 490.008747 369.231401 
L 490.110222 369.36 
L 490.313172 369.231401 
L 490.516121 369.231401 
L 490.719071 369.36 
L 490.820546 369.231401 
L 490.922021 369.36 
L 491.12497 369.231401 
L 491.32792 369.231401 
L 491.53087 369.36 
L 491.632345 369.231401 
L 491.733819 369.36 
L 491.936769 369.231401 
L 492.139719 369.231401 
L 492.342669 369.36 
L 492.444143 369.231401 
L 492.545618 369.36 
L 492.748568 369.231401 
L 492.951518 369.231401 
L 493.154467 369.36 
L 493.255942 369.231401 
L 493.357417 369.36 
L 493.560367 369.231401 
L 493.763316 369.231401 
L 493.966266 369.36 
L 494.067741 369.231401 
L 494.169216 369.36 
L 494.372165 369.231401 
L 494.575115 369.231401 
L 494.778065 369.36 
L 494.87954 369.231401 
L 494.981014 369.36 
L 495.183964 369.231401 
L 495.386914 369.231401 
L 495.589863 369.36 
L 495.691338 369.231401 
L 495.792813 369.36 
L 495.995763 369.231401 
L 496.198712 369.231401 
L 496.401662 369.36 
L 496.503137 369.231401 
L 496.604612 369.36 
L 496.807562 369.231401 
L 497.010511 369.231401 
L 497.213461 369.36 
L 497.314936 369.231401 
L 497.416411 369.36 
L 497.61936 369.231401 
L 497.82231 369.231401 
L 498.02526 369.36 
L 498.126734 369.231401 
L 498.228209 369.36 
L 498.431159 369.231401 
L 498.634109 369.231401 
L 498.837058 369.36 
L 498.938533 369.231401 
L 499.040008 369.36 
L 499.242958 369.231401 
L 499.445907 369.231401 
L 499.648857 369.36 
L 499.750332 369.231401 
L 499.851807 369.36 
L 500.054756 369.231401 
L 500.257706 369.231401 
L 500.460656 369.36 
L 500.562131 369.231401 
L 500.663605 369.36 
L 500.866555 369.231401 
L 501.069505 369.231401 
L 501.272454 369.36 
L 501.373929 369.231401 
L 501.475404 369.36 
L 501.678354 369.231401 
L 501.881304 369.231401 
L 502.084253 369.36 
L 502.185728 369.231401 
L 502.287203 369.36 
L 502.490153 369.231401 
L 502.693102 369.231401 
L 502.896052 369.36 
L 502.997527 369.231401 
L 503.099002 369.36 
L 503.301951 369.231401 
L 503.504901 369.231401 
L 503.707851 369.36 
L 503.809326 369.231401 
L 503.9108 369.36 
L 504.11375 369.231401 
L 504.3167 369.231401 
L 504.519649 369.36 
L 504.621124 369.231401 
L 504.722599 369.36 
L 504.925549 369.231401 
L 505.128498 369.231401 
L 505.331448 369.36 
L 505.432923 369.231401 
L 505.534398 369.36 
L 505.737347 369.231401 
L 505.940297 369.231401 
L 506.143247 369.36 
L 506.244722 369.231401 
L 506.346197 369.36 
L 506.549146 369.231401 
L 506.752096 369.231401 
L 506.955046 369.36 
L 507.05652 369.231401 
L 507.157995 369.36 
L 507.360945 369.231401 
L 507.563895 369.231401 
L 507.766844 369.36 
L 507.868319 369.231401 
L 507.969794 369.36 
L 508.172744 369.231401 
L 508.375693 369.231401 
L 508.578643 369.36 
L 508.680118 369.231401 
L 508.781593 369.36 
L 508.984542 369.231401 
L 509.187492 369.231401 
L 509.390442 369.36 
L 509.491917 369.231401 
L 509.593391 369.36 
L 509.796341 369.231401 
L 509.999291 369.231401 
L 510.20224 369.36 
L 510.303715 369.231401 
L 510.40519 369.36 
L 510.60814 369.231401 
L 510.811089 369.231401 
L 511.014039 369.36 
L 511.115514 369.231401 
L 511.216989 369.36 
L 511.419939 369.231401 
L 511.622888 369.231401 
L 511.825838 369.36 
L 511.927313 369.231401 
L 512.028788 369.36 
L 512.231737 369.231401 
L 512.434687 369.231401 
L 512.637637 369.36 
L 512.739111 369.231401 
L 512.840586 369.36 
L 513.043536 369.231401 
L 513.246486 369.231401 
L 513.449435 369.36 
L 513.55091 369.231401 
L 513.652385 369.36 
L 513.855335 369.231401 
L 514.058284 369.231401 
L 514.261234 369.36 
L 514.362709 369.231401 
L 514.464184 369.36 
L 514.667133 369.231401 
L 514.870083 369.231401 
L 515.073033 369.36 
L 515.174508 369.231401 
L 515.275982 369.36 
L 515.478932 369.231401 
L 515.681882 369.231401 
L 515.884832 369.36 
L 515.986306 369.231401 
L 516.087781 369.36 
L 516.290731 369.231401 
L 516.493681 369.231401 
L 516.69663 369.36 
L 516.798105 369.231401 
L 516.89958 369.36 
L 517.10253 369.231401 
L 517.305479 369.231401 
L 517.508429 369.36 
L 517.609904 369.231401 
L 517.711379 369.36 
L 517.914328 369.231401 
L 518.117278 369.231401 
L 518.320228 369.36 
L 518.421703 369.231401 
L 518.523177 369.36 
L 518.726127 369.231401 
L 518.929077 369.231401 
L 519.132026 369.36 
L 519.233501 369.231401 
L 519.334976 369.36 
L 519.537926 369.231401 
L 519.740875 369.231401 
L 519.943825 369.36 
L 520.0453 369.231401 
L 520.146775 369.36 
L 520.349724 369.231401 
L 520.552674 369.231401 
L 520.755624 369.36 
L 520.857099 369.231401 
L 520.958574 369.36 
L 521.161523 369.231401 
L 521.364473 369.231401 
L 521.567423 369.36 
L 521.668897 369.231401 
L 521.770372 369.36 
L 521.973322 369.231401 
L 522.176272 369.231401 
L 522.379221 369.36 
L 522.480696 369.231401 
L 522.582171 369.36 
L 522.785121 369.231401 
L 522.98807 369.231401 
L 523.19102 369.36 
L 523.292495 369.231401 
L 523.39397 369.36 
L 523.596919 369.231401 
L 523.799869 369.231401 
L 524.002819 369.36 
L 524.104294 369.231401 
L 524.205768 369.36 
L 524.408718 369.231401 
L 524.611668 369.231401 
L 524.814617 369.36 
L 524.916092 369.231401 
L 525.017567 369.36 
L 525.220517 369.231401 
L 525.423467 369.231401 
L 525.626416 369.36 
L 525.727891 369.231401 
L 525.829366 369.36 
L 526.032316 369.231401 
L 526.235265 369.231401 
L 526.438215 369.36 
L 526.53969 369.231401 
L 526.641165 369.36 
L 526.844114 369.231401 
L 527.047064 369.231401 
L 527.250014 369.36 
L 527.351488 369.231401 
L 527.452963 369.36 
L 527.655913 369.231401 
L 527.858863 369.231401 
L 528.061812 369.36 
L 528.163287 369.231401 
L 528.264762 369.36 
L 528.467712 369.231401 
L 528.670661 369.231401 
L 528.873611 369.36 
L 528.975086 369.231401 
L 529.076561 369.36 
L 529.27951 369.231401 
L 529.48246 369.231401 
L 529.68541 369.36 
L 529.786885 369.231401 
L 529.888359 369.36 
L 530.091309 369.231401 
L 530.294259 369.231401 
L 530.497209 369.36 
L 530.598683 369.231401 
L 530.700158 369.36 
L 530.903108 369.231401 
L 531.106058 369.231401 
L 531.309007 369.36 
L 531.410482 369.231401 
L 531.511957 369.36 
L 531.714907 369.231401 
L 531.917856 369.231401 
L 532.120806 369.36 
L 532.222281 369.231401 
L 532.323756 369.36 
L 532.526705 369.231401 
L 532.729655 369.231401 
L 532.932605 369.36 
L 533.03408 369.231401 
L 533.135554 369.36 
L 533.338504 369.231401 
L 533.541454 369.231401 
L 533.744403 369.36 
L 533.845878 369.231401 
L 533.947353 369.36 
L 534.150303 369.231401 
L 534.353252 369.231401 
L 534.556202 369.36 
L 534.657677 369.231401 
L 534.759152 369.36 
L 534.962102 369.231401 
L 535.165051 369.231401 
L 535.368001 369.36 
L 535.469476 369.231401 
L 535.570951 369.36 
L 535.7739 369.231401 
L 535.97685 369.231401 
L 536.1798 369.36 
L 536.281274 369.231401 
L 536.382749 369.36 
L 536.585699 369.231401 
L 536.788649 369.231401 
L 536.991598 369.36 
L 537.093073 369.231401 
L 537.194548 369.36 
L 537.397498 369.231401 
L 537.600447 369.231401 
L 537.803397 369.36 
L 537.904872 369.231401 
L 538.006347 369.36 
L 538.209296 369.231401 
L 538.412246 369.231401 
L 538.615196 369.36 
L 538.716671 369.231401 
L 538.818145 369.36 
L 539.021095 369.231401 
L 539.224045 369.231401 
L 539.426994 369.36 
L 539.528469 369.231401 
L 539.629944 369.36 
L 539.832894 369.231401 
L 540.035844 369.231401 
L 540.238793 369.36 
L 540.340268 369.231401 
L 540.441743 369.36 
L 540.644693 369.231401 
L 540.847642 369.231401 
L 541.050592 369.36 
L 541.152067 369.231401 
L 541.253542 369.36 
L 541.456491 369.231401 
L 541.659441 369.231401 
L 541.862391 369.36 
L 541.963866 369.231401 
L 542.06534 369.36 
L 542.26829 369.231401 
L 542.47124 369.231401 
L 542.674189 369.36 
L 542.775664 369.231401 
L 542.877139 369.36 
L 543.080089 369.231401 
L 543.283038 369.231401 
L 543.485988 369.36 
L 543.587463 369.231401 
L 543.688938 369.36 
L 543.891887 369.231401 
L 544.094837 369.231401 
L 544.297787 369.36 
L 544.399262 369.231401 
L 544.500737 369.36 
L 544.703686 369.231401 
L 544.906636 369.231401 
L 545.109586 369.36 
L 545.21106 369.231401 
L 545.312535 369.36 
L 545.515485 369.231401 
L 545.718435 369.231401 
L 545.921384 369.36 
L 546.022859 369.231401 
L 546.124334 369.36 
L 546.327284 369.231401 
L 546.530233 369.231401 
L 546.733183 369.36 
L 546.834658 369.231401 
L 546.936133 369.36 
L 547.139082 369.231401 
L 547.342032 369.231401 
L 547.544982 369.36 
L 547.646457 369.231401 
L 547.747931 369.36 
L 547.950881 369.231401 
L 548.153831 369.231401 
L 548.35678 369.36 
L 548.458255 369.231401 
L 548.55973 369.36 
L 548.76268 369.231401 
L 548.965629 369.231401 
L 549.168579 369.36 
L 549.270054 369.231401 
L 549.371529 369.36 
L 549.574479 369.231401 
L 549.777428 369.231401 
L 549.980378 369.36 
L 550.081853 369.231401 
L 550.183328 369.36 
L 550.386277 369.231401 
L 550.589227 369.231401 
L 550.792177 369.36 
L 550.893651 369.231401 
L 550.995126 369.36 
L 551.198076 369.231401 
L 551.401026 369.231401 
L 551.603975 369.36 
L 551.70545 369.231401 
L 551.806925 369.36 
L 552.009875 369.231401 
L 552.212824 369.231401 
L 552.415774 369.36 
L 552.517249 369.231401 
L 552.618724 369.36 
L 552.821673 369.231401 
L 553.024623 369.231401 
L 553.227573 369.36 
L 553.329048 369.231401 
L 553.430522 369.36 
L 553.633472 369.231401 
L 553.836422 369.231401 
L 554.039372 369.36 
L 554.140846 369.231401 
L 554.242321 369.36 
L 554.445271 369.231401 
L 554.648221 369.231401 
L 554.85117 369.36 
L 554.952645 369.231401 
L 555.05412 369.36 
L 555.25707 369.231401 
L 555.460019 369.231401 
L 555.662969 369.36 
L 555.764444 369.231401 
L 555.865919 369.36 
L 556.068868 369.231401 
L 556.271818 369.231401 
L 556.474768 369.36 
L 556.576243 369.231401 
L 556.677717 369.36 
L 556.880667 369.231401 
L 557.083617 369.231401 
L 557.286566 369.36 
L 557.388041 369.231401 
L 557.489516 369.36 
L 557.692466 369.231401 
L 557.895415 369.231401 
L 558.098365 369.36 
L 558.19984 369.231401 
L 558.301315 369.36 
L 558.504264 369.231401 
L 558.707214 369.231401 
L 558.910164 369.36 
L 559.011639 369.231401 
L 559.113114 369.36 
L 559.316063 369.231401 
L 559.519013 369.231401 
L 559.721963 369.36 
L 559.823437 369.231401 
L 559.924912 369.36 
L 560.127862 369.231401 
L 560.330812 369.231401 
L 560.533761 369.36 
L 560.635236 369.231401 
L 560.736711 369.36 
L 560.939661 369.231401 
L 561.14261 369.231401 
L 561.34556 369.36 
L 561.447035 369.231401 
L 561.54851 369.36 
L 561.751459 369.231401 
L 561.954409 369.231401 
L 562.157359 369.36 
L 562.258834 369.231401 
L 562.360308 369.36 
L 562.563258 369.231401 
L 562.766208 369.231401 
L 562.969157 369.36 
L 563.070632 369.231401 
L 563.172107 369.36 
L 563.375057 369.231401 
L 563.578007 369.231401 
L 563.780956 369.36 
L 563.882431 369.231401 
L 563.983906 369.36 
L 564.186856 369.231401 
L 564.389805 369.231401 
L 564.592755 369.36 
L 564.69423 369.231401 
L 564.795705 369.36 
L 564.998654 369.231401 
L 565.201604 369.231401 
L 565.404554 369.36 
L 565.506028 369.231401 
L 565.607503 369.36 
L 565.810453 369.231401 
L 566.013403 369.231401 
L 566.216352 369.36 
L 566.317827 369.231401 
L 566.419302 369.36 
L 566.622252 369.231401 
L 566.825201 369.231401 
L 567.028151 369.36 
L 567.129626 369.231401 
L 567.231101 369.36 
L 567.43405 369.231401 
L 567.637 369.231401 
L 567.83995 369.36 
L 567.941425 369.231401 
L 568.042899 369.36 
L 568.245849 369.231401 
L 568.448799 369.231401 
L 568.651749 369.36 
L 568.753223 369.231401 
L 568.854698 369.36 
L 569.057648 369.231401 
L 569.260598 369.231401 
L 569.463547 369.36 
L 569.565022 369.231401 
L 569.666497 369.36 
L 569.869447 369.231401 
L 570.072396 369.231401 
L 570.275346 369.36 
L 570.376821 369.231401 
L 570.478296 369.36 
L 570.681245 369.231401 
L 570.884195 369.231401 
L 571.087145 369.36 
L 571.18862 369.231401 
L 571.290094 369.36 
L 571.493044 369.231401 
L 571.695994 369.231401 
L 571.898943 369.36 
L 572.000418 369.231401 
L 572.101893 369.36 
L 572.304843 369.231401 
L 572.507792 369.231401 
L 572.710742 369.36 
L 572.812217 369.231401 
L 572.913692 369.36 
L 573.116642 369.231401 
L 573.319591 369.231401 
L 573.522541 369.36 
L 573.624016 369.231401 
L 573.725491 369.36 
L 573.92844 369.231401 
L 574.13139 369.231401 
L 574.33434 369.36 
L 574.435814 369.231401 
L 574.537289 369.36 
L 574.740239 369.231401 
L 574.943189 369.231401 
L 575.146138 369.36 
L 575.247613 369.231401 
L 575.349088 369.36 
L 575.552038 369.231401 
L 575.754987 369.231401 
L 575.957937 369.36 
L 576.059412 369.231401 
L 576.160887 369.36 
L 576.363836 369.231401 
L 576.566786 369.231401 
L 576.769736 369.36 
L 576.871211 369.231401 
L 576.972685 369.36 
L 577.175635 369.231401 
L 577.378585 369.231401 
L 577.581534 369.36 
L 577.683009 369.231401 
L 577.784484 369.36 
L 577.987434 369.231401 
L 578.190384 369.231401 
L 578.393333 369.36 
L 578.494808 369.231401 
L 578.596283 369.36 
L 578.799233 369.231401 
L 579.002182 369.231401 
L 579.205132 369.36 
L 579.306607 369.231401 
L 579.408082 369.36 
L 579.611031 369.231401 
L 579.813981 369.231401 
L 580.016931 369.36 
L 580.118405 369.231401 
L 580.21988 369.36 
L 580.42283 369.231401 
L 580.62578 369.231401 
L 580.828729 369.36 
L 580.930204 369.231401 
L 581.031679 369.36 
L 581.234629 369.231401 
L 581.437578 369.231401 
L 581.640528 369.36 
L 581.742003 369.231401 
L 581.843478 369.36 
L 582.046427 369.231401 
L 582.249377 369.231401 
L 582.452327 369.36 
L 582.553802 369.231401 
L 582.655277 369.36 
L 582.858226 369.231401 
L 583.061176 369.231401 
L 583.264126 369.36 
L 583.3656 369.231401 
L 583.467075 369.36 
L 583.670025 369.231401 
L 583.872975 369.231401 
L 584.075924 369.36 
L 584.177399 369.231401 
L 584.278874 369.36 
L 584.481824 369.231401 
L 584.684773 369.231401 
L 584.887723 369.36 
L 584.989198 369.231401 
L 585.090673 369.36 
L 585.293622 369.231401 
L 585.496572 369.231401 
L 585.699522 369.36 
L 585.800997 369.231401 
L 585.902471 369.36 
L 586.105421 369.231401 
L 586.308371 369.231401 
L 586.51132 369.36 
L 586.612795 369.231401 
L 586.71427 369.36 
L 586.91722 369.231401 
L 587.120169 369.231401 
L 587.323119 369.36 
L 587.424594 369.231401 
L 587.526069 369.36 
L 587.729019 369.231401 
L 587.931968 369.231401 
L 588.134918 369.36 
L 588.236393 369.231401 
L 588.337868 369.36 
L 588.540817 369.231401 
L 588.743767 369.231401 
L 588.946717 369.36 
L 589.048191 369.231401 
L 589.149666 369.36 
L 589.352616 369.231401 
L 589.555566 369.231401 
L 589.758515 369.36 
L 589.85999 369.231401 
L 589.961465 369.36 
L 590.164415 369.231401 
L 590.367364 369.231401 
L 590.570314 369.36 
L 590.671789 369.231401 
L 590.773264 369.36 
L 590.976213 369.231401 
L 591.179163 369.231401 
L 591.382113 369.36 
L 591.483588 369.231401 
L 591.585062 369.36 
L 591.788012 369.231401 
L 591.990962 369.231401 
L 592.193912 369.36 
L 592.295386 369.231401 
L 592.396861 369.36 
L 592.599811 369.231401 
L 592.802761 369.231401 
L 593.00571 369.36 
L 593.107185 369.231401 
L 593.20866 369.36 
L 593.41161 369.231401 
L 593.614559 369.231401 
L 593.817509 369.36 
L 593.918984 369.231401 
L 594.020459 369.36 
L 594.223408 369.231401 
L 594.426358 369.231401 
L 594.629308 369.36 
L 594.730783 369.231401 
L 594.832257 369.36 
L 595.035207 369.231401 
L 595.238157 369.231401 
L 595.441106 369.36 
L 595.542581 369.231401 
L 595.644056 369.36 
L 595.847006 369.231401 
L 596.049955 369.231401 
L 596.252905 369.36 
L 596.35438 369.231401 
L 596.455855 369.36 
L 596.658804 369.231401 
L 596.861754 369.231401 
L 597.064704 369.36 
L 597.166179 369.231401 
L 597.267654 369.36 
L 597.470603 369.231401 
L 597.673553 369.231401 
L 597.876503 369.36 
L 597.977977 369.231401 
L 598.079452 369.36 
L 598.282402 369.231401 
L 598.485352 369.231401 
L 598.688301 369.36 
L 598.789776 369.231401 
L 598.891251 369.36 
L 599.094201 369.231401 
L 599.29715 369.231401 
L 599.5001 369.36 
L 599.601575 369.231401 
L 599.70305 369.36 
L 599.905999 369.231401 
L 600.108949 369.231401 
L 600.311899 369.36 
L 600.413374 369.231401 
L 600.514848 369.36 
L 600.717798 369.231401 
L 600.920748 369.231401 
L 601.123697 369.36 
L 601.225172 369.231401 
L 601.326647 369.36 
L 601.529597 369.231401 
L 601.732547 369.231401 
L 601.935496 369.36 
L 602.036971 369.231401 
L 602.138446 369.36 
L 602.341396 369.231401 
L 602.544345 369.231401 
L 602.747295 369.36 
L 602.84877 369.231401 
L 602.950245 369.36 
L 603.153194 369.231401 
L 603.356144 369.231401 
L 603.559094 369.36 
L 603.660568 369.231401 
L 603.762043 369.36 
L 603.964993 369.231401 
L 604.167943 369.231401 
L 604.370892 369.36 
L 604.472367 369.231401 
L 604.573842 369.36 
L 604.776792 369.231401 
L 604.979741 369.231401 
L 605.182691 369.36 
L 605.284166 369.231401 
L 605.385641 369.36 
L 605.58859 369.231401 
L 605.79154 369.231401 
L 605.99449 369.36 
L 606.095965 369.231401 
L 606.197439 369.36 
L 606.400389 369.231401 
L 606.603339 369.231401 
L 606.806289 369.36 
L 606.907763 369.231401 
L 607.009238 369.36 
L 607.212188 369.231401 
L 607.415138 369.231401 
L 607.618087 369.36 
L 607.719562 369.231401 
L 607.821037 369.36 
L 608.023987 369.231401 
L 608.226936 369.231401 
L 608.429886 369.36 
L 608.531361 369.231401 
L 608.632836 369.36 
L 608.835785 369.231401 
L 609.038735 369.231401 
L 609.241685 369.36 
L 609.34316 369.231401 
L 609.444634 369.36 
L 609.647584 369.231401 
L 609.850534 369.231401 
L 610.053483 369.36 
L 610.154958 369.231401 
L 610.256433 369.36 
L 610.459383 369.231401 
L 610.662332 369.231401 
L 610.865282 369.36 
L 610.966757 369.231401 
L 611.068232 369.36 
L 611.271182 369.231401 
L 611.474131 369.231401 
L 611.677081 369.36 
L 611.778556 369.231401 
L 611.880031 369.36 
L 612.08298 369.231401 
L 612.28593 369.231401 
L 612.48888 369.36 
L 612.590354 369.231401 
L 612.691829 369.36 
L 612.894779 369.231401 
L 613.097729 369.231401 
L 613.300678 369.36 
L 613.402153 369.231401 
L 613.503628 369.36 
L 613.706578 369.231401 
L 613.909527 369.231401 
L 614.112477 369.36 
L 614.213952 369.231401 
L 614.315427 369.36 
L 614.518376 369.231401 
L 614.721326 369.231401 
L 614.924276 369.36 
L 615.025751 369.231401 
L 615.127225 369.36 
L 615.330175 369.231401 
L 615.533125 369.231401 
L 615.736074 369.36 
L 615.837549 369.231401 
L 615.939024 369.36 
L 616.141974 369.231401 
L 616.344924 369.231401 
L 616.547873 369.36 
L 616.649348 369.231401 
L 616.750823 369.36 
L 616.953773 369.231401 
L 617.156722 369.231401 
L 617.359672 369.36 
L 617.461147 369.231401 
L 617.562622 369.36 
L 617.765571 369.231401 
L 617.968521 369.231401 
L 618.171471 369.36 
L 618.272945 369.231401 
L 618.37442 369.36 
L 618.57737 369.231401 
L 618.78032 369.231401 
L 618.983269 369.36 
L 619.084744 369.231401 
L 619.186219 369.36 
L 619.389169 369.231401 
L 619.592118 369.231401 
L 619.795068 369.36 
L 619.896543 369.231401 
L 619.998018 369.36 
L 620.200967 369.231401 
L 620.403917 369.231401 
L 620.606867 369.36 
L 620.708342 369.231401 
L 620.809817 369.36 
L 621.012766 369.231401 
L 621.215716 369.231401 
L 621.418666 369.36 
L 621.52014 369.231401 
L 621.621615 369.36 
L 621.824565 369.231401 
L 622.027515 369.231401 
L 622.230464 369.36 
L 622.331939 369.231401 
L 622.433414 369.36 
L 622.636364 369.231401 
L 622.636364 369.231401 
" clip-path="url(#p96b9771cb6)" style="fill: none; stroke: #0000ff; stroke-width: 2; stroke-linecap: square"/>
   </g>
   <g id="patch_3">
    <path d="M 90 384.48 
L 90 51.84 
" style="fill: none; stroke: #000000; stroke-width: 0.8; stroke-linejoin: miter; stroke-linecap: square"/>
   </g>
   <g id="patch_4">
    <path d="M 648 384.48 
L 648 51.84 
" style="fill: none; stroke: #000000; stroke-width: 0.8; stroke-linejoin: miter; stroke-linecap: square"/>
   </g>
   <g id="patch_5">
    <path d="M 90 384.48 
L 648 384.48 
" style="fill: none; stroke: #000000; stroke-width: 0.8; stroke-linejoin: miter; stroke-linecap: square"/>
   </g>
   <g id="patch_6">
    <path d="M 90 51.84 
L 648 51.84 
" style="fill: none; stroke: #000000; stroke-width: 0.8; stroke-linejoin: miter; stroke-linecap: square"/>
   </g>
   <g id="text_15">
    <!-- Spots_Density -->
    <g transform="translate(326.4225 45.84)scale(0.12 -0.12)">
     <defs>
      <path id="DejaVuSans-53" d="M 3425 4513 
L 3425 3897 
Q 3066 4069 2747 4153 
Q 2428 4238 2131 4238 
Q 1616 4238 1336 4038 
Q 1056 3838 1056 3469 
Q 1056 3159 1242 3001 
Q 1428 2844 1947 2747 
L 2328 2669 
Q 3034 2534 3370 2195 
Q 3706 1856 3706 1288 
Q 3706 609 3251 259 
Q 2797 -91 1919 -91 
Q 1588 -91 1214 -16 
Q 841 59 441 206 
L 441 856 
Q 825 641 1194 531 
Q 1563 422 1919 422 
Q 2459 422 2753 634 
Q 3047 847 3047 1241 
Q 3047 1584 2836 1778 
Q 2625 1972 2144 2069 
L 1759 2144 
Q 1053 2284 737 2584 
Q 422 2884 422 3419 
Q 422 4038 858 4394 
Q 1294 4750 2059 4750 
Q 2388 4750 2728 4690 
Q 3069 4631 3425 4513 
z
" transform="scale(0.015625)"/>
      <path id="DejaVuSans-5f" d="M 3263 -1063 
L 3263 -1509 
L -63 -1509 
L -63 -1063 
L 3263 -1063 
z
" transform="scale(0.015625)"/>
     </defs>
     <use xlink:href="#DejaVuSans-53"/>
     <use xlink:href="#DejaVuSans-70" x="63.476562"/>
     <use xlink:href="#DejaVuSans-6f" x="126.953125"/>
     <use xlink:href="#DejaVuSans-74" x="188.134766"/>
     <use xlink:href="#DejaVuSans-73" x="227.34375"/>
     <use xlink:href="#DejaVuSans-5f" x="279.443359"/>
     <use xlink:href="#DejaVuSans-44" x="329.443359"/>
     <use xlink:href="#DejaVuSans-65" x="406.445312"/>
     <use xlink:href="#DejaVuSans-6e" x="467.96875"/>
     <use xlink:href="#DejaVuSans-73" x="531.347656"/>
     <use xlink:href="#DejaVuSans-69" x="583.447266"/>
     <use xlink:href="#DejaVuSans-74" x="611.230469"/>
     <use xlink:href="#DejaVuSans-79" x="650.439453"/>
    </g>
   </g>
  </g>
 </g>
 <defs>
  <clipPath id="p96b9771cb6">
   <rect x="90" y="51.84" width="558" height="332.64"/>
  </clipPath>
 </defs>
</svg>
