<?xml version="1.0" encoding="utf-8" standalone="no"?>
<!DOCTYPE svg PUBLIC "-//W3C//DTD SVG 1.1//EN"
  "http://www.w3.org/Graphics/SVG/1.1/DTD/svg11.dtd">
<svg xmlns:xlink="http://www.w3.org/1999/xlink" width="720pt" height="432pt" viewBox="0 0 720 432" xmlns="http://www.w3.org/2000/svg" version="1.1">
 <metadata>
  <rdf:RDF xmlns:dc="http://purl.org/dc/elements/1.1/" xmlns:cc="http://creativecommons.org/ns#" xmlns:rdf="http://www.w3.org/1999/02/22-rdf-syntax-ns#">
   <cc:Work>
    <dc:type rdf:resource="http://purl.org/dc/dcmitype/StillImage"/>
    <dc:date>2024-03-12T14:53:47.175002</dc:date>
    <dc:format>image/svg+xml</dc:format>
    <dc:creator>
     <cc:Agent>
      <dc:title>Matplotlib v3.5.1, https://matplotlib.org/</dc:title>
     </cc:Agent>
    </dc:creator>
   </cc:Work>
  </rdf:RDF>
 </metadata>
 <defs>
  <style type="text/css">*{stroke-linejoin: round; stroke-linecap: butt}</style>
 </defs>
 <g id="figure_1">
  <g id="patch_1">
   <path d="M 0 432 
L 720 432 
L 720 0 
L 0 0 
z
" style="fill: #ffffff"/>
  </g>
  <g id="axes_1">
   <g id="patch_2">
    <path d="M 90 384.48 
L 648 384.48 
L 648 51.84 
L 90 51.84 
z
" style="fill: #ffffff"/>
   </g>
   <g id="matplotlib.axis_1">
    <g id="xtick_1">
     <g id="line2d_1">
      <defs>
       <path id="m8c71b6082c" d="M 0 0 
L 0 3.5 
" style="stroke: #000000; stroke-width: 0.8"/>
      </defs>
      <g>
       <use xlink:href="#m8c71b6082c" x="115.363636" y="384.48" style="stroke: #000000; stroke-width: 0.8"/>
      </g>
     </g>
     <g id="text_1">
      <!-- 0 -->
      <g transform="translate(112.182386 399.078438)scale(0.1 -0.1)">
       <defs>
        <path id="DejaVuSans-30" d="M 2034 4250 
Q 1547 4250 1301 3770 
Q 1056 3291 1056 2328 
Q 1056 1369 1301 889 
Q 1547 409 2034 409 
Q 2525 409 2770 889 
Q 3016 1369 3016 2328 
Q 3016 3291 2770 3770 
Q 2525 4250 2034 4250 
z
M 2034 4750 
Q 2819 4750 3233 4129 
Q 3647 3509 3647 2328 
Q 3647 1150 3233 529 
Q 2819 -91 2034 -91 
Q 1250 -91 836 529 
Q 422 1150 422 2328 
Q 422 3509 836 4129 
Q 1250 4750 2034 4750 
z
" transform="scale(0.015625)"/>
       </defs>
       <use xlink:href="#DejaVuSans-30"/>
      </g>
     </g>
    </g>
    <g id="xtick_2">
     <g id="line2d_2">
      <g>
       <use xlink:href="#m8c71b6082c" x="216.838477" y="384.48" style="stroke: #000000; stroke-width: 0.8"/>
      </g>
     </g>
     <g id="text_2">
      <!-- 1000 -->
      <g transform="translate(204.113477 399.078438)scale(0.1 -0.1)">
       <defs>
        <path id="DejaVuSans-31" d="M 794 531 
L 1825 531 
L 1825 4091 
L 703 3866 
L 703 4441 
L 1819 4666 
L 2450 4666 
L 2450 531 
L 3481 531 
L 3481 0 
L 794 0 
L 794 531 
z
" transform="scale(0.015625)"/>
       </defs>
       <use xlink:href="#DejaVuSans-31"/>
       <use xlink:href="#DejaVuSans-30" x="63.623047"/>
       <use xlink:href="#DejaVuSans-30" x="127.246094"/>
       <use xlink:href="#DejaVuSans-30" x="190.869141"/>
      </g>
     </g>
    </g>
    <g id="xtick_3">
     <g id="line2d_3">
      <g>
       <use xlink:href="#m8c71b6082c" x="318.313317" y="384.48" style="stroke: #000000; stroke-width: 0.8"/>
      </g>
     </g>
     <g id="text_3">
      <!-- 2000 -->
      <g transform="translate(305.588317 399.078438)scale(0.1 -0.1)">
       <defs>
        <path id="DejaVuSans-32" d="M 1228 531 
L 3431 531 
L 3431 0 
L 469 0 
L 469 531 
Q 828 903 1448 1529 
Q 2069 2156 2228 2338 
Q 2531 2678 2651 2914 
Q 2772 3150 2772 3378 
Q 2772 3750 2511 3984 
Q 2250 4219 1831 4219 
Q 1534 4219 1204 4116 
Q 875 4013 500 3803 
L 500 4441 
Q 881 4594 1212 4672 
Q 1544 4750 1819 4750 
Q 2544 4750 2975 4387 
Q 3406 4025 3406 3419 
Q 3406 3131 3298 2873 
Q 3191 2616 2906 2266 
Q 2828 2175 2409 1742 
Q 1991 1309 1228 531 
z
" transform="scale(0.015625)"/>
       </defs>
       <use xlink:href="#DejaVuSans-32"/>
       <use xlink:href="#DejaVuSans-30" x="63.623047"/>
       <use xlink:href="#DejaVuSans-30" x="127.246094"/>
       <use xlink:href="#DejaVuSans-30" x="190.869141"/>
      </g>
     </g>
    </g>
    <g id="xtick_4">
     <g id="line2d_4">
      <g>
       <use xlink:href="#m8c71b6082c" x="419.788158" y="384.48" style="stroke: #000000; stroke-width: 0.8"/>
      </g>
     </g>
     <g id="text_4">
      <!-- 3000 -->
      <g transform="translate(407.063158 399.078438)scale(0.1 -0.1)">
       <defs>
        <path id="DejaVuSans-33" d="M 2597 2516 
Q 3050 2419 3304 2112 
Q 3559 1806 3559 1356 
Q 3559 666 3084 287 
Q 2609 -91 1734 -91 
Q 1441 -91 1130 -33 
Q 819 25 488 141 
L 488 750 
Q 750 597 1062 519 
Q 1375 441 1716 441 
Q 2309 441 2620 675 
Q 2931 909 2931 1356 
Q 2931 1769 2642 2001 
Q 2353 2234 1838 2234 
L 1294 2234 
L 1294 2753 
L 1863 2753 
Q 2328 2753 2575 2939 
Q 2822 3125 2822 3475 
Q 2822 3834 2567 4026 
Q 2313 4219 1838 4219 
Q 1578 4219 1281 4162 
Q 984 4106 628 3988 
L 628 4550 
Q 988 4650 1302 4700 
Q 1616 4750 1894 4750 
Q 2613 4750 3031 4423 
Q 3450 4097 3450 3541 
Q 3450 3153 3228 2886 
Q 3006 2619 2597 2516 
z
" transform="scale(0.015625)"/>
       </defs>
       <use xlink:href="#DejaVuSans-33"/>
       <use xlink:href="#DejaVuSans-30" x="63.623047"/>
       <use xlink:href="#DejaVuSans-30" x="127.246094"/>
       <use xlink:href="#DejaVuSans-30" x="190.869141"/>
      </g>
     </g>
    </g>
    <g id="xtick_5">
     <g id="line2d_5">
      <g>
       <use xlink:href="#m8c71b6082c" x="521.262998" y="384.48" style="stroke: #000000; stroke-width: 0.8"/>
      </g>
     </g>
     <g id="text_5">
      <!-- 4000 -->
      <g transform="translate(508.537998 399.078438)scale(0.1 -0.1)">
       <defs>
        <path id="DejaVuSans-34" d="M 2419 4116 
L 825 1625 
L 2419 1625 
L 2419 4116 
z
M 2253 4666 
L 3047 4666 
L 3047 1625 
L 3713 1625 
L 3713 1100 
L 3047 1100 
L 3047 0 
L 2419 0 
L 2419 1100 
L 313 1100 
L 313 1709 
L 2253 4666 
z
" transform="scale(0.015625)"/>
       </defs>
       <use xlink:href="#DejaVuSans-34"/>
       <use xlink:href="#DejaVuSans-30" x="63.623047"/>
       <use xlink:href="#DejaVuSans-30" x="127.246094"/>
       <use xlink:href="#DejaVuSans-30" x="190.869141"/>
      </g>
     </g>
    </g>
    <g id="xtick_6">
     <g id="line2d_6">
      <g>
       <use xlink:href="#m8c71b6082c" x="622.737838" y="384.48" style="stroke: #000000; stroke-width: 0.8"/>
      </g>
     </g>
     <g id="text_6">
      <!-- 5000 -->
      <g transform="translate(610.012838 399.078438)scale(0.1 -0.1)">
       <defs>
        <path id="DejaVuSans-35" d="M 691 4666 
L 3169 4666 
L 3169 4134 
L 1269 4134 
L 1269 2991 
Q 1406 3038 1543 3061 
Q 1681 3084 1819 3084 
Q 2600 3084 3056 2656 
Q 3513 2228 3513 1497 
Q 3513 744 3044 326 
Q 2575 -91 1722 -91 
Q 1428 -91 1123 -41 
Q 819 9 494 109 
L 494 744 
Q 775 591 1075 516 
Q 1375 441 1709 441 
Q 2250 441 2565 725 
Q 2881 1009 2881 1497 
Q 2881 1984 2565 2268 
Q 2250 2553 1709 2553 
Q 1456 2553 1204 2497 
Q 953 2441 691 2322 
L 691 4666 
z
" transform="scale(0.015625)"/>
       </defs>
       <use xlink:href="#DejaVuSans-35"/>
       <use xlink:href="#DejaVuSans-30" x="63.623047"/>
       <use xlink:href="#DejaVuSans-30" x="127.246094"/>
       <use xlink:href="#DejaVuSans-30" x="190.869141"/>
      </g>
     </g>
    </g>
    <g id="text_7">
     <!-- Time [step] -->
     <g transform="translate(340.460156 412.756563)scale(0.1 -0.1)">
      <defs>
       <path id="DejaVuSans-54" d="M -19 4666 
L 3928 4666 
L 3928 4134 
L 2272 4134 
L 2272 0 
L 1638 0 
L 1638 4134 
L -19 4134 
L -19 4666 
z
" transform="scale(0.015625)"/>
       <path id="DejaVuSans-69" d="M 603 3500 
L 1178 3500 
L 1178 0 
L 603 0 
L 603 3500 
z
M 603 4863 
L 1178 4863 
L 1178 4134 
L 603 4134 
L 603 4863 
z
" transform="scale(0.015625)"/>
       <path id="DejaVuSans-6d" d="M 3328 2828 
Q 3544 3216 3844 3400 
Q 4144 3584 4550 3584 
Q 5097 3584 5394 3201 
Q 5691 2819 5691 2113 
L 5691 0 
L 5113 0 
L 5113 2094 
Q 5113 2597 4934 2840 
Q 4756 3084 4391 3084 
Q 3944 3084 3684 2787 
Q 3425 2491 3425 1978 
L 3425 0 
L 2847 0 
L 2847 2094 
Q 2847 2600 2669 2842 
Q 2491 3084 2119 3084 
Q 1678 3084 1418 2786 
Q 1159 2488 1159 1978 
L 1159 0 
L 581 0 
L 581 3500 
L 1159 3500 
L 1159 2956 
Q 1356 3278 1631 3431 
Q 1906 3584 2284 3584 
Q 2666 3584 2933 3390 
Q 3200 3197 3328 2828 
z
" transform="scale(0.015625)"/>
       <path id="DejaVuSans-65" d="M 3597 1894 
L 3597 1613 
L 953 1613 
Q 991 1019 1311 708 
Q 1631 397 2203 397 
Q 2534 397 2845 478 
Q 3156 559 3463 722 
L 3463 178 
Q 3153 47 2828 -22 
Q 2503 -91 2169 -91 
Q 1331 -91 842 396 
Q 353 884 353 1716 
Q 353 2575 817 3079 
Q 1281 3584 2069 3584 
Q 2775 3584 3186 3129 
Q 3597 2675 3597 1894 
z
M 3022 2063 
Q 3016 2534 2758 2815 
Q 2500 3097 2075 3097 
Q 1594 3097 1305 2825 
Q 1016 2553 972 2059 
L 3022 2063 
z
" transform="scale(0.015625)"/>
       <path id="DejaVuSans-20" transform="scale(0.015625)"/>
       <path id="DejaVuSans-5b" d="M 550 4863 
L 1875 4863 
L 1875 4416 
L 1125 4416 
L 1125 -397 
L 1875 -397 
L 1875 -844 
L 550 -844 
L 550 4863 
z
" transform="scale(0.015625)"/>
       <path id="DejaVuSans-73" d="M 2834 3397 
L 2834 2853 
Q 2591 2978 2328 3040 
Q 2066 3103 1784 3103 
Q 1356 3103 1142 2972 
Q 928 2841 928 2578 
Q 928 2378 1081 2264 
Q 1234 2150 1697 2047 
L 1894 2003 
Q 2506 1872 2764 1633 
Q 3022 1394 3022 966 
Q 3022 478 2636 193 
Q 2250 -91 1575 -91 
Q 1294 -91 989 -36 
Q 684 19 347 128 
L 347 722 
Q 666 556 975 473 
Q 1284 391 1588 391 
Q 1994 391 2212 530 
Q 2431 669 2431 922 
Q 2431 1156 2273 1281 
Q 2116 1406 1581 1522 
L 1381 1569 
Q 847 1681 609 1914 
Q 372 2147 372 2553 
Q 372 3047 722 3315 
Q 1072 3584 1716 3584 
Q 2034 3584 2315 3537 
Q 2597 3491 2834 3397 
z
" transform="scale(0.015625)"/>
       <path id="DejaVuSans-74" d="M 1172 4494 
L 1172 3500 
L 2356 3500 
L 2356 3053 
L 1172 3053 
L 1172 1153 
Q 1172 725 1289 603 
Q 1406 481 1766 481 
L 2356 481 
L 2356 0 
L 1766 0 
Q 1100 0 847 248 
Q 594 497 594 1153 
L 594 3053 
L 172 3053 
L 172 3500 
L 594 3500 
L 594 4494 
L 1172 4494 
z
" transform="scale(0.015625)"/>
       <path id="DejaVuSans-70" d="M 1159 525 
L 1159 -1331 
L 581 -1331 
L 581 3500 
L 1159 3500 
L 1159 2969 
Q 1341 3281 1617 3432 
Q 1894 3584 2278 3584 
Q 2916 3584 3314 3078 
Q 3713 2572 3713 1747 
Q 3713 922 3314 415 
Q 2916 -91 2278 -91 
Q 1894 -91 1617 61 
Q 1341 213 1159 525 
z
M 3116 1747 
Q 3116 2381 2855 2742 
Q 2594 3103 2138 3103 
Q 1681 3103 1420 2742 
Q 1159 2381 1159 1747 
Q 1159 1113 1420 752 
Q 1681 391 2138 391 
Q 2594 391 2855 752 
Q 3116 1113 3116 1747 
z
" transform="scale(0.015625)"/>
       <path id="DejaVuSans-5d" d="M 1947 4863 
L 1947 -844 
L 622 -844 
L 622 -397 
L 1369 -397 
L 1369 4416 
L 622 4416 
L 622 4863 
L 1947 4863 
z
" transform="scale(0.015625)"/>
      </defs>
      <use xlink:href="#DejaVuSans-54"/>
      <use xlink:href="#DejaVuSans-69" x="57.958984"/>
      <use xlink:href="#DejaVuSans-6d" x="85.742188"/>
      <use xlink:href="#DejaVuSans-65" x="183.154297"/>
      <use xlink:href="#DejaVuSans-20" x="244.677734"/>
      <use xlink:href="#DejaVuSans-5b" x="276.464844"/>
      <use xlink:href="#DejaVuSans-73" x="315.478516"/>
      <use xlink:href="#DejaVuSans-74" x="367.578125"/>
      <use xlink:href="#DejaVuSans-65" x="406.787109"/>
      <use xlink:href="#DejaVuSans-70" x="468.310547"/>
      <use xlink:href="#DejaVuSans-5d" x="531.787109"/>
     </g>
    </g>
   </g>
   <g id="matplotlib.axis_2">
    <g id="ytick_1">
     <g id="line2d_7">
      <defs>
       <path id="m94d04e9348" d="M 0 0 
L -3.5 0 
" style="stroke: #000000; stroke-width: 0.8"/>
      </defs>
      <g>
       <use xlink:href="#m94d04e9348" x="90" y="370.860124" style="stroke: #000000; stroke-width: 0.8"/>
      </g>
     </g>
     <g id="text_8">
      <!-- 0.0 -->
      <g transform="translate(67.096875 374.659343)scale(0.1 -0.1)">
       <defs>
        <path id="DejaVuSans-2e" d="M 684 794 
L 1344 794 
L 1344 0 
L 684 0 
L 684 794 
z
" transform="scale(0.015625)"/>
       </defs>
       <use xlink:href="#DejaVuSans-30"/>
       <use xlink:href="#DejaVuSans-2e" x="63.623047"/>
       <use xlink:href="#DejaVuSans-30" x="95.410156"/>
      </g>
     </g>
    </g>
    <g id="ytick_2">
     <g id="line2d_8">
      <g>
       <use xlink:href="#m94d04e9348" x="90" y="308.354957" style="stroke: #000000; stroke-width: 0.8"/>
      </g>
     </g>
     <g id="text_9">
      <!-- 0.1 -->
      <g transform="translate(67.096875 312.154175)scale(0.1 -0.1)">
       <use xlink:href="#DejaVuSans-30"/>
       <use xlink:href="#DejaVuSans-2e" x="63.623047"/>
       <use xlink:href="#DejaVuSans-31" x="95.410156"/>
      </g>
     </g>
    </g>
    <g id="ytick_3">
     <g id="line2d_9">
      <g>
       <use xlink:href="#m94d04e9348" x="90" y="245.849789" style="stroke: #000000; stroke-width: 0.8"/>
      </g>
     </g>
     <g id="text_10">
      <!-- 0.2 -->
      <g transform="translate(67.096875 249.649008)scale(0.1 -0.1)">
       <use xlink:href="#DejaVuSans-30"/>
       <use xlink:href="#DejaVuSans-2e" x="63.623047"/>
       <use xlink:href="#DejaVuSans-32" x="95.410156"/>
      </g>
     </g>
    </g>
    <g id="ytick_4">
     <g id="line2d_10">
      <g>
       <use xlink:href="#m94d04e9348" x="90" y="183.344622" style="stroke: #000000; stroke-width: 0.8"/>
      </g>
     </g>
     <g id="text_11">
      <!-- 0.3 -->
      <g transform="translate(67.096875 187.14384)scale(0.1 -0.1)">
       <use xlink:href="#DejaVuSans-30"/>
       <use xlink:href="#DejaVuSans-2e" x="63.623047"/>
       <use xlink:href="#DejaVuSans-33" x="95.410156"/>
      </g>
     </g>
    </g>
    <g id="ytick_5">
     <g id="line2d_11">
      <g>
       <use xlink:href="#m94d04e9348" x="90" y="120.839454" style="stroke: #000000; stroke-width: 0.8"/>
      </g>
     </g>
     <g id="text_12">
      <!-- 0.4 -->
      <g transform="translate(67.096875 124.638673)scale(0.1 -0.1)">
       <use xlink:href="#DejaVuSans-30"/>
       <use xlink:href="#DejaVuSans-2e" x="63.623047"/>
       <use xlink:href="#DejaVuSans-34" x="95.410156"/>
      </g>
     </g>
    </g>
    <g id="ytick_6">
     <g id="line2d_12">
      <g>
       <use xlink:href="#m94d04e9348" x="90" y="58.334287" style="stroke: #000000; stroke-width: 0.8"/>
      </g>
     </g>
     <g id="text_13">
      <!-- 0.5 -->
      <g transform="translate(67.096875 62.133506)scale(0.1 -0.1)">
       <use xlink:href="#DejaVuSans-30"/>
       <use xlink:href="#DejaVuSans-2e" x="63.623047"/>
       <use xlink:href="#DejaVuSans-35" x="95.410156"/>
      </g>
     </g>
    </g>
    <g id="text_14">
     <!-- Density of living cells [%] -->
     <g transform="translate(61.017187 281.674844)rotate(-90)scale(0.1 -0.1)">
      <defs>
       <path id="DejaVuSans-44" d="M 1259 4147 
L 1259 519 
L 2022 519 
Q 2988 519 3436 956 
Q 3884 1394 3884 2338 
Q 3884 3275 3436 3711 
Q 2988 4147 2022 4147 
L 1259 4147 
z
M 628 4666 
L 1925 4666 
Q 3281 4666 3915 4102 
Q 4550 3538 4550 2338 
Q 4550 1131 3912 565 
Q 3275 0 1925 0 
L 628 0 
L 628 4666 
z
" transform="scale(0.015625)"/>
       <path id="DejaVuSans-6e" d="M 3513 2113 
L 3513 0 
L 2938 0 
L 2938 2094 
Q 2938 2591 2744 2837 
Q 2550 3084 2163 3084 
Q 1697 3084 1428 2787 
Q 1159 2491 1159 1978 
L 1159 0 
L 581 0 
L 581 3500 
L 1159 3500 
L 1159 2956 
Q 1366 3272 1645 3428 
Q 1925 3584 2291 3584 
Q 2894 3584 3203 3211 
Q 3513 2838 3513 2113 
z
" transform="scale(0.015625)"/>
       <path id="DejaVuSans-79" d="M 2059 -325 
Q 1816 -950 1584 -1140 
Q 1353 -1331 966 -1331 
L 506 -1331 
L 506 -850 
L 844 -850 
Q 1081 -850 1212 -737 
Q 1344 -625 1503 -206 
L 1606 56 
L 191 3500 
L 800 3500 
L 1894 763 
L 2988 3500 
L 3597 3500 
L 2059 -325 
z
" transform="scale(0.015625)"/>
       <path id="DejaVuSans-6f" d="M 1959 3097 
Q 1497 3097 1228 2736 
Q 959 2375 959 1747 
Q 959 1119 1226 758 
Q 1494 397 1959 397 
Q 2419 397 2687 759 
Q 2956 1122 2956 1747 
Q 2956 2369 2687 2733 
Q 2419 3097 1959 3097 
z
M 1959 3584 
Q 2709 3584 3137 3096 
Q 3566 2609 3566 1747 
Q 3566 888 3137 398 
Q 2709 -91 1959 -91 
Q 1206 -91 779 398 
Q 353 888 353 1747 
Q 353 2609 779 3096 
Q 1206 3584 1959 3584 
z
" transform="scale(0.015625)"/>
       <path id="DejaVuSans-66" d="M 2375 4863 
L 2375 4384 
L 1825 4384 
Q 1516 4384 1395 4259 
Q 1275 4134 1275 3809 
L 1275 3500 
L 2222 3500 
L 2222 3053 
L 1275 3053 
L 1275 0 
L 697 0 
L 697 3053 
L 147 3053 
L 147 3500 
L 697 3500 
L 697 3744 
Q 697 4328 969 4595 
Q 1241 4863 1831 4863 
L 2375 4863 
z
" transform="scale(0.015625)"/>
       <path id="DejaVuSans-6c" d="M 603 4863 
L 1178 4863 
L 1178 0 
L 603 0 
L 603 4863 
z
" transform="scale(0.015625)"/>
       <path id="DejaVuSans-76" d="M 191 3500 
L 800 3500 
L 1894 563 
L 2988 3500 
L 3597 3500 
L 2284 0 
L 1503 0 
L 191 3500 
z
" transform="scale(0.015625)"/>
       <path id="DejaVuSans-67" d="M 2906 1791 
Q 2906 2416 2648 2759 
Q 2391 3103 1925 3103 
Q 1463 3103 1205 2759 
Q 947 2416 947 1791 
Q 947 1169 1205 825 
Q 1463 481 1925 481 
Q 2391 481 2648 825 
Q 2906 1169 2906 1791 
z
M 3481 434 
Q 3481 -459 3084 -895 
Q 2688 -1331 1869 -1331 
Q 1566 -1331 1297 -1286 
Q 1028 -1241 775 -1147 
L 775 -588 
Q 1028 -725 1275 -790 
Q 1522 -856 1778 -856 
Q 2344 -856 2625 -561 
Q 2906 -266 2906 331 
L 2906 616 
Q 2728 306 2450 153 
Q 2172 0 1784 0 
Q 1141 0 747 490 
Q 353 981 353 1791 
Q 353 2603 747 3093 
Q 1141 3584 1784 3584 
Q 2172 3584 2450 3431 
Q 2728 3278 2906 2969 
L 2906 3500 
L 3481 3500 
L 3481 434 
z
" transform="scale(0.015625)"/>
       <path id="DejaVuSans-63" d="M 3122 3366 
L 3122 2828 
Q 2878 2963 2633 3030 
Q 2388 3097 2138 3097 
Q 1578 3097 1268 2742 
Q 959 2388 959 1747 
Q 959 1106 1268 751 
Q 1578 397 2138 397 
Q 2388 397 2633 464 
Q 2878 531 3122 666 
L 3122 134 
Q 2881 22 2623 -34 
Q 2366 -91 2075 -91 
Q 1284 -91 818 406 
Q 353 903 353 1747 
Q 353 2603 823 3093 
Q 1294 3584 2113 3584 
Q 2378 3584 2631 3529 
Q 2884 3475 3122 3366 
z
" transform="scale(0.015625)"/>
       <path id="DejaVuSans-25" d="M 4653 2053 
Q 4381 2053 4226 1822 
Q 4072 1591 4072 1178 
Q 4072 772 4226 539 
Q 4381 306 4653 306 
Q 4919 306 5073 539 
Q 5228 772 5228 1178 
Q 5228 1588 5073 1820 
Q 4919 2053 4653 2053 
z
M 4653 2450 
Q 5147 2450 5437 2106 
Q 5728 1763 5728 1178 
Q 5728 594 5436 251 
Q 5144 -91 4653 -91 
Q 4153 -91 3862 251 
Q 3572 594 3572 1178 
Q 3572 1766 3864 2108 
Q 4156 2450 4653 2450 
z
M 1428 4353 
Q 1159 4353 1004 4120 
Q 850 3888 850 3481 
Q 850 3069 1003 2837 
Q 1156 2606 1428 2606 
Q 1700 2606 1854 2837 
Q 2009 3069 2009 3481 
Q 2009 3884 1853 4118 
Q 1697 4353 1428 4353 
z
M 4250 4750 
L 4750 4750 
L 1831 -91 
L 1331 -91 
L 4250 4750 
z
M 1428 4750 
Q 1922 4750 2215 4408 
Q 2509 4066 2509 3481 
Q 2509 2891 2217 2550 
Q 1925 2209 1428 2209 
Q 931 2209 642 2551 
Q 353 2894 353 3481 
Q 353 4063 643 4406 
Q 934 4750 1428 4750 
z
" transform="scale(0.015625)"/>
      </defs>
      <use xlink:href="#DejaVuSans-44"/>
      <use xlink:href="#DejaVuSans-65" x="77.001953"/>
      <use xlink:href="#DejaVuSans-6e" x="138.525391"/>
      <use xlink:href="#DejaVuSans-73" x="201.904297"/>
      <use xlink:href="#DejaVuSans-69" x="254.003906"/>
      <use xlink:href="#DejaVuSans-74" x="281.787109"/>
      <use xlink:href="#DejaVuSans-79" x="320.996094"/>
      <use xlink:href="#DejaVuSans-20" x="380.175781"/>
      <use xlink:href="#DejaVuSans-6f" x="411.962891"/>
      <use xlink:href="#DejaVuSans-66" x="473.144531"/>
      <use xlink:href="#DejaVuSans-20" x="508.349609"/>
      <use xlink:href="#DejaVuSans-6c" x="540.136719"/>
      <use xlink:href="#DejaVuSans-69" x="567.919922"/>
      <use xlink:href="#DejaVuSans-76" x="595.703125"/>
      <use xlink:href="#DejaVuSans-69" x="654.882812"/>
      <use xlink:href="#DejaVuSans-6e" x="682.666016"/>
      <use xlink:href="#DejaVuSans-67" x="746.044922"/>
      <use xlink:href="#DejaVuSans-20" x="809.521484"/>
      <use xlink:href="#DejaVuSans-63" x="841.308594"/>
      <use xlink:href="#DejaVuSans-65" x="896.289062"/>
      <use xlink:href="#DejaVuSans-6c" x="957.8125"/>
      <use xlink:href="#DejaVuSans-6c" x="985.595703"/>
      <use xlink:href="#DejaVuSans-73" x="1013.378906"/>
      <use xlink:href="#DejaVuSans-20" x="1065.478516"/>
      <use xlink:href="#DejaVuSans-5b" x="1097.265625"/>
      <use xlink:href="#DejaVuSans-25" x="1136.279297"/>
      <use xlink:href="#DejaVuSans-5d" x="1231.298828"/>
     </g>
    </g>
   </g>
   <g id="line2d_13">
    <path d="M 115.363636 66.96 
L 115.972485 92.649624 
L 116.47986 101.650368 
L 116.581334 101.775378 
L 116.682809 102.150409 
L 116.987234 105.463183 
L 117.088709 104.838131 
L 117.291658 107.463348 
L 117.393133 106.900802 
L 117.697558 108.838462 
L 117.799033 108.150905 
L 117.900507 110.088566 
L 118.001982 109.150988 
L 118.204932 110.901133 
L 118.306407 109.526019 
L 118.407882 109.588524 
L 118.509356 109.401009 
L 118.610831 109.651029 
L 118.712306 111.151153 
L 118.813781 110.401091 
L 119.118205 113.838876 
L 119.21968 114.151401 
L 119.42263 116.214072 
L 119.524105 115.526515 
L 119.62558 117.27666 
L 119.727055 116.839124 
L 119.828529 116.964134 
L 120.031479 120.026887 
L 120.234429 118.839289 
L 120.538853 121.27699 
L 120.741803 122.714609 
L 120.944753 121.714527 
L 121.046227 122.83962 
L 121.147702 122.589599 
L 121.350652 124.402249 
L 121.553602 125.652352 
L 121.655076 125.964878 
L 121.858026 124.964795 
L 122.060976 127.027466 
L 122.263926 127.465002 
L 122.3654 126.71494 
L 122.466875 127.465002 
L 122.56835 126.777445 
L 122.669825 127.652518 
L 122.7713 127.590012 
L 122.872775 127.965043 
L 122.974249 129.215147 
L 123.075724 128.340074 
L 123.278674 129.277652 
L 123.380149 128.52759 
L 123.481624 129.215147 
L 123.583098 128.340074 
L 123.786048 129.652683 
L 123.887523 128.6526 
L 124.090473 130.777776 
L 124.394897 129.590178 
L 124.699322 130.402745 
L 124.800797 129.277652 
L 125.003746 130.59026 
L 125.105221 130.34024 
L 125.308171 131.215312 
L 125.51112 133.215477 
L 125.71407 132.215395 
L 125.815545 132.590426 
L 125.91702 132.527921 
L 126.119969 132.215395 
L 126.221444 132.965457 
L 126.322919 131.715353 
L 126.525869 133.277983 
L 126.627344 133.340488 
L 126.728818 134.153055 
L 126.830293 133.528003 
L 126.931768 133.590508 
L 127.033243 134.590591 
L 127.134718 134.465581 
L 127.337668 133.152972 
L 127.439142 133.027962 
L 127.642092 134.653096 
L 127.845042 133.528003 
L 127.946517 133.528003 
L 128.250941 134.653096 
L 128.453891 134.028045 
L 128.65684 133.653014 
L 128.758315 132.527921 
L 128.961265 133.778024 
L 129.06274 133.778024 
L 129.164215 134.153055 
L 129.26569 133.903034 
L 129.468639 134.778107 
L 129.671589 134.153055 
L 129.773064 134.590591 
L 129.874539 134.403076 
L 129.976013 134.903117 
L 130.077488 134.403076 
L 130.178963 134.903117 
L 130.280438 134.778107 
L 130.381913 134.403076 
L 130.483388 135.528169 
L 130.584862 135.403158 
L 130.686337 133.277983 
L 130.787812 134.153055 
L 130.990762 133.027962 
L 131.092237 134.028045 
L 131.193711 133.528003 
L 131.295186 134.09055 
L 131.396661 133.965539 
L 131.498136 135.465663 
L 131.599611 134.715601 
L 131.802561 135.840695 
L 132.00551 134.653096 
L 132.20846 135.840695 
L 132.309935 135.465663 
L 132.512884 136.715767 
L 132.614359 136.840777 
L 132.817309 138.278396 
L 132.918784 138.278396 
L 133.020259 138.403406 
L 133.121733 138.090881 
L 133.223208 138.340901 
L 133.426158 137.153303 
L 133.527633 136.778272 
L 133.730582 137.96587 
L 133.832057 137.653344 
L 133.933532 139.278479 
L 134.035007 138.403406 
L 134.237957 138.778437 
L 134.339432 138.403406 
L 134.440906 138.778437 
L 134.542381 138.153386 
L 134.643856 138.903448 
L 134.846806 138.153386 
L 134.948281 138.653427 
L 135.252705 137.778355 
L 135.55713 139.77852 
L 135.658604 138.528417 
L 135.760079 138.778437 
L 136.064504 137.465829 
L 136.165979 136.715767 
L 136.368928 137.215808 
L 136.571878 137.84086 
L 136.876303 137.153303 
L 137.079252 138.403406 
L 137.180727 139.153468 
L 137.282202 137.528334 
L 137.383677 138.528417 
L 137.688101 137.96587 
L 137.891051 137.090798 
L 137.992526 137.090798 
L 138.094001 136.465746 
L 138.195475 136.590757 
L 138.29695 137.96587 
L 138.398425 137.84086 
L 138.4999 137.96587 
L 138.601375 137.71585 
L 138.804325 139.340984 
L 138.905799 138.215891 
L 139.007274 138.340901 
L 139.108749 137.465829 
L 139.311699 138.090881 
L 139.514648 138.590922 
L 139.616123 137.84086 
L 139.819073 138.215891 
L 139.920548 137.71585 
L 140.022023 138.215891 
L 140.123497 138.090881 
L 140.326447 137.590839 
L 140.427922 137.465829 
L 140.529397 136.840777 
L 140.630872 137.340819 
L 140.732346 136.840777 
L 140.833821 136.965788 
L 141.036771 135.590674 
L 141.138246 136.840777 
L 141.239721 136.778272 
L 141.341196 136.340736 
L 141.44267 136.965788 
L 141.64562 136.090715 
L 141.747095 136.590757 
L 141.84857 136.465746 
L 142.152994 134.965622 
L 142.254469 135.465663 
L 142.355944 134.965622 
L 142.457419 135.653179 
L 142.761843 133.840529 
L 142.863318 133.965539 
L 142.964793 132.965457 
L 143.066268 133.840529 
L 143.269217 132.465415 
L 143.370692 132.590426 
L 143.776592 134.590591 
L 143.979541 134.028045 
L 144.081016 133.840529 
L 144.182491 133.965539 
L 144.283966 134.653096 
L 144.385441 134.590591 
L 144.486916 134.778107 
L 144.58839 135.278148 
L 144.689865 134.778107 
L 144.79134 135.528169 
L 144.99429 135.153138 
L 145.197239 134.153055 
L 145.298714 134.528086 
L 145.501664 133.277983 
L 145.704614 134.09055 
L 145.806088 133.840529 
L 145.907563 134.21556 
L 146.009038 133.215477 
L 146.110513 134.465581 
L 146.313463 134.09055 
L 146.617887 135.715684 
L 146.820837 135.340653 
L 147.023787 136.340736 
L 147.125261 136.715767 
L 147.328211 135.965705 
L 147.429686 136.090715 
L 147.531161 135.465663 
L 147.632636 135.590674 
L 147.835585 135.403158 
L 148.038535 136.02821 
L 148.14001 136.403241 
L 148.34296 136.02821 
L 148.647384 135.840695 
L 148.850334 136.215726 
L 149.053283 134.965622 
L 149.154758 135.215643 
L 149.256233 134.590591 
L 149.357708 135.590674 
L 149.459183 134.965622 
L 149.763607 136.715767 
L 149.865082 136.340736 
L 149.966557 136.465746 
L 150.169507 135.840695 
L 150.270981 136.15322 
L 150.372456 135.653179 
L 150.473931 136.528251 
L 150.676881 135.153138 
L 151.184255 137.84086 
L 151.28573 137.090798 
L 151.691629 137.96587 
L 151.793104 137.215808 
L 151.894579 137.590839 
L 152.097529 139.090963 
L 152.300478 138.090881 
L 152.401953 138.340901 
L 152.503428 137.71585 
L 152.604903 137.84086 
L 152.706378 138.465912 
L 152.909327 137.84086 
L 153.416702 139.340984 
L 153.518176 138.840943 
L 153.619651 138.965953 
L 153.822601 140.341067 
L 153.924076 139.215974 
L 154.025551 139.465994 
L 154.2285 138.965953 
L 154.43145 140.091046 
L 154.532925 139.591005 
L 154.837349 141.091129 
L 154.938824 140.716098 
L 155.040299 141.091129 
L 155.446198 139.465994 
L 155.649148 141.341149 
L 155.750623 141.216139 
L 155.953573 140.591087 
L 156.055047 140.591087 
L 156.156522 140.341067 
L 156.359472 140.716098 
L 156.460947 139.716015 
L 156.663896 141.46616 
L 156.765371 140.341067 
L 156.968321 141.59117 
L 157.171271 142.341232 
L 157.37422 141.341149 
L 157.475695 141.966201 
L 157.678645 140.341067 
L 157.78012 140.591087 
L 157.983069 139.841025 
L 158.186019 139.591005 
L 158.388969 139.841025 
L 158.490444 139.465994 
L 158.693393 140.403572 
L 158.896343 140.153551 
L 158.997818 140.653592 
L 159.200767 139.528499 
L 159.302242 140.653592 
L 159.505192 140.028541 
L 159.606667 139.90353 
L 159.708142 140.278561 
L 160.012566 139.278479 
L 160.114041 140.028541 
L 160.215516 138.778437 
L 160.316991 138.903448 
L 160.51994 138.028375 
L 160.72289 138.153386 
L 160.92584 137.278313 
L 161.027315 137.653344 
L 161.230264 137.403324 
L 161.433214 137.653344 
L 161.534689 138.403406 
L 161.839113 136.778272 
L 161.940588 137.653344 
L 162.042063 137.528334 
L 162.245013 136.15322 
L 162.346487 136.278231 
L 162.447962 134.403076 
L 162.650912 135.278148 
L 162.752387 135.153138 
L 162.853862 135.153138 
L 163.056811 133.778024 
L 163.158286 134.028045 
L 163.259761 133.778024 
L 163.462711 134.528086 
L 163.66566 133.778024 
L 163.767135 134.028045 
L 163.86861 133.778024 
L 164.07156 134.278065 
L 164.173035 133.653014 
L 164.274509 134.028045 
L 164.375984 133.402993 
L 164.477459 133.528003 
L 164.680409 131.777859 
L 164.781884 132.40291 
L 164.984833 132.027879 
L 165.086308 132.40291 
L 165.289258 131.402828 
L 165.390733 131.777859 
L 165.593682 130.152724 
L 165.695157 130.527755 
L 165.796632 129.902704 
L 165.898107 131.027797 
L 165.999582 130.277735 
L 166.101057 130.527755 
L 166.202531 130.402745 
L 166.304006 130.652766 
L 166.405481 131.277817 
L 166.506956 131.027797 
L 166.608431 130.152724 
L 166.709906 130.527755 
L 166.81138 129.715188 
L 166.912855 130.215229 
L 167.01433 129.715188 
L 167.115805 129.965209 
L 167.21728 129.590178 
L 167.42023 129.715188 
L 167.521704 130.715271 
L 167.826129 129.465167 
L 167.927604 130.965291 
L 168.029079 129.715188 
L 168.232028 131.277817 
L 168.333503 130.277735 
L 168.434978 130.527755 
L 168.536453 130.277735 
L 168.739402 129.527673 
L 168.840877 130.652766 
L 168.942352 130.277735 
L 169.145302 130.527755 
L 169.246777 131.152807 
L 169.551201 130.715271 
L 169.754151 131.215312 
L 169.957101 130.46525 
L 170.058575 130.777776 
L 170.261525 130.402745 
L 170.363 130.652766 
L 170.56595 130.152724 
L 170.667424 130.027714 
L 170.768899 129.402662 
L 170.870374 130.402745 
L 170.971849 129.402662 
L 171.073324 130.652766 
L 171.174799 130.152724 
L 171.276273 130.527755 
L 171.479223 129.965209 
L 171.580698 129.965209 
L 171.682173 130.34024 
L 171.783648 129.590178 
L 171.986597 130.152724 
L 172.088072 129.902704 
L 172.291022 130.777776 
L 172.493972 131.277817 
L 172.595446 131.652848 
L 172.696921 131.027797 
L 172.899871 132.027879 
L 173.001346 131.777859 
L 173.102821 131.215312 
L 173.204295 129.965209 
L 173.30577 130.027714 
L 173.407245 130.090219 
L 173.813144 131.340322 
L 173.914619 130.840281 
L 174.117569 131.340322 
L 174.219044 131.340322 
L 174.421993 131.840364 
L 174.523468 131.715353 
L 174.624943 130.965291 
L 174.726418 132.340405 
L 174.827893 130.965291 
L 175.030843 132.715436 
L 175.132317 132.215395 
L 175.233792 132.340405 
L 175.335267 132.715436 
L 175.436742 132.465415 
L 175.639692 133.903034 
L 175.741166 133.903034 
L 175.842641 134.778107 
L 176.045591 133.653014 
L 176.147066 133.778024 
L 176.248541 134.903117 
L 176.350015 134.590591 
L 176.45149 134.715601 
L 176.65444 135.340653 
L 176.755915 135.215643 
L 177.161814 136.465746 
L 177.263289 137.090798 
L 177.364764 135.590674 
L 177.567714 137.215808 
L 177.669188 137.590839 
L 177.872138 138.465912 
L 177.973613 137.96587 
L 178.075088 138.840943 
L 178.176563 138.590922 
L 178.278037 139.090963 
L 178.480987 138.465912 
L 178.582462 138.215891 
L 178.785412 139.215974 
L 178.886886 138.465912 
L 178.988361 138.965953 
L 179.089836 138.715932 
L 179.292786 139.340984 
L 179.394261 139.340984 
L 179.495736 138.215891 
L 179.59721 138.965953 
L 179.698685 138.840943 
L 179.80016 139.340984 
L 180.00311 139.215974 
L 180.104585 139.591005 
L 180.206059 138.590922 
L 180.409009 139.966036 
L 180.713434 138.340901 
L 180.916383 138.715932 
L 181.119333 138.340901 
L 181.322283 138.715932 
L 181.423757 139.340984 
L 181.525232 137.215808 
L 181.626707 138.215891 
L 181.829657 137.84086 
L 181.931132 138.090881 
L 182.134081 137.71585 
L 182.235556 138.965953 
L 182.337031 137.84086 
L 182.641456 138.965953 
L 182.74293 138.715932 
L 182.844405 138.840943 
L 182.94588 137.96587 
L 183.250305 139.966036 
L 183.351779 138.965953 
L 183.554729 140.091046 
L 183.757679 141.216139 
L 183.859154 139.841025 
L 184.062103 140.841108 
L 184.163578 140.591087 
L 184.366528 142.591253 
L 184.569478 141.966201 
L 184.772427 142.966284 
L 184.975377 142.966284 
L 185.178327 143.216304 
L 185.279801 143.216304 
L 185.381276 144.341397 
L 185.685701 143.591335 
L 185.787176 143.903861 
L 185.990125 143.52883 
L 186.0916 143.903861 
L 186.193075 144.903944 
L 186.396025 143.778851 
L 186.497499 143.903861 
L 186.801924 143.40382 
L 186.903399 143.40382 
L 187.207823 144.403902 
L 187.309298 144.278892 
L 187.410773 144.778933 
L 187.512248 144.403902 
L 187.613723 145.153964 
L 187.715198 144.028871 
L 187.816672 144.528913 
L 187.918147 144.028871 
L 188.019622 144.153882 
L 188.222572 144.653923 
L 188.324047 144.278892 
L 188.425521 144.403902 
L 188.628471 144.153882 
L 188.831421 145.153964 
L 188.932896 145.654006 
L 189.034371 145.528995 
L 189.338795 146.279057 
L 189.44027 146.904109 
L 189.541745 146.654088 
L 189.64322 147.27914 
L 189.846169 146.904109 
L 189.947644 146.404068 
L 190.049119 146.529078 
L 190.150594 146.404068 
L 190.252069 147.341645 
L 190.556493 146.591583 
L 190.657968 146.779099 
L 190.759443 146.029037 
L 190.860918 146.529078 
L 190.962392 145.528995 
L 191.165342 146.779099 
L 191.266817 146.904109 
L 191.368292 146.029037 
L 191.571242 147.15413 
L 191.774191 147.529161 
L 191.875666 147.779181 
L 192.078616 148.654254 
L 192.281565 148.404233 
L 192.38304 148.654254 
L 192.58599 148.279223 
L 192.78894 149.279305 
L 192.890414 148.279223 
L 193.093364 148.779264 
L 193.194839 148.654254 
L 193.499263 149.904357 
L 193.600738 149.404316 
L 194.209587 151.654502 
L 194.412537 151.279471 
L 194.716962 151.529492 
L 194.818436 152.029533 
L 194.919911 151.529492 
L 195.122861 152.529574 
L 195.224336 152.529574 
L 195.427285 153.154626 
L 195.52876 152.654585 
L 195.73171 153.529657 
L 195.833185 152.654585 
L 196.036134 153.904688 
L 196.137609 154.404729 
L 196.340559 153.529657 
L 196.442034 153.779678 
L 196.543509 153.529657 
L 196.644984 153.779678 
L 196.746458 154.65475 
L 196.847933 154.52974 
L 196.949408 153.654667 
L 197.050883 154.52974 
L 197.152358 153.654667 
L 197.253833 153.779678 
L 197.456782 154.342224 
L 197.558257 153.967193 
L 197.659732 154.842265 
L 197.761207 154.467234 
L 198.167106 155.842348 
L 198.370056 155.842348 
L 198.471531 156.092369 
L 198.67448 155.467317 
L 198.87743 156.342389 
L 198.978905 155.967358 
L 199.08038 157.217462 
L 199.181855 155.967358 
L 199.283329 156.092369 
L 199.384804 156.71742 
L 199.486279 155.842348 
L 199.587754 156.342389 
L 199.689229 156.217379 
L 199.790704 156.71742 
L 199.993653 155.967358 
L 200.095128 156.092369 
L 200.196603 156.71742 
L 200.298078 156.217379 
L 200.501027 157.092451 
L 200.602502 157.092451 
L 200.703977 157.592493 
L 200.805452 156.967441 
L 201.008402 157.842513 
L 201.109877 156.967441 
L 201.312826 157.467482 
L 201.414301 156.217379 
L 201.617251 157.342472 
L 202.02315 157.717503 
L 202.327575 157.342472 
L 202.429049 157.592493 
L 202.631999 158.967606 
L 202.834949 158.092534 
L 203.342323 159.592658 
L 203.646748 159.280132 
L 203.748222 159.655163 
L 203.849697 159.030112 
L 203.951172 159.530153 
L 204.154122 159.280132 
L 204.255597 160.405225 
L 204.357071 159.780174 
L 204.458546 160.655246 
L 204.661496 159.655163 
L 204.762971 160.155205 
L 204.864446 159.280132 
L 205.067395 159.655163 
L 205.270345 160.655246 
L 205.37182 160.655246 
L 205.473295 160.155205 
L 205.574769 160.530236 
L 205.777719 159.655163 
L 205.879194 159.780174 
L 205.980669 160.405225 
L 206.082144 159.530153 
L 206.285093 159.780174 
L 206.386568 160.530236 
L 206.488043 160.405225 
L 206.893942 161.655329 
L 206.995417 161.280298 
L 207.198367 161.905349 
L 207.401317 162.655411 
L 207.502791 162.405391 
L 207.807216 163.780504 
L 207.908691 163.905515 
L 208.010166 164.280546 
L 208.111641 163.655494 
L 208.31459 164.905597 
L 208.619015 165.280628 
L 208.72049 165.030608 
L 208.821964 165.280628 
L 208.923439 165.155618 
L 209.024914 165.405639 
L 209.126389 165.280628 
L 209.329339 165.78067 
L 209.430813 165.030608 
L 209.532288 165.78067 
L 209.633763 165.530649 
L 209.735238 165.90568 
L 209.836713 164.655577 
L 210.141137 165.90568 
L 210.242612 164.655577 
L 210.749986 166.530732 
L 210.952936 165.90568 
L 211.155886 166.905763 
L 211.257361 167.030773 
L 211.46031 167.655825 
L 211.561785 166.905763 
L 211.764735 168.030856 
L 211.967684 168.405887 
L 212.170634 168.655907 
L 212.272109 168.280876 
L 212.373584 169.405969 
L 212.475059 169.155949 
L 212.779483 169.65599 
L 212.982433 170.031021 
L 213.185383 170.906093 
L 213.286857 170.531062 
L 213.489807 171.781166 
L 213.591282 171.656155 
L 213.997181 173.031269 
L 214.301606 172.656238 
L 214.60603 173.656321 
L 214.707505 173.031269 
L 214.80898 173.781331 
L 215.01193 173.53131 
L 215.113404 173.906341 
L 215.214879 173.656321 
L 215.417829 173.906341 
L 215.519304 174.656403 
L 215.722254 174.156362 
L 215.925203 175.156445 
L 216.026678 174.281372 
L 216.128153 174.531393 
L 216.229628 174.156362 
L 216.432577 174.531393 
L 216.534052 174.156362 
L 216.737002 175.156445 
L 216.838477 175.031434 
L 216.939952 174.531393 
L 217.041426 175.406465 
L 217.142901 174.906424 
L 217.345851 175.656486 
L 217.548801 176.281538 
L 217.650276 175.906507 
L 217.75175 176.781579 
L 217.853225 175.656486 
L 217.9547 176.281538 
L 218.056175 175.781496 
L 218.360599 176.906589 
L 218.462074 176.406548 
L 218.563549 176.531558 
L 218.665024 176.281538 
L 218.867974 176.906589 
L 218.969448 176.031517 
L 219.070923 177.0316 
L 219.172398 176.031517 
L 219.375348 176.781579 
L 219.476823 176.531558 
L 219.578297 176.781579 
L 219.679772 177.781662 
L 219.882722 177.656652 
L 219.984197 178.031683 
L 220.085672 177.281621 
L 220.288621 178.344208 
L 220.491571 178.219198 
L 220.694521 179.219281 
L 220.795996 178.719239 
L 220.89747 179.469301 
L 220.998945 179.09427 
L 221.201895 180.344374 
L 221.30337 179.719322 
L 221.506319 179.969343 
L 221.607794 179.969343 
L 221.709269 180.344374 
L 221.912219 179.844332 
L 222.013694 179.719322 
L 222.318118 180.219363 
L 222.419593 180.344374 
L 222.521068 179.969343 
L 222.622543 181.219446 
L 222.724018 180.344374 
L 222.825492 180.594394 
L 222.926967 180.469384 
L 223.129917 181.969508 
L 223.231392 181.219446 
L 223.332867 181.969508 
L 223.434341 181.844498 
L 223.637291 182.71957 
L 223.738766 182.71957 
L 223.941716 183.094601 
L 224.04319 183.344622 
L 224.144665 184.344704 
L 224.347615 183.844663 
L 224.44909 184.094684 
L 224.550565 183.594642 
L 224.753514 184.219694 
L 224.854989 184.094684 
L 225.057939 183.219611 
L 225.260889 184.219694 
L 225.463838 183.719653 
L 225.565313 184.344704 
L 225.768263 183.344622 
L 225.869738 183.469632 
L 225.971212 183.219611 
L 226.275637 184.469715 
L 226.377112 183.969673 
L 226.478587 185.094766 
L 226.681536 184.344704 
L 226.783011 183.969673 
L 226.884486 184.469715 
L 226.985961 183.969673 
L 227.087436 184.219694 
L 227.188911 183.969673 
L 227.493335 184.969756 
L 227.59481 185.344787 
L 227.696285 184.594725 
L 227.899234 186.34487 
L 228.000709 185.844828 
L 228.203659 186.844911 
L 228.406609 185.969839 
L 228.609558 186.219859 
L 228.711033 186.219859 
L 228.812508 186.34487 
L 228.913983 185.719818 
L 229.015458 186.46988 
L 229.319882 185.969839 
L 229.522832 186.59489 
L 229.624307 186.219859 
L 229.725782 186.844911 
L 229.827256 186.719901 
L 229.928731 187.344952 
L 230.030206 186.969921 
L 230.131681 187.094932 
L 230.233156 187.469963 
L 230.436105 187.219942 
L 230.53758 187.469963 
L 230.639055 187.344952 
L 230.74053 187.469963 
L 230.842005 187.219942 
L 230.94348 186.34487 
L 231.044954 186.719901 
L 231.146429 187.844994 
L 231.247904 187.469963 
L 231.349379 187.970004 
L 231.450854 187.344952 
L 231.552329 188.595056 
L 231.653803 187.970004 
L 231.856753 188.470045 
L 231.958228 188.220025 
L 232.059703 188.470045 
L 232.161178 188.345035 
L 232.262653 188.845076 
L 232.465602 188.095014 
L 232.770027 189.095097 
L 232.871502 188.720066 
L 232.972976 189.220107 
L 233.074451 190.3452 
L 233.175926 190.09518 
L 233.480351 191.095263 
L 233.581825 192.220356 
L 233.6833 191.470294 
L 233.88625 192.470376 
L 233.987725 192.345366 
L 234.0892 192.970418 
L 234.190674 192.470376 
L 234.292149 193.345449 
L 234.393624 193.095428 
L 234.495099 193.220438 
L 234.698049 194.470542 
L 234.900998 193.84549 
L 235.002473 194.345531 
L 235.205423 194.095511 
L 235.306898 194.470542 
L 235.408373 194.345531 
L 235.611322 195.720645 
L 235.712797 195.470624 
L 235.915747 195.845655 
L 236.118696 195.595635 
L 236.220171 195.970666 
L 236.321646 195.845655 
L 236.423121 196.345697 
L 236.524596 196.220686 
L 236.626071 196.345697 
L 236.82902 195.720645 
L 237.03197 195.845655 
L 237.133445 196.845738 
L 237.23492 196.345697 
L 237.437869 197.220769 
L 237.539344 197.220769 
L 237.640819 197.845821 
L 237.742294 197.72081 
L 237.843769 197.845821 
L 238.249668 199.345945 
L 238.351143 198.595883 
L 238.655567 199.220934 
L 238.757042 200.221017 
L 238.858517 200.096007 
L 238.959992 200.221017 
L 239.061467 200.096007 
L 239.162942 200.221017 
L 239.264417 199.595965 
L 239.467366 200.596048 
L 239.568841 200.846069 
L 239.670316 200.471038 
L 239.771791 201.47112 
L 239.873266 201.2211 
L 240.17769 202.846234 
L 240.279165 202.596213 
L 240.482115 203.346275 
L 240.583589 202.846234 
L 240.685064 203.721306 
L 240.786539 203.471286 
L 240.989489 203.846317 
L 241.090964 203.346275 
L 241.293913 204.846399 
L 241.395388 204.846399 
L 241.598338 205.471451 
L 241.699813 205.596461 
L 241.801288 204.596379 
L 242.004237 205.471451 
L 242.207187 204.346358 
L 242.308662 203.846317 
L 242.410137 204.596379 
L 242.511611 204.471368 
L 242.613086 204.721389 
L 242.714561 204.596379 
L 242.917511 204.97141 
L 243.12046 204.346358 
L 243.32341 205.22143 
L 243.424885 204.721389 
L 243.627835 205.471451 
L 243.830784 204.221348 
L 243.932259 204.096337 
L 244.135209 204.471368 
L 244.236684 204.721389 
L 244.338159 204.408863 
L 244.642583 206.409029 
L 244.744058 206.534039 
L 244.947008 206.033998 
L 245.048482 206.159008 
L 245.149957 206.78406 
L 245.251432 206.159008 
L 245.352907 206.78406 
L 245.454382 206.659049 
L 245.657331 207.03408 
L 245.758806 206.78406 
L 245.860281 205.908987 
L 246.063231 206.78406 
L 246.164706 206.284018 
L 246.266181 206.534039 
L 246.367655 205.908987 
L 246.570605 206.284018 
L 246.67208 205.658967 
L 246.773555 206.284018 
L 246.87503 206.159008 
L 247.179454 206.78406 
L 247.280929 206.659049 
L 247.382404 206.78406 
L 247.483879 206.033998 
L 247.585353 206.78406 
L 247.686828 206.659049 
L 247.788303 207.159091 
L 247.889778 206.90907 
L 247.991253 207.409111 
L 248.092728 207.159091 
L 248.295677 207.784142 
L 248.498627 207.409111 
L 248.701577 208.409194 
L 248.904526 208.034163 
L 249.006001 208.409194 
L 249.107476 207.909153 
L 249.208951 209.034246 
L 249.310426 208.159173 
L 249.513375 209.159256 
L 249.61485 209.159256 
L 249.716325 208.909235 
L 249.8178 210.034328 
L 249.919275 209.534287 
L 250.02075 210.284349 
L 250.223699 209.909318 
L 250.426649 209.409277 
L 250.528124 210.409359 
L 250.629599 209.909318 
L 251.035498 211.534452 
L 251.238448 212.284514 
L 251.339923 211.534452 
L 251.441397 211.659463 
L 251.745822 212.909566 
L 251.847297 212.409525 
L 252.050246 212.784556 
L 252.253196 213.784638 
L 252.456146 214.5347 
L 252.557621 214.5347 
L 252.76057 215.097247 
L 252.96352 215.472278 
L 253.064995 215.222257 
L 253.16647 215.722298 
L 253.267944 214.847226 
L 253.470894 215.097247 
L 253.572369 214.597205 
L 253.775319 215.222257 
L 253.876794 214.597205 
L 254.079743 216.097329 
L 254.282693 217.097412 
L 254.384168 216.597371 
L 254.485643 216.972402 
L 254.587117 217.847474 
L 254.790067 217.097412 
L 254.891542 216.972402 
L 254.993017 217.097412 
L 255.195966 217.597453 
L 255.297441 217.972484 
L 255.398916 217.847474 
L 255.703341 218.472526 
L 255.804816 218.472526 
L 256.007765 218.847557 
L 256.210715 218.097495 
L 256.31219 218.222505 
L 256.413665 218.597536 
L 256.616614 218.472526 
L 256.718089 218.472526 
L 257.022514 220.09766 
L 257.225463 219.722629 
L 257.428413 220.347681 
L 257.529888 220.597702 
L 257.631363 220.472691 
L 258.037262 220.972733 
L 258.138737 220.722712 
L 258.240212 221.222753 
L 258.443161 220.597702 
L 258.544636 220.472691 
L 258.646111 220.09766 
L 258.747586 220.347681 
L 258.849061 220.972733 
L 259.05201 219.722629 
L 259.153485 220.472691 
L 259.25496 219.97265 
L 259.559385 222.097826 
L 259.762334 221.722795 
L 259.863809 221.972815 
L 259.965284 222.722877 
L 260.066759 222.472857 
L 260.168234 222.972898 
L 260.371183 222.722877 
L 260.574133 223.097908 
L 260.675608 222.972898 
L 260.777083 222.347846 
L 260.980032 223.347929 
L 261.284457 224.348012 
L 261.385932 224.097991 
L 261.690356 225.160579 
L 261.791831 225.160579 
L 261.893306 225.410599 
L 261.994781 225.160579 
L 262.096256 225.410599 
L 262.19773 225.285589 
L 262.502155 226.160661 
L 262.705105 225.910641 
L 262.908054 226.035651 
L 263.111004 226.910723 
L 263.415429 227.785796 
L 263.618378 227.535775 
L 263.719853 227.785796 
L 263.821328 227.660785 
L 264.024278 228.660868 
L 264.125752 227.910806 
L 264.227227 228.785878 
L 264.328702 228.035816 
L 264.633127 229.41093 
L 264.836076 228.785878 
L 264.937551 228.910889 
L 265.140501 230.286002 
L 265.343451 230.661033 
L 265.444925 230.536023 
L 265.5464 230.661033 
L 265.74935 230.536023 
L 265.9523 230.911054 
L 266.053774 231.536106 
L 266.256724 231.036064 
L 266.459674 231.161075 
L 266.662623 231.786126 
L 266.967048 232.661199 
L 267.068523 233.411261 
L 267.169998 233.286251 
L 267.474422 234.411344 
L 267.575897 234.036313 
L 267.677372 234.411344 
L 267.778847 234.286333 
L 267.981796 234.536354 
L 268.083271 234.286333 
L 268.286221 235.411426 
L 268.590645 236.411509 
L 268.69212 236.286499 
L 268.793595 236.286499 
L 268.996545 237.099066 
L 269.09802 236.724035 
L 269.300969 237.224076 
L 269.402444 237.099066 
L 269.503919 236.724035 
L 269.605394 237.099066 
L 269.706869 236.724035 
L 269.909818 237.349086 
L 270.011293 236.724035 
L 270.112768 237.349086 
L 270.214243 237.099066 
L 270.315718 237.349086 
L 270.417193 238.349169 
L 270.518667 237.849128 
L 270.823092 238.84921 
L 271.026042 238.474179 
L 271.127516 238.7242 
L 271.330466 239.599272 
L 271.431941 239.599272 
L 271.533416 239.724283 
L 271.83784 240.724365 
L 271.939315 240.474345 
L 272.04079 240.724365 
L 272.24374 240.474345 
L 272.446689 241.224407 
L 272.548164 240.974386 
L 272.649639 240.724365 
L 273.055538 241.349417 
L 273.359963 242.3495 
L 273.562913 241.724448 
L 273.867337 242.974551 
L 273.968812 242.974551 
L 274.070287 243.224572 
L 274.171762 243.099562 
L 274.273236 243.349582 
L 274.476186 244.349665 
L 274.577661 244.724696 
L 274.780611 244.099644 
L 274.882086 244.474675 
L 274.98356 245.474758 
L 275.085035 245.224737 
L 275.287985 245.849789 
L 275.38946 244.724696 
L 275.592409 244.849706 
L 275.795359 245.849789 
L 275.998309 245.724779 
L 276.099784 245.724779 
L 276.201258 245.349748 
L 276.302733 245.599768 
L 276.404208 246.349831 
L 276.607158 245.349748 
L 276.708633 245.474758 
L 276.810107 245.224737 
L 276.911582 245.474758 
L 277.013057 244.974717 
L 277.216007 245.474758 
L 277.723381 244.724696 
L 278.027806 245.724779 
L 278.230755 246.09981 
L 278.33223 246.22482 
L 278.53518 245.724779 
L 278.636655 245.849789 
L 278.738129 245.474758 
L 278.839604 245.599768 
L 278.941079 246.599851 
L 279.042554 246.09981 
L 279.144029 246.849872 
L 279.245504 246.474841 
L 279.346978 247.474924 
L 279.448453 247.349913 
L 279.549928 246.599851 
L 279.651403 247.224903 
L 279.752878 246.849872 
L 279.854353 247.349913 
L 279.955828 246.849872 
L 280.057302 247.349913 
L 280.158777 247.224903 
L 280.361727 247.974965 
L 280.666151 247.599934 
L 280.767626 248.224986 
L 280.869101 248.099975 
L 281.072051 248.349996 
L 281.275 249.350079 
L 281.376475 249.475089 
L 281.47795 250.475172 
L 281.782375 249.97513 
L 281.883849 249.72511 
L 281.985324 250.850203 
L 282.188274 250.725192 
L 282.289749 250.975213 
L 282.391224 250.350161 
L 282.594173 250.975213 
L 282.695648 251.600265 
L 282.797123 250.975213 
L 282.898598 251.725275 
L 283.405972 250.725192 
L 283.608922 251.850285 
L 283.710397 251.475254 
L 283.811871 251.350244 
L 283.913346 250.975213 
L 284.420721 252.600347 
L 284.522195 252.475337 
L 284.62367 252.600347 
L 284.725145 252.225316 
L 285.02957 253.350409 
L 285.131044 253.47542 
L 285.232519 252.350327 
L 285.333994 252.975378 
L 285.435469 252.850368 
L 285.536944 252.350327 
L 285.638419 253.60043 
L 285.841368 253.350409 
L 286.247268 254.225482 
L 286.348742 253.72544 
L 286.754642 254.725523 
L 286.957592 255.600595 
L 287.160541 255.850616 
L 287.262016 256.225647 
L 287.363491 255.600595 
L 287.464966 256.475668 
L 287.667915 255.975626 
L 287.870865 256.600678 
L 287.97234 256.600678 
L 288.17529 256.975709 
L 288.276764 257.22573 
L 288.378239 257.100719 
L 288.479714 257.975792 
L 288.581189 257.100719 
L 288.682664 257.22573 
L 288.885613 257.975792 
L 289.190038 257.47575 
L 289.494463 258.475833 
L 289.697412 258.100802 
L 289.900362 258.350823 
L 290.103312 257.725771 
L 290.204786 258.850864 
L 290.306261 258.350823 
L 290.509211 259.350905 
L 290.712161 259.100885 
L 290.813635 259.350905 
L 291.016585 258.725854 
L 291.219535 259.100885 
L 291.32101 259.350905 
L 291.523959 258.600843 
L 291.625434 258.850864 
L 291.828384 259.850947 
L 292.031334 259.850947 
L 292.132808 259.725936 
L 292.234283 260.225978 
L 292.335758 259.475916 
L 292.538708 260.225978 
L 292.640183 259.600926 
L 292.741657 259.850947 
L 292.843132 259.725936 
L 293.046082 258.600843 
L 293.147557 259.600926 
L 293.249032 259.225895 
L 293.350506 259.725936 
L 293.451981 259.475916 
L 293.553456 259.975957 
L 293.654931 259.600926 
L 293.756406 259.725936 
L 293.959356 260.601009 
L 294.06083 260.726019 
L 294.162305 260.601009 
L 294.26378 260.851029 
L 294.365255 260.726019 
L 294.46673 260.851029 
L 294.669679 260.475998 
L 294.771154 260.97604 
L 294.872629 260.851029 
L 294.974104 261.10105 
L 295.075579 260.851029 
L 295.481478 261.976122 
L 295.582953 262.476164 
L 295.684428 262.351153 
L 295.785903 261.976122 
L 295.887377 262.226143 
L 295.988852 262.976205 
L 296.090327 262.726184 
L 296.191802 262.851195 
L 296.293277 262.351153 
L 296.699176 263.601257 
L 296.800651 263.476246 
L 296.902126 263.476246 
L 297.003601 263.851277 
L 297.105076 263.476246 
L 297.308025 264.72635 
L 297.510975 263.976288 
L 297.61245 264.351319 
L 297.713925 264.101298 
L 297.815399 264.226308 
L 298.018349 265.101381 
L 298.119824 265.226391 
L 298.221299 265.101381 
L 298.322774 265.601422 
L 298.424248 265.476412 
L 298.525723 264.913865 
L 298.627198 265.413907 
L 298.728673 265.038876 
L 298.830148 265.788938 
L 298.931623 265.663927 
L 299.236047 267.289062 
L 299.337522 267.164051 
L 299.438997 266.78902 
L 299.743421 267.539082 
L 299.844896 267.414072 
L 300.35227 267.914113 
L 300.859645 270.164299 
L 300.961119 270.039289 
L 301.062594 270.789351 
L 301.265544 270.039289 
L 301.367019 270.789351 
L 301.468494 270.41432 
L 301.671443 271.164382 
L 301.874393 271.914444 
L 301.975868 271.539413 
L 302.077343 271.914444 
L 302.178818 271.664423 
L 302.787667 273.539578 
L 302.889141 273.414568 
L 303.092091 272.789516 
L 303.193566 272.789516 
L 303.497991 273.664589 
L 303.599465 273.164547 
L 303.802415 273.914609 
L 303.90389 273.914609 
L 304.309789 274.914692 
L 304.411264 274.664671 
L 304.614214 275.414733 
L 304.817163 275.039702 
L 304.918638 275.164713 
L 305.020113 275.789764 
L 305.121588 275.414733 
L 306.440761 279.915105 
L 306.643711 279.540074 
L 306.745185 279.540074 
L 306.84666 279.665085 
L 306.948135 279.040033 
L 307.04961 279.540074 
L 307.25256 279.415064 
L 307.354034 279.415064 
L 307.455509 280.165126 
L 307.556984 279.540074 
L 307.658459 280.665167 
L 307.759934 279.915105 
L 307.861409 280.540157 
L 307.962883 280.415147 
L 308.064358 280.540157 
L 308.165833 280.290136 
L 308.368783 280.665167 
L 308.571733 280.290136 
L 308.673207 280.290136 
L 308.774682 280.790178 
L 308.876157 280.540157 
L 309.485006 281.79026 
L 309.586481 281.79026 
L 309.890905 283.040364 
L 309.99238 283.165374 
L 310.093855 283.040364 
L 310.39828 284.040446 
L 310.601229 284.040446 
L 310.702704 284.415477 
L 311.007129 283.915436 
L 311.210078 283.665415 
L 311.311553 284.165457 
L 311.413028 283.290384 
L 311.514503 283.415395 
L 311.615978 283.290384 
L 311.717453 283.540405 
L 311.818927 284.790508 
L 311.920402 284.040446 
L 312.326302 285.165539 
L 312.630726 286.415643 
L 312.732201 286.540653 
L 312.833676 286.165622 
L 313.036626 287.415726 
L 313.239575 286.790674 
L 313.34105 286.915684 
L 313.544 287.415726 
L 313.746949 287.415726 
L 314.152849 287.040695 
L 314.355798 287.290715 
L 314.457273 287.165705 
L 314.660223 287.540736 
L 314.761698 287.415726 
L 314.863173 287.165705 
L 314.964647 287.290715 
L 315.066122 287.165705 
L 315.167597 287.665746 
L 315.269072 287.290715 
L 315.472022 287.915767 
L 315.573497 288.540819 
L 315.674971 288.415808 
L 315.776446 288.540819 
L 315.877921 289.04086 
L 315.979396 288.790839 
L 316.182346 289.415891 
L 316.385295 289.290881 
L 316.48677 288.540819 
L 316.588245 288.790839 
L 316.791195 288.540819 
L 316.994144 289.16587 
L 317.298569 289.16587 
L 317.704468 288.040777 
L 317.805943 288.165788 
L 317.907418 288.415808 
L 318.211842 287.540736 
L 318.313317 287.665746 
L 318.414792 288.040777 
L 318.617742 287.290715 
L 318.820691 288.540819 
L 319.023641 288.165788 
L 319.226591 289.16587 
L 319.733965 289.853427 
L 319.83544 290.228458 
L 319.936915 289.728417 
L 320.342814 291.10353 
L 320.545764 290.603489 
L 320.647239 290.478479 
L 321.053138 291.978603 
L 321.256088 291.728582 
L 321.357562 291.603572 
L 321.459037 292.353634 
L 321.560512 292.228623 
L 321.763462 292.853675 
L 321.864937 292.228623 
L 321.966411 292.353634 
L 322.270836 291.853592 
L 322.575261 292.353634 
L 322.676735 291.978603 
L 322.77821 292.103613 
L 322.879685 291.978603 
L 323.082635 292.728665 
L 323.285584 293.103696 
L 323.387059 293.603737 
L 323.691484 293.228706 
L 323.792959 293.603737 
L 323.995908 293.103696 
L 324.198858 293.728747 
L 324.503282 294.72883 
L 324.604757 294.478809 
L 324.706232 294.85384 
L 324.909182 294.60382 
L 325.315081 294.978851 
L 325.416556 294.85384 
L 325.720981 295.603902 
L 325.822455 294.85384 
L 325.92393 295.603902 
L 326.12688 294.978851 
L 326.431304 295.603902 
L 326.532779 295.603902 
L 326.634254 295.728913 
L 326.735729 295.228871 
L 326.837204 295.603902 
L 326.938679 295.353882 
L 327.243103 296.603985 
L 327.344578 296.728995 
L 327.547528 297.854088 
L 327.649003 297.291542 
L 327.953427 298.041604 
L 328.054902 297.666573 
L 328.562276 298.291625 
L 328.663751 298.166614 
L 328.765226 298.666656 
L 328.866701 298.541645 
L 329.06965 299.416718 
L 329.171125 298.916676 
L 329.2726 299.416718 
L 329.47555 298.791666 
L 329.678499 299.541728 
L 329.779974 299.541728 
L 329.982924 299.416718 
L 330.084399 299.541728 
L 330.185874 300.16678 
L 330.287348 299.916759 
L 330.388823 300.4168 
L 330.490298 300.041769 
L 330.693248 300.791831 
L 330.794723 300.666821 
L 330.997672 300.916842 
L 331.099147 301.791914 
L 331.200622 301.416883 
L 331.302097 301.541893 
L 331.403572 302.166945 
L 331.505046 301.97943 
L 331.606521 302.479471 
L 331.707996 301.729409 
L 331.910946 302.979512 
L 332.113896 302.729492 
L 332.316845 302.729492 
L 332.41832 302.854502 
L 332.519795 302.604481 
L 332.62127 302.729492 
L 332.722745 302.666986 
L 332.824219 302.791997 
L 332.925694 302.666986 
L 333.027169 302.791997 
L 333.230119 302.666986 
L 333.433068 303.292038 
L 333.534543 303.167028 
L 333.636018 303.542059 
L 333.838968 302.917007 
L 333.940443 303.292038 
L 334.041917 302.541976 
L 334.143392 303.542059 
L 334.244867 303.292038 
L 334.447817 303.91709 
L 334.549292 303.91709 
L 334.650767 303.792079 
L 334.853716 304.0421 
L 334.955191 304.16711 
L 335.056666 303.042017 
L 335.259616 304.542141 
L 335.36109 304.16711 
L 335.462565 305.042183 
L 335.56404 304.542141 
L 335.76699 304.792162 
L 335.868465 305.167193 
L 335.969939 304.917172 
L 336.071414 305.042183 
L 336.172889 305.667234 
L 336.375839 305.292203 
L 336.477314 305.917255 
L 336.578788 305.667234 
L 336.781738 306.042265 
L 336.984688 306.042265 
L 337.086163 305.917255 
L 337.187638 306.042265 
L 337.289112 305.542224 
L 337.390587 306.417296 
L 337.492062 306.167276 
L 337.695012 306.667317 
L 337.796487 306.292286 
L 337.897961 306.542307 
L 338.100911 305.417214 
L 338.202386 306.292286 
L 338.303861 305.917255 
L 338.405336 306.042265 
L 338.91271 307.6674 
L 339.014185 307.167358 
L 339.115659 308.042431 
L 339.318609 307.6674 
L 339.623034 308.417462 
L 339.724509 308.292451 
L 340.130408 310.042596 
L 340.231883 310.167606 
L 340.333358 310.917668 
L 340.434832 310.542637 
L 340.739257 311.66773 
L 341.754005 314.167937 
L 341.956955 313.917916 
L 342.05843 314.167937 
L 342.159905 313.792906 
L 342.26138 314.917999 
L 342.464329 314.667979 
L 342.667279 315.29303 
L 342.768754 315.04301 
L 342.870229 315.29303 
L 342.971703 315.04301 
L 343.073178 315.16802 
L 343.174653 315.04301 
L 343.377603 315.418041 
L 343.682027 314.667979 
L 343.783502 315.16802 
L 343.884977 314.292947 
L 343.986452 314.917999 
L 344.189402 314.417958 
L 344.595301 314.042927 
L 344.696776 314.167937 
L 344.798251 314.917999 
L 344.899725 314.792989 
L 345.102675 315.543051 
L 345.20415 315.29303 
L 345.4071 315.668061 
L 345.508574 315.29303 
L 345.711524 315.918082 
L 345.812999 316.043092 
L 345.914474 316.668144 
L 346.015949 316.418123 
L 346.218898 317.418206 
L 346.320373 317.418206 
L 346.421848 317.668227 
L 346.523323 317.293196 
L 346.726273 318.043258 
L 346.827747 317.918247 
L 346.929222 318.043258 
L 347.030697 318.355783 
L 347.132172 317.980752 
L 347.335122 318.980835 
L 347.436596 318.730814 
L 347.639546 318.980835 
L 347.741021 318.730814 
L 347.842496 319.105845 
L 348.045445 318.855825 
L 348.451345 319.605887 
L 348.654294 319.105845 
L 348.857244 319.855907 
L 348.958719 319.605887 
L 349.263144 320.605969 
L 349.567568 320.105928 
L 349.669043 320.230938 
L 349.770518 320.73098 
L 349.871993 320.230938 
L 350.074942 321.356031 
L 350.176417 321.231021 
L 350.683791 322.356114 
L 350.785266 322.043588 
L 351.191166 322.79365 
L 351.394115 322.54363 
L 351.49559 322.66864 
L 351.597065 322.168599 
L 351.69854 322.79365 
L 351.901489 322.66864 
L 352.002964 322.66864 
L 352.408864 324.043754 
L 352.611813 323.543712 
L 352.713288 323.293692 
L 352.814763 323.668723 
L 353.119187 323.168681 
L 353.322137 324.168764 
L 353.423612 323.793733 
L 353.626562 324.168764 
L 353.728037 324.918826 
L 353.930986 324.668805 
L 354.133936 325.543878 
L 354.235411 325.543878 
L 354.539835 325.918909 
L 354.64131 326.29394 
L 354.742785 326.168929 
L 354.945735 326.918991 
L 355.148684 326.41895 
L 355.351634 326.793981 
L 355.453109 326.168929 
L 355.757533 327.294022 
L 355.859008 327.294022 
L 356.061958 327.919074 
L 356.163433 327.419033 
L 356.264908 327.544043 
L 356.467857 327.294022 
L 356.569332 327.294022 
L 356.772282 328.169095 
L 356.873757 327.669053 
L 357.076706 328.044084 
L 357.178181 327.669053 
L 357.381131 328.419115 
L 357.58408 328.294105 
L 357.78703 328.856652 
L 357.98998 328.606631 
L 358.091455 328.856652 
L 358.192929 328.731641 
L 358.294404 329.106672 
L 358.395879 328.731641 
L 358.497354 329.356693 
L 358.598829 329.106672 
L 358.700304 329.356693 
L 358.801779 328.856652 
L 359.004728 329.231683 
L 359.106203 328.731641 
L 359.410628 330.481786 
L 359.715052 330.856817 
L 359.918002 331.231848 
L 360.120951 331.106838 
L 360.323901 331.356858 
L 360.526851 331.731889 
L 360.729801 331.356858 
L 360.93275 332.10692 
L 361.034225 331.8569 
L 361.1357 331.98191 
L 361.33865 332.856982 
L 361.541599 333.232013 
L 361.643074 333.232013 
L 361.846024 334.107086 
L 361.947499 334.107086 
L 362.048973 333.982075 
L 362.251923 334.232096 
L 362.353398 334.107086 
L 362.454873 334.607127 
L 362.556348 334.357106 
L 362.759297 334.919653 
L 362.860772 334.919653 
L 363.063722 335.419694 
L 363.165197 335.544704 
L 363.266672 335.919735 
L 363.368146 335.544704 
L 363.672571 336.919818 
L 363.774046 336.794808 
L 363.875521 337.232344 
L 363.976995 337.107334 
L 364.179945 337.482365 
L 364.28142 337.482365 
L 364.382895 337.232344 
L 364.48437 337.607375 
L 364.585844 337.482365 
L 364.890269 337.982406 
L 364.991744 337.857396 
L 365.093219 337.732385 
L 365.194693 338.482447 
L 365.296168 338.169921 
L 365.397643 338.544952 
L 365.499118 338.419942 
L 365.702068 339.170004 
L 365.803543 338.794973 
L 366.006492 340.170087 
L 366.107967 340.107582 
L 366.310917 340.795138 
L 366.513866 340.795138 
L 366.818291 341.357685 
L 366.919766 341.357685 
L 367.122715 341.607706 
L 367.325665 341.357685 
L 367.528615 342.732799 
L 367.63009 342.232757 
L 367.934514 343.10783 
L 368.035989 342.857809 
L 368.137464 343.482861 
L 368.238939 343.10783 
L 368.340414 343.857892 
L 368.441888 343.23284 
L 368.644838 343.482861 
L 368.746313 343.482861 
L 368.949263 344.107912 
L 369.050737 343.732881 
L 369.152212 343.982902 
L 369.253687 343.857892 
L 369.355162 343.982902 
L 369.456637 343.857892 
L 369.558112 344.232923 
L 369.659586 344.107912 
L 369.761061 344.482943 
L 369.964011 344.107912 
L 370.166961 344.482943 
L 370.268436 344.482943 
L 370.471385 344.857974 
L 370.57286 344.857974 
L 370.674335 345.358016 
L 370.77581 345.107995 
L 371.181709 346.483109 
L 371.486134 346.483109 
L 371.689083 346.85814 
L 371.790558 347.10816 
L 371.892033 346.98315 
L 372.094983 347.10816 
L 372.196457 346.98315 
L 372.602357 347.858222 
L 372.703832 347.858222 
L 372.805307 348.233253 
L 372.906781 347.733212 
L 373.008256 348.233253 
L 373.109731 348.108243 
L 373.211206 348.358264 
L 373.312681 348.233253 
L 373.414156 348.483274 
L 373.617105 348.358264 
L 374.225954 349.108326 
L 374.327429 348.983315 
L 374.834803 349.608367 
L 375.139228 350.483439 
L 375.240703 350.358429 
L 375.443652 351.108491 
L 375.545127 350.983481 
L 375.646602 351.108491 
L 375.748077 350.73346 
L 376.052501 351.358512 
L 376.153976 351.233501 
L 376.8643 352.733625 
L 376.965775 352.733625 
L 377.06725 353.233667 
L 377.168725 353.108656 
L 377.270199 353.608698 
L 377.371674 353.483687 
L 377.574624 353.983729 
L 377.676099 353.858718 
L 377.980523 354.48377 
L 378.081998 354.233749 
L 378.183473 354.35876 
L 378.386423 354.733791 
L 378.487898 354.983811 
L 378.690847 354.858801 
L 379.096747 355.608863 
L 379.198221 355.483853 
L 379.401171 355.733874 
L 379.604121 356.17141 
L 379.705596 356.546441 
L 379.908545 356.42143 
L 380.314445 356.796461 
L 380.41592 356.796461 
L 380.720344 357.296503 
L 381.126243 357.796544 
L 381.227718 358.296585 
L 381.329193 358.171575 
L 381.532143 358.546606 
L 381.633618 358.546606 
L 382.546891 359.671699 
L 382.749841 360.17174 
L 382.952791 360.546771 
L 383.054265 360.296751 
L 383.257215 360.546771 
L 383.35869 360.546771 
L 383.460165 360.796792 
L 383.663114 360.546771 
L 383.764589 360.796792 
L 383.866064 360.671782 
L 384.677863 361.796875 
L 384.779338 361.421844 
L 385.388187 362.734452 
L 385.692611 362.984473 
L 385.895561 362.921968 
L 386.098511 362.796957 
L 386.199985 363.046978 
L 386.30146 362.921968 
L 386.50441 363.547019 
L 386.808834 363.734535 
L 387.113259 364.484597 
L 387.214734 364.359587 
L 387.722108 365.922216 
L 388.128007 366.609773 
L 388.229482 366.609773 
L 388.330957 366.484762 
L 388.838331 367.67236 
L 389.041281 367.484845 
L 389.244231 367.984886 
L 389.548655 368.859959 
L 389.751605 369.36 
L 622.636364 369.36 
L 622.636364 369.36 
" clip-path="url(#p40c97e0ced)" style="fill: none; stroke: #0000ff; stroke-width: 2; stroke-linecap: square"/>
   </g>
   <g id="patch_3">
    <path d="M 90 384.48 
L 90 51.84 
" style="fill: none; stroke: #000000; stroke-width: 0.8; stroke-linejoin: miter; stroke-linecap: square"/>
   </g>
   <g id="patch_4">
    <path d="M 648 384.48 
L 648 51.84 
" style="fill: none; stroke: #000000; stroke-width: 0.8; stroke-linejoin: miter; stroke-linecap: square"/>
   </g>
   <g id="patch_5">
    <path d="M 90 384.48 
L 648 384.48 
" style="fill: none; stroke: #000000; stroke-width: 0.8; stroke-linejoin: miter; stroke-linecap: square"/>
   </g>
   <g id="patch_6">
    <path d="M 90 51.84 
L 648 51.84 
" style="fill: none; stroke: #000000; stroke-width: 0.8; stroke-linejoin: miter; stroke-linecap: square"/>
   </g>
   <g id="text_15">
    <!-- Spots_Density -->
    <g transform="translate(326.4225 45.84)scale(0.12 -0.12)">
     <defs>
      <path id="DejaVuSans-53" d="M 3425 4513 
L 3425 3897 
Q 3066 4069 2747 4153 
Q 2428 4238 2131 4238 
Q 1616 4238 1336 4038 
Q 1056 3838 1056 3469 
Q 1056 3159 1242 3001 
Q 1428 2844 1947 2747 
L 2328 2669 
Q 3034 2534 3370 2195 
Q 3706 1856 3706 1288 
Q 3706 609 3251 259 
Q 2797 -91 1919 -91 
Q 1588 -91 1214 -16 
Q 841 59 441 206 
L 441 856 
Q 825 641 1194 531 
Q 1563 422 1919 422 
Q 2459 422 2753 634 
Q 3047 847 3047 1241 
Q 3047 1584 2836 1778 
Q 2625 1972 2144 2069 
L 1759 2144 
Q 1053 2284 737 2584 
Q 422 2884 422 3419 
Q 422 4038 858 4394 
Q 1294 4750 2059 4750 
Q 2388 4750 2728 4690 
Q 3069 4631 3425 4513 
z
" transform="scale(0.015625)"/>
      <path id="DejaVuSans-5f" d="M 3263 -1063 
L 3263 -1509 
L -63 -1509 
L -63 -1063 
L 3263 -1063 
z
" transform="scale(0.015625)"/>
     </defs>
     <use xlink:href="#DejaVuSans-53"/>
     <use xlink:href="#DejaVuSans-70" x="63.476562"/>
     <use xlink:href="#DejaVuSans-6f" x="126.953125"/>
     <use xlink:href="#DejaVuSans-74" x="188.134766"/>
     <use xlink:href="#DejaVuSans-73" x="227.34375"/>
     <use xlink:href="#DejaVuSans-5f" x="279.443359"/>
     <use xlink:href="#DejaVuSans-44" x="329.443359"/>
     <use xlink:href="#DejaVuSans-65" x="406.445312"/>
     <use xlink:href="#DejaVuSans-6e" x="467.96875"/>
     <use xlink:href="#DejaVuSans-73" x="531.347656"/>
     <use xlink:href="#DejaVuSans-69" x="583.447266"/>
     <use xlink:href="#DejaVuSans-74" x="611.230469"/>
     <use xlink:href="#DejaVuSans-79" x="650.439453"/>
    </g>
   </g>
  </g>
 </g>
 <defs>
  <clipPath id="p40c97e0ced">
   <rect x="90" y="51.84" width="558" height="332.64"/>
  </clipPath>
 </defs>
</svg>
